SplineFontDB: 3.0
FontName: N-Numbers
FullName: 
FamilyName: N
Weight: 
Copyright: 
UComments: "2011-5-24: Created." 
Version: 0
ItalicAngle: 0
UnderlinePosition: -100
UnderlineWidth: 50
Ascent: 800
Descent: 200
sfntRevision: 0x00000000
LayerCount: 5
Layer: 0 0 "Back"  1
Layer: 1 0 "Zeichenebene"  0
Layer: 2 0 "Struktur 1"  1
Layer: 3 0 "Struktur 2"  1
Layer: 4 0 "Struktur 3"  1
XUID: [1021 201 23757 16427]
FSType: 0
OS2Version: 0
OS2_WeightWidthSlopeOnly: 0
OS2_UseTypoMetrics: 1
CreationTime: 1306259327
ModificationTime: 1409118569
OS2TypoAscent: 0
OS2TypoAOffset: 1
OS2TypoDescent: 0
OS2TypoDOffset: 1
OS2TypoLinegap: 90
OS2WinAscent: 0
OS2WinAOffset: 1
OS2WinDescent: 0
OS2WinDOffset: 1
HheadAscent: 0
HheadAOffset: 1
HheadDescent: 0
HheadDOffset: 1
OS2Vendor: 'PfEd'
MarkAttachClasses: 1
DEI: 91125
Encoding: UnicodeBmp
UnicodeInterp: none
NameList: Adobe Glyph List
DisplaySize: -72
AntiAlias: 1
FitToEm: 1
WinInfo: 968 8 6
BeginPrivate: 0
EndPrivate
Grid
-1000 281 m 0
 2000 281 l 1024
EndSplineSet
BeginChars: 65536 606

StartChar: eight
Encoding: 56 56 0
Width: 208
Flags: HMW
LayerCount: 5
Fore
SplineSet
104 240 m 0
 63 240 60 184 60 130 c 0
 60 76 63 19 104 19 c 0
 145 19 147 76 147 130 c 0
 147 184 145 240 104 240 c 0
104 263 m 4
 180 263 208 200 208 130 c 0
 208 60 180 -4 104 -4 c 0
 28 -4 0 60 0 130 c 0
 0 200 28 263 104 263 c 4
EndSplineSet
EndChar

StartChar: nine
Encoding: 57 57 1
Width: 181
Flags: HMW
LayerCount: 5
Fore
SplineSet
122 262 m 3
 127 262 131 258 131 248 c 2
 131 52 l 6
 131 20 146 28 171 24 c 4
 181 22 181 18 181 12 c 4
 181 3 179 0 169 0 c 6
 32 0 l 6
 23 0 21 3 21 11 c 4
 21 16 22 22 31 23 c 4
 64 27 74 24 74 60 c 6
 74 153 l 2
 74 163 71 167 67 167 c 0
 64 167 59 164 54 158 c 2
 18 121 l 2
 15 117 11 115 8 115 c 0
 4 115 0 118 0 122 c 0
 0 124 1 126 2 129 c 2
 68 240 l 2
 79 258 79 262 90 262 c 3
 96 262 99 261 106 261 c 3
 113 261 114 262 122 262 c 3
EndSplineSet
EndChar

StartChar: colon
Encoding: 58 58 2
Width: 209
Flags: HMW
LayerCount: 5
Fore
SplineSet
109 265 m 4
 167 265 209 230 209 186 c 0
 209 137 144 119 119 110 c 0
 91 100 75 94 75 83 c 0
 75 60 131 53 146 53 c 0
 163 53 177 63 186 89 c 0
 190 99 192 107 199 107 c 0
 205 107 208 103 208 93 c 0
 208 48 179 -3 140 -3 c 0
 95 -3 95 32 57 32 c 0
 41 32 31 21 24 8 c 0
 19 -2 16 -4 10 -4 c 0
 5 -4 0 -1 0 13 c 0
 0 58 45 103 86 126 c 0
 127 149 146 159 146 192 c 0
 146 224 128 240 96 240 c 0
 73 240 58 229 58 217 c 0
 58 202 72 203 72 181 c 0
 72 165 61 152 39 152 c 0
 16 152 7 171 7 191 c 0
 7 229 45 265 109 265 c 4
EndSplineSet
EndChar

StartChar: M
Encoding: 77 77 3
Width: 212
VWidth: 1474
Flags: HMW
HStem: -9 22<45 94> 137 24<72 127> 210 50<76 177>
VStem: 0 45<14 70> 133 48<53 134>
LayerCount: 5
Fore
SplineSet
33 86 m 3
 48 86 59 75 59 59 c 3
 59 41 46 38 46 25 c 3
 46 18 54 15 62 15 c 0
 87 15 106 28 120 53 c 0
 129 69 136 88 136 102 c 0
 136 126 125 136 100 136 c 0
 66 136 60 114 37 114 c 0
 27 114 27 124 30 132 c 2
 68 246 l 2
 72 258 76 261 85 261 c 0
 91 261 104 256 124 256 c 0
 149 256 178 259 194 263 c 0
 198 264 202 265 205 265 c 3
 211 265 212 263 212 258 c 3
 212 255 211 252 208 248 c 0
 193 226 150 210 122 210 c 0
 106 210 112 210 101 210 c 0
 90 210 82 207 78 196 c 2
 72 176 l 2
 69 167 70 158 81 158 c 3
 93 158 99 161 116 161 c 3
 158 161 184 135 184 95 c 0
 184 35 128 -9 68 -9 c 0
 28 -9 0 9 0 49 c 3
 0 71 11 86 33 86 c 3
EndSplineSet
EndChar

StartChar: O
Encoding: 79 79 4
Width: 195
VWidth: 1474
Flags: HMW
LayerCount: 5
Fore
SplineSet
122 178 m 0
 102 178 92 199 78 199 c 0
 56 199 49 182 43 164 c 0
 40 155 35 150 29 150 c 0
 22 150 20 154 20 160 c 0
 20 162 20 165 21 167 c 0
 26 189 39 239 42 249 c 0
 45 258 48 259 53 259 c 0
 70 259 56 229 74 229 c 0
 93 229 97 254 125 254 c 0
 149 254 148 228 166 228 c 0
 183 228 190 239 194 249 c 0
 197 257 202 258 207 258 c 0
 212 258 215 255 215 246 c 0
 215 245 215 244 215 242 c 0
 210 200 189 171 161 129 c 0
 139 95 122 57 116 19 c 0
 114 5 106 -3 99 -3 c 3
 88 -3 86 -1 72 -1 c 3
 58 -1 59 -3 45 -3 c 3
 37 -3 34 1 34 7 c 0
 34 11 35 15 37 19 c 0
 53 52 80 88 124 130 c 0
 136 141 151 159 160 173 c 0
 163 178 164 181 164 184 c 0
 164 188 161 190 157 190 c 0
 154 190 150 189 146 186 c 0
 136 179 129 178 122 178 c 0
EndSplineSet
EndChar

StartChar: grave
Encoding: 96 96 5
Width: 322
VWidth: 768
Flags: HMW
LayerCount: 5
Fore
SplineSet
117 159 m 3
 89 159 52 133 52 93 c 3
 52 50 108 27 160 27 c 3
 222 27 237 50 237 74 c 3
 237 119 167 159 117 159 c 3
164 340 m 3
 133 340 80 334 80 296 c 3
 80 250 167 221 205 221 c 3
 230 221 259 235 259 268 c 3
 259 308 216 340 164 340 c 3
164 371 m 3
 225 371 292 337 292 268 c 3
 292 242 282 227 273 216 c 0
 265 207 260 201 260 194 c 3
 260 187 263 181 270 174 c 0
 284 159 304 141 304 106 c 3
 304 39 247 -5 160 -5 c 3
 89 -5 19 28 19 93 c 3
 19 130 36 148 50 161 c 0
 59 169 64 175 64 182 c 3
 64 189 57 196 48 208 c 0
 37 221 26 239 26 266 c 3
 26 340 91 371 164 371 c 3
EndSplineSet
EndChar

StartChar: a
Encoding: 97 97 6
Width: 314
VWidth: 768
Flags: HMW
LayerCount: 5
Fore
SplineSet
147 186 m 3
 166 186 184 195 192 203 c 0
 205 216 209 221 209 274 c 3
 209 292 208 340 149 340 c 3
 102 340 98 292 98 254 c 3
 98 214 106 186 147 186 c 3
137 -4 m 3
 73 -4 36 28 36 78 c 3
 36 107 58 133 91 133 c 3
 110 133 134 121 134 90 c 3
 134 54 104 57 104 41 c 3
 104 32 112 27 135 27 c 3
 209 27 209 81 209 132 c 3
 209 162 201 162 192 162 c 3
 175 162 157 151 124 151 c 3
 56 151 19 194 19 256 c 3
 19 326 81 372 145 372 c 3
 249 372 296 278 296 186 c 3
 296 84 241 -4 137 -4 c 3
EndSplineSet
EndChar

StartChar: uni0080
Encoding: 128 128 7
Width: 430
VWidth: 1024
Flags: HMW
LayerCount: 5
Fore
SplineSet
152 213 m 3
 115 213 64 178 64 124 c 3
 64 62 143 31 213 31 c 3
 295 31 316 66 316 98 c 3
 316 158 219 213 152 213 c 3
218 458 m 3
 177 458 106 450 106 395 c 3
 106 333 227 293 277 293 c 3
 310 293 351 313 351 357 c 3
 351 420 288 458 218 458 c 3
218 495 m 7
 299 495 389 449 389 357 c 3
 389 293 344 279 344 258 c 3
 344 230 405 212 405 141 c 3
 405 52 329 -7 213 -7 c 3
 118 -7 25 37 25 124 c 3
 25 206 89 220 89 243 c 3
 89 262 35 284 35 354 c 3
 35 453 121 495 218 495 c 7
EndSplineSet
EndChar

StartChar: uni0081
Encoding: 129 129 8
Width: 419
VWidth: 1024
Flags: HMW
LayerCount: 5
Fore
SplineSet
195 242 m 3
 220 242 244 254 255 265 c 0
 272 282 277 294 277 365 c 3
 277 389 277 461 198 461 c 3
 135 461 130 389 130 339 c 3
 130 285 140 242 195 242 c 3
181 -5 m 3
 96 -5 47 38 47 104 c 3
 47 143 77 183 121 183 c 3
 146 183 183 169 183 121 c 3
 183 63 131 71 131 50 c 3
 131 38 148 30 179 30 c 3
 277 30 277 108 277 176 c 3
 277 216 271 222 260 222 c 3
 243 222 215 202 164 202 c 3
 73 202 25 259 25 341 c 3
 25 434 106 496 192 496 c 3
 331 496 394 372 394 249 c 3
 394 113 319 -5 181 -5 c 3
EndSplineSet
EndChar

StartChar: uni008B
Encoding: 139 139 9
Width: 393
VWidth: 2048
Flags: HMW
LayerCount: 5
Fore
SplineSet
51 157 m 3
 83 157 102 135 102 104 c 3
 102 72 71 64 71 43 c 3
 71 28 83 20 109 20 c 3
 185 20 221 99 221 174 c 3
 221 209 190 231 157 231 c 3
 139 231 124 232 124 246 c 3
 124 265 136 269 155 269 c 3
 238 269 295 303 295 389 c 3
 295 430 275 457 236 457 c 3
 209 457 188 449.667 188 428 c 3
 188 408 204 396 204 376 c 3
 204 346 183 329 157 329 c 3
 127 329 111 349 111 378 c 3
 111 443 175 489 244 489 c 7
 320 489 383 452 383 377 c 3
 383 323 350 281 286 251 c 0
 275 246 270 240 270 234 c 3
 270 229 274 221 280 215 c 0
 303 192 314 164 314 131 c 3
 314 103 301 79 287 60 c 0
 247 5 187 -16 123 -16 c 3
 50 -16 -10 19 -10 92 c 3
 -10 128 16 157 51 157 c 3
EndSplineSet
EndChar

StartChar: uni008C
Encoding: 140 140 10
Width: 413
VWidth: 2048
Flags: HMW
LayerCount: 5
Fore
SplineSet
347 343 m 2
 304 199 l 2
 304 196 303 194 303 193 c 0
 303 180 311 173 324 173 c 2
 361 173 l 2
 376 173 383 168 383 159 c 0
 383 144 372 134 358 134 c 2
 315 134 l 2
 295 134 281 125 276 107 c 2
 266 71 l 2
 263 65 262 58 262 53 c 0
 262 43 268 35 284 34 c 2
 310 33 l 2
 325 32 333 28 333 20 c 0
 333 6 322 0 306 0 c 2
 92 0 l 2
 84 0 80 4 80 10 c 0
 80 13 81 15 81 18 c 0
 85 27 94 33 112 34 c 0
 147 37 160 39 174 83 c 2
 183 111 l 2
 184 114 184 117 184 120 c 0
 184 129 177 134 162 134 c 2
 9 134 l 2
 -4 134 -10 138 -10 147 c 0
 -10 165 -2 173 17 189 c 0
 94 260 155 377 184 456 c 0
 190 472 198 480 209 480 c 3
 234 480 242 469 267 469 c 3
 295 469 304 480 328 480 c 27
 336 480 342 476 342 467 c 3
 342 453 310 415 246 349 c 0
 204 307 158 265 106 222 c 2
 92 210 l 2
 78 199 72 190 72 184 c 0
 72 176 82 173 102 173 c 2
 168 173 l 2
 194 173 203 180 209 203 c 2
 225 252 l 2
 233 275 246 286 259 299 c 2
 314 353 l 2
 322 361 330 365 338 365 c 3
 343 365 348 362 348 353 c 0
 348 350 348 347 347 343 c 2
EndSplineSet
EndChar

StartChar: uni008D
Encoding: 141 141 11
Width: 383
VWidth: 2048
Flags: HMW
LayerCount: 5
Fore
SplineSet
62 159 m 3
 90 159 109 139 109 109 c 3
 109 71 73 62 73 38 c 3
 73 25 84 19 114 19 c 0
 135 19 155 25 174 40 c 0
 204 65 247 138 247 188 c 0
 247 232 230 256 183 256 c 0
 120 256 105 210 63 210 c 0
 53 210 49 216 49 222 c 0
 49 231 53 240 56 246 c 2
 131 467 l 2
 134 477 142 482 153 482 c 0
 163 482 193 474 230 474 c 0
 277 474 320 479 350 487 c 0
 358 488 366 490 371 490 c 3
 381 490 383 486 383 477 c 3
 383 472 381 467 376 459 c 0
 348 419 279 388 227 388 c 0
 197 388 189 390 169 390 c 0
 149 390 141 382 133 362 c 2
 118 318 l 2
 113 302 111 284 131 284 c 3
 152 284 167 297 213 297 c 3
 290 297 335 250 335 176 c 0
 335 65 238 -16 127 -16 c 0
 53 -16 0 17 0 90 c 3
 0 130 22 159 62 159 c 3
EndSplineSet
EndChar

StartChar: uni008E
Encoding: 142 142 12
Width: 358
VWidth: 2048
Flags: HMW
LayerCount: 5
Fore
SplineSet
292 335 m 4
 266 335 243 349 243 381 c 4
 243 415 265 423 265 438 c 4
 265 448 257 452 243 452 c 4
 201 452 172 428 153 385 c 4
 144 366 130 325 130 301 c 4
 130 283 136 272 151 272 c 4
 166 272 185 288 229 288 c 4
 289 288 327 236 327 177 c 4
 327 67 245 -16 152 -16 c 4
 56 -16 10 41 10 153 c 4
 10 298 94 487 245 487 c 4
 294 487 348 463 348 403 c 4
 348 366 327 335 292 335 c 4
147 20 m 4
 202 20 238 113 238 181 c 4
 238 221 225 244 190 244 c 4
 170 244 151 234 137 219 c 4
 116 195 98 122 98 79 c 4
 98 36 121 20 147 20 c 4
EndSplineSet
EndChar

StartChar: uni008F
Encoding: 143 143 13
Width: 357
VWidth: 2048
Flags: HMW
LayerCount: 5
Fore
SplineSet
66 34 m 0
 96 96 143 164 229 238 c 0
 264 268 317 333 317 358 c 0
 317 366 314 369 308 369 c 0
 288 369 268 345 239 345 c 0
 202 345 173 389 145 389 c 0
 108 389 92 358 76 325 c 0
 70 311 67 302 52 302 c 0
 43 302 40 308 40 314 c 0
 40 330 70 441 75 462 c 0
 79 477 87 480 96 480 c 2
 98 480 l 2
 121 480 102 440 135 440 c 0
 164 440 178 474 230 474 c 0
 278 474 287 432 321 432 c 0
 339 432 352 448 360 462 c 0
 366 473 373 479 382 479 c 2
 386 479 l 2
 394 479 397 475 397 466 c 0
 397 447 382 391 372 363 c 0
 361 333 319 283 290 239 c 0
 250 176 222 106 212 35 c 0
 208 9 196 -5 182 -5 c 3
 162 -5 155 5 130 5 c 3
 105 5 105 -5 80 -5 c 3
 64 -5 61 2 61 13 c 0
 61 19 62 25 66 34 c 0
EndSplineSet
EndChar

StartChar: uni0090
Encoding: 144 144 14
Width: 423
VWidth: 2048
Flags: HMW
LayerCount: 5
Fore
SplineSet
328 201 m 0
 347 173 359 145 359 120 c 1
 360 120 l 1
 360 22 262 -16 169 -16 c 0
 85 -16 -10 34 -10 118 c 0
 -10 163 20 202 79 234 c 0
 98 244 112 255 112 270 c 0
 112 278 110 285 106 293 c 0
 93 317 84 340 84 360 c 0
 84 444 160 488 241 488 c 0
 334 488 413 433 413 360 c 0
 413 317 391 283 344 255 c 0
 330 246 319 238 319 229 c 0
 319 219 322 210 328 201 c 0
362 363 m 0
 362 418 306 452 252 452 c 0
 215 452 171 439 171 394 c 0
 171 380 177 365 185 352 c 0
 194 333 234 272 281 272 c 0
 317 272 362 308 362 363 c 0
144 217 m 0
 99 217 45 172 45 118 c 0
 45 56 110 18 174 18 c 0
 242 18 268 44 268 91 c 0
 268 130 194 217 144 217 c 0
EndSplineSet
EndChar

StartChar: dieresis
Encoding: 168 168 15
Width: 514
Flags: HMW
LayerCount: 5
Fore
SplineSet
0 162 m 0
 0 304 115 419 257 419 c 0
 399 419 514 304 514 162 c 0
 514 20 399 -95 257 -95 c 0
 115 -95 0 20 0 162 c 0
29 162 m 0
 29 36 131 -66 257 -66 c 0
 383 -66 485 36 485 162 c 0
 485 288 383 390 257 390 c 0
 131 390 29 288 29 162 c 0
257 302 m 0
 207 302 204 229 204 162 c 0
 204 95 207 23 257 23 c 0
 307 23 310 95 310 162 c 0
 310 229 307 302 257 302 c 0
257 328 m 0
 351 328 386 249 386 162 c 0
 386 75 351 -3 257 -3 c 0
 163 -3 128 75 128 162 c 0
 128 249 163 328 257 328 c 0
EndSplineSet
EndChar

StartChar: Egrave
Encoding: 200 200 16
Width: 352
VWidth: 2048
Flags: HMW
LayerCount: 5
Fore
SplineSet
303 272 m 2
 269 158 l 2
 269 156 268 154 268 153 c 0
 268 143 275 137 285 137 c 2
 314 137 l 2
 326 137 332 133 332 126 c 0
 332 114 323 106 312 106 c 2
 278 106 l 2
 262 106 251 99 247 85 c 2
 239 56 l 2
 237 51 236 46 236 42 c 0
 236 34 240 28 253 27 c 2
 274 26 l 2
 286 25 292 22 292 16 c 0
 292 5 284 0 271 0 c 2
 101 0 l 2
 95 0 91 3 91 8 c 0
 91 10 92 12 92 14 c 0
 95 21 103 26 117 27 c 0
 145 29 155 31 166 66 c 2
 173 88 l 2
 174 90 174 93 174 95 c 0
 174 102 168 106 156 106 c 2
 35 106 l 2
 25 106 20 110 20 117 c 0
 20 131 26 137 41 150 c 0
 102.507 206.381 151.321 299.634 174 362 c 0
 179 375 185 381 194 381 c 3
 214 381 220 372 240 372 c 3
 262 372 269 381 288 381 c 27
 294 381 299 378 299 371 c 3
 299 360 274 329 223 277 c 0
 190 244 153 210 112 176 c 2
 101 167 l 2
 90 158 85 151 85 146 c 0
 85 140 93 137 109 137 c 2
 161 137 l 2
 182 137 189 143 194 161 c 2
 206 200 l 2
 212 218 223 227 233 237 c 2
 277 280 l 2
 283 286 290 290 296 290 c 3
 300 290 304 287 304 280 c 0
 304 278 304 275 303 272 c 2
EndSplineSet
EndChar

StartChar: Eacute
Encoding: 201 201 17
Width: 324
VWidth: 2048
Flags: HMW
LayerCount: 5
Fore
SplineSet
69 121 m 3
 91 121 106 105 106 81 c 3
 106 51 76 43 76 24 c 3
 76 13 86 8 110 8 c 0
 127 8 143 14 158 26 c 0
 182 46 216 104 216 144 c 0
 216 179 200 195 167 195 c 0
 117 195 103 161 70 161 c 0
 62 161 59 166 59 171 c 0
 59 178 62 185 64 190 c 2
 124 365 l 2
 126 373 132 377 141 377 c 0
 149 377 173 371 202 371 c 0
 239 371 274 375 298 381 c 0
 304 382 310 383 314 383 c 3
 322 383 324 380 324 373 c 3
 324 369 322 365 318 359 c 0
 296 327 241 302 200 302 c 0
 176 302 170 304 154 304 c 0
 138 304 130 298 124 282 c 2
 112 247 l 2
 110 242 109 237 109 233 c 0
 109 225 113 219 123 219 c 3
 140 219 150 230 189 230 c 3
 250 230 286 193 286 134 c 0
 286 46 209 -18 121 -18 c 0
 62 -18 20 8 20 66 c 3
 20 98 37 121 69 121 c 3
EndSplineSet
EndChar

StartChar: acircumflex
Encoding: 226 226 18
Width: 782
VWidth: 2048
Flags: HMW
LayerCount: 5
Fore
SplineSet
514 153 m 0
 529 131 539 109 539 89 c 1
 540 89 l 1
 540 10.9707 462 -19 388 -19 c 0
 321.346 -19 246 20.5 246 87 c 0
 246 123 270 154 317 179 c 0
 332 187 343 196 343 208 c 0
 343 214 341 220 338 226 c 0
 328 245 321 263 321 279 c 0
 321 346 380.624 381 445 381 c 0
 519 381 582 337 582 279 c 0
 582 245 564 218 527 196 c 0
 516 189 507 182 507 175 c 0
 507 167 509 160 514 153 c 0
536 282 m 0
 536 326 500 352 457 352 c 0
 428 352 390 341.5 390 306 c 0
 390 295 395 283 401 273 c 0
 408.385 258.229 439.5 209 477 209 c 0
 505.344 209 536 249.5 536 282 c 0
368 166 m 0
 332.407 166 295 122.389 295 87 c 0
 295 38 341 10 392 10 c 0
 437 10 467 30 467 67.5 c 0
 467 96 407.808 166 368 166 c 0
391 -177 m 3
 686 -177 753 -8 773 -8 c 3
 778 -8 782 -9 782 -20 c 3
 782 -58 621 -230 391 -230 c 3
 161 -230 0 -58 0 -20 c 3
 0 -9 4 -8 9 -8 c 3
 29 -8 96 -177 391 -177 c 3
EndSplineSet
EndChar

StartChar: oslash
Encoding: 248 248 20
Width: 427
Flags: HMW
LayerCount: 5
Fore
SplineSet
159 225 m 0
 122 225 64 178 64 124 c 0
 64 62 143 31 213 31 c 0
 298 31 320 73 320 105 c 0
 320 165 226 225 159 225 c 0
218 458 m 0
 177 458 102 450 102 388 c 0
 102 326 220 281 270 281 c 0
 303 281 351 313 351 357 c 0
 351 420 288 458 218 458 c 0
218 495 m 0
 299 495 389 449 389 357 c 0
 389 293 339 268 339 247 c 0
 339 219 402 200 402 132 c 0
 402 55 329 -7 213 -7 c 0
 118 -7 25 37 25 124 c 0
 25 206 97 228 97 251 c 0
 97 270 34 295 34 357 c 0
 34 456 121 495 218 495 c 0
EndSplineSet
EndChar

StartChar: Ohungarumlaut
Encoding: 336 336 23
Width: 280
VWidth: 2048
Flags: HMW
HStem: -12 32<68.1354 128.767> 334 32<153.258 214.568>
VStem: 0 61<28.2592 186.952> 220 60<167.596 332.599>
LayerCount: 5
Fore
SplineSet
53 76 m 3
 53 41 64 16 96 16 c 3
 163 16 227 188 227 278 c 3
 227 314 216 338 184 338 c 3
 117 338 53 163 53 76 c 3
183 366 m 3
 246 366 280 310 280 244 c 3
 280 128 209 -12 97 -12 c 3
 34 -12 0 44 0 110 c 3
 0 226 71 366 183 366 c 3
EndSplineSet
EndChar

StartChar: OE
Encoding: 338 338 24
Width: 304
VWidth: 2048
Flags: HMW
HStem: -12 59<130.212 214.61> 0 21G<-3 7.5> 341 26<131.497 216.842>
VStem: -8 29<0.939312 46.0057> 65 51<245.65 324.74> 236 61<229.555 329.623>
LayerCount: 5
Fore
SplineSet
294 274 m 0x7c
 294 214 243 185 202 169 c 0
 172 158 139 151 112 133 c 0
 68 104 86 93 101 83 c 0
 124 68 146 52 170 52 c 0
 198 52 212 69 226 91 c 0
 231 99 234 104 242 104 c 0
 248 104 250 100 250 94 c 0
 250 79 234 46 213 25 c 0
 194 6 179 -4 156 -4 c 0
 112 -4 98 53 57 53 c 0
 40 53 29 44 21 26 c 0
 14 11 14 0 1 0 c 0
 -7 0 -8 6 -8 14 c 0
 -8 77 46 132 143 178 c 0
 193 202 236 225 236 283.5 c 0
 236 318.5 214 341 175 341 c 0
 141 341 118 325 118 303 c 0
 118 288 134 285 134 262 c 0
 134 244 121 230 100 230 c 0
 78 230 65 248 65 273 c 0
 65 324 113 367 184 367 c 0
 242 367 294 330 294 274 c 0x7c
EndSplineSet
EndChar

StartChar: Racute
Encoding: 340 340 25
Width: 311
VWidth: 2048
Flags: HMW
HStem: 0 31<60.1465 123.385 213 249.948> 99 31<58.0044 136.268 228.096 286.594> 340 20G<153 166.5 235 245> 340 20G<153 166.5 235 245>
VStem: -8 66<107.5 142.336> 137 62<36.3391 76.875>
LayerCount: 5
Fore
SplineSet
250 18 m 0xec
 250 4 242 0 230 0 c 2
 77 0 l 2
 68 0 64 2 64 8 c 0
 64 22 74 28 81 28 c 2
 107 30 l 2
 130 31 132 34 141 62 c 2
 147 79 l 2
 151 90 144 99 133 99 c 2
 7 99 l 2
 -3 99 -8 104 -8 111 c 0
 -8 125 0 129 13 142 c 0
 66 198 120 276 148 342 c 0
 153 354 159 360 167 360 c 3
 178 360 182 358 195 358 c 3
 208 358 212 360 221 360 c 3
 227 360 233 358 233 349 c 3
 233 336 219 316 174 262 c 0
 144 226 108 192 69 158 c 0
 56 146 37 128 75 128 c 2
 132 128 l 2
 158 128 163 137 168 152 c 2
 183 192 l 2
 189 209 197 219 208 227 c 2
 226 241 l 2
 242 252 247 244 243 230 c 2
 219 150 l 2
 215 137 215 128 236 128 c 2
 270 128 l 2
 284 128 286 123 286 116 c 0
 286 106 278 99 268 99 c 2
 227 99 l 2
 212 99 202 94 198 80 c 2
 190 52 l 2
 186 38 187 31 203 30 c 2
 235 29 l 2
 248 29 250 25 250 18 c 0xec
EndSplineSet
EndChar

StartChar: q
Encoding: 113 113 26
Width: 269
VWidth: 2048
Flags: HMW
HStem: 334 31<126.275 187.075> 145 26<98.3506 160.222> -12 30<72.4076 130.658>
VStem: 194 67<199.167 327.134> 24 67<172.805 298.693> 8 64<18.6202 81.2085>
LayerCount: 5
Fore
SplineSet
50 102 m 0xf4
 70 102 87 91 87 67 c 0
 87 46 72 41 72 30 c 0xf4
 72 21 82 18 92 18 c 0
 122 18 142 37 154 64 c 0
 160 78 171 109 171 127 c 0
 171 141 165 145 154 145 c 0
 143 145 126 137 97 137 c 0
 52 137 24 176 24 220 c 0xf8
 24 302 85 365 155 365 c 0
 227 365 261 322 261 238 c 0
 261 129 198 -12 85 -12 c 0
 48 -12 8 6 8 51 c 0
 8 79 24 102 50 102 c 0xf4
157 334 m 0
 116 334 91 267 91 216 c 0xf8
 91 186 100 171 126 171 c 0
 141 171 157 179 167 190 c 0
 183 208 194 259 194 290 c 0
 194 322 181 334 157 334 c 0
EndSplineSet
EndChar

StartChar: u
Encoding: 117 117 27
Width: 309
VWidth: 2048
Flags: HMW
HStem: 0 28.71<0.744516 65.5703 180.296 216.379>
LayerCount: 5
Fore
SplineSet
21 32 m 0
 73 34 77 51 93 105 c 2
 139 250 l 2
 150 284 131 280 111 263 c 2
 68 226 l 2
 49 210 40 232 54 248 c 2
 181 405 l 2
 188 414 195 418 203 418 c 3
 212 418 214 414 231 414 c 3
 249 414 247 418 259 418 c 3
 277 418 264 388 263 381 c 2
 172 90 l 2
 162 57 152 35 191 32 c 0
 204 32 217 28 217 17 c 0
 217 4 207 0 191 0 c 2
 12 0 l 0
 4 0 0 3 0 9 c 0
 0 21 9 31 21 32 c 0
EndSplineSet
EndChar

StartChar: v
Encoding: 118 118 28
Width: 383
VWidth: 2048
Flags: HMW
LayerCount: 5
Fore
SplineSet
54 138 m 3
 78 138 95 121 95 95 c 3
 95 62 67 56 67 35 c 3
 67 24 81 19 99 19 c 0
 133 18 157 37 175 61 c 0
 195 90 215 132 215 164 c 0
 215 202 200 221 159 221 c 0
 104 221 89 183 57 183 c 0
 39 183 45 203 49 214 c 2
 114 406 l 2
 117 415 124 419 133 419 c 0
 142 419 168 412 200 412 c 0
 241 412 278 417 304 424 c 0
 311 425 318 426 323 426 c 3
 331 426 333 423 333 415 c 3
 333 411 331 406 327 399 c 0
 303 365 243 338 197 338 c 0
 171 338 164 339 147 339 c 0
 130 339 126 332 119 315 c 2
 106 277 l 2
 101 263 102 249 119 249 c 3
 137 249 145 258 185 258 c 3
 252 258 291 218 291 153 c 0
 291 57 207 -14 110 -14 c 0
 46 -14 0 15 0 78 c 3
 0 113 19 138 54 138 c 3
EndSplineSet
EndChar

StartChar: w
Encoding: 119 119 29
Width: 423
VWidth: 2048
Flags: HMW
LayerCount: 5
Fore
SplineSet
285 175 m 0
 302 151 312 126 312 104 c 1
 313 104 l 1
 313 19 228 -14 147 -14 c 0
 74 -14 -9 30 -9 103 c 0
 -9 142 17 176 69 204 c 0
 85 212 97 222 97 235 c 0
 97 242 96 248 92 255 c 0
 81 276 73 296 73 313 c 0
 73 386 139 425 210 425 c 0
 291 425 359 377 359 313 c 0
 359 276 340 246 299 222 c 0
 287 214 278 207 278 199 c 0
 278 191 280 183 285 175 c 0
315 316 m 0
 315 364 266 390 219 390 c 0
 187 390 149 382 149 343 c 0
 149 331 154 318 161 306 c 0
 169 290 201 239 241 239 c 0
 273 239 315 268 315 316 c 0
128 187 m 0
 89 187 39 150 39 103 c 0
 39 49 96 19 151 19 c 0
 211 19 233 48 233 79 c 0
 233 113 172 187 128 187 c 0
EndSplineSet
EndChar

StartChar: uni0091
Encoding: 145 145 30
Width: 359
VWidth: 2048
Flags: HMW
LayerCount: 5
Fore
SplineSet
67 137 m 4
 93 137 116 122 116 90 c 4
 116 56 93 48 93 33 c 4
 93 23 102 20 116 20 c 4
 158 20 186 43 205 86 c 4
 214 105 228 147 228 171 c 4
 228 189 223 200 208 200 c 4
 193 200 174 183 130 183 c 4
 70 183 31 235 31 294 c 4
 31 404 113 487 206 487 c 4
 302 487 349 430 349 318 c 4
 349 173 264 -16 113 -16 c 4
 64 -16 10 9 10 69 c 4
 10 106 32 137 67 137 c 4
211 452 m 4
 156 452 121 359 121 291 c 4
 121 251 134 227 169 227 c 4
 189 227 208 238 222 253 c 4
 243 277 261 350 261 393 c 4
 261 436 237 452 211 452 c 4
EndSplineSet
EndChar

StartChar: cedilla
Encoding: 184 184 31
Width: 163
VWidth: 1372
Flags: HMW
LayerCount: 5
Fore
SplineSet
1 10 m 0
 2 15 7 20 14 20 c 0
 28 21 38 25 44 33 c 0
 47 36 52 48 58 67 c 0
 85 153 l 2
 90 168 84 176 73 167 c 2
 42 141 l 2
 37 137 29 137 26 140 c 0
 23 143 25 148 31 155 c 0
 103 241 l 2
 111 250 115 255 131 255 c 2
 148 255 l 2
 166 255 164 244 160 229 c 0
 122 107 104 49 103 47 c 0
 98 29 106 22 119 21 c 0
 128 20 131 15 130 10 c 0
 129 4 122 0 113 0 c 0
 8 0 l 0
 2 0 -1 4 1 10 c 0
EndSplineSet
EndChar

StartChar: uni00B9
Encoding: 185 185 32
Width: 195
VWidth: 1372
Flags: HMW
LayerCount: 5
Fore
SplineSet
28 21 m 0
 43 54 72 92 113 135 c 0
 128 150 136 163 142 173 c 0
 155 193 146 197 128 190 c 0
 123 188 118 187 112 187 c 0
 104 187 96 191 87 197 c 0
 78 204 69 207 62 207 c 0
 50 207 44 201 34 188 c 0
 29 182 25 174 22 167 c 0
 19 160 14 156 8 156 c 0
 0 156 1 165 3 173 c 0
 6 182 10 194 15 211 c 0
 26 246 l 0
 28 252 31 256 36 256 c 0
 41 256 46 252 47 244 c 0
 48 239 51 235 58 235 c 0
 65 235 70 237 77 243 c 0
 84 249 93 252 103 252 c 0
 113 252 122 248 129 240 c 0
 136 232 142 229 149 229 c 0
 159 229 167 234 174 246 c 0
 178 254 184 255 189 255 c 0
 193 255 196 253 196 248 c 0
 196 246 195 244 195 242 c 0
 189 211 171 173 143 127 c 0
 123 94 110 59 105 21 c 0
 103 7 96 0 85 0 c 0
 38 0 l 0
 29 0 25 4 25 10 c 0
 25 13 26 16 28 21 c 0
EndSplineSet
EndChar

StartChar: ordmasculine
Encoding: 186 186 33
Width: 230
VWidth: 1372
Flags: HMW
LayerCount: 5
Fore
SplineSet
108 245 m 0
 121 252 135 256 150 256 c 0
 158 256 164 255 167 254 c 0
 189 249 204 232 212 203 c 0
 214 197 215 189 215 177 c 0
 215 144 207 110 191 76 c 0
 180 53 166 34 151 19 c 0
 130 -1 107 -12 81 -12 c 0
 56 -12 37 0 25 24 c 0
 18 37 15 53 15 72 c 0
 15 91 18 111 25 133 c 0
 32 155 40 174 50 189 c 0
 68 217 88 235 108 245 c 0
165 153 m 0
 171.847 185.867 180 232 150 232 c 0
 121.691 232 107.196 213.592 94 186 c 0
 83 162 74 136 68 107 c 0
 60.3574 70.0596 45 11 82 11 c 0
 102.692 11 121.529 29.4697 130 45 c 0
 145.294 73.04 156.636 114.527 165 153 c 0
EndSplineSet
EndChar

StartChar: guillemotright
Encoding: 187 187 34
Width: 163
VWidth: 1372
Flags: HMW
LayerCount: 5
Fore
SplineSet
1 10 m 0
 2 15 7 20 14 20 c 0
 28 21 38 25 44 33 c 0
 47 36 52 48 58 67 c 0
 85 153 l 2
 86 157 87 160 87 163 c 0
 87 168 85 171 81 171 c 0
 79 171 76 170 73 167 c 2
 42 141 l 2
 39 139 36 138 33 138 c 0
 30 138 27 139 26 140 c 0
 25 141 25 142 25 143 c 0
 25 146 27 150 31 155 c 0
 103 241 l 2
 111 250 114 255 124 255 c 27
 130 255 131 253 139 253 c 3
 147 253 149 255 155 255 c 3
 161 255 163 252 163 246 c 0
 163 241 162 236 160 229 c 0
 122 107 104 49 103 47 c 0
 102 43 101 40 101 37 c 0
 101 26 109 22 119 21 c 0
 127 20 130 16 130 12 c 0
 130 11 130 11 130 10 c 0
 129 4 122 0 113 0 c 0
 8 0 l 0
 3 0 0 3 0 7 c 0
 0 8 1 9 1 10 c 0
EndSplineSet
EndChar

StartChar: onequarter
Encoding: 188 188 35
Width: 213
VWidth: 1372
Flags: HMW
LayerCount: 5
Fore
SplineSet
138 256 m 3
 182 256 213 234 213 191 c 0
 213 144 173 128 129 111 c 0
 106 102 89 93 75 83 c 0
 67 77 63 72 63 68 c 0
 63 59 77 62 97 54 c 0
 118 46 129 38 140 38 c 0
 151 38 159 45 170 58 c 0
 174 63 178 66 185 66 c 0
 194 66 194 58 190 52 c 0
 177 28 164 12 153 2 c 0
 142 -8 130 -12 118 -12 c 0
 93 -12 72 22 46 22 c 0
 39 22 32 18 26 11 c 0
 20 4 15 0 11 0 c 2
 7 0 l 2
 2 0 0 4 0 10 c 0
 0 55 36 93 107 126 c 0
 119 132 128 136 133 140 c 0
 156 155 167 176 167 204 c 0
 167 226 153 236 131 236 c 3
 111 236 96 226 96 208 c 3
 96 198 107 194 107 180 c 3
 107 166 94 154 79 154 c 0
 62 154 54 163 54 181 c 0
 54 224 95 256 138 256 c 3
EndSplineSet
EndChar

StartChar: onehalf
Encoding: 189 189 36
Width: 209
VWidth: 1372
Flags: HMW
LayerCount: 5
Fore
SplineSet
32 79 m 0
 49 79 60 67 60 51 c 0
 60 34 45 31 45 20 c 0
 45 12 49 8 63 8 c 0
 103 8 122 48 122 88 c 0
 122 106 107 118 90 118 c 2
 84 118 l 2
 76 118 71 122 71 127 c 0
 71 135 73 140 85 140 c 2
 90 140 l 2
 135 140 162 157 162 203 c 0
 162 224 150 236 131 236 c 0
 117 236 104 232 104 220 c 0
 104 209 114 207 114 195 c 0
 114 179 101 171 88 171 c 0
 72 171 64 182 64 197 c 0
 64 231 98 256 134 256 c 2
 135 256 l 2
 175 256 209 237 209 197 c 0
 209 168 192 145 158 129 c 0
 152 126 149 123 149 120 c 0
 149 117 150 114 154 110 c 0
 166 98 172 84 172 66 c 0
 172 59 170 50 165 40 c 0
 147 5 116 -13 71 -13 c 0
 57 -13 42 -9 28 -3 c 0
 9 6 0 22 0 45 c 0
 0 65 13 79 32 79 c 0
EndSplineSet
EndChar

StartChar: threequarters
Encoding: 190 190 37
Width: 239
VWidth: 1372
Flags: HMW
LayerCount: 5
Fore
SplineSet
205 184 m 2
 182 109 l 2
 181 106 180 104 180 102 c 0
 180 97 183 95 189 95 c 2
 207 95 l 2
 215 95 219 92 219 87 c 0
 219 86 218 81 218 80 c 0
 216 74 213 71 206 71 c 2
 183 71 l 2
 172 71 165 66 162 57 c 2
 157 37 l 2
 154 26 159 21 170 21 c 2
 180 21 l 2
 188 21 192 17 192 13 c 0
 192 4 189 0 178 0 c 2
 64 0 l 2
 60 0 58 2 58 6 c 0
 58 13 63 20 75 21 c 0
 93 23 103 26 108 44 c 2
 112 59 l 2
 114 67 110 71 101 71 c 2
 20 71 l 2
 13 71 10 74 10 79 c 0
 10 88 14 92 24 101 c 0
 32 108 39 116 45 123 c 0
 80 166 104 205 117 242 c 0
 120 251 126 255 136 255 c 2
 177 255 l 2
 186 255 189 252 189 246 c 0
 189 239 177 221 143 186 c 0
 121 164 96 141 68 118 c 0
 62 113 54 108 54 101 c 0
 54 94 58 95 69 95 c 2
 105 95 l 2
 119 95 129 100 132 111 c 2
 138 134 l 2
 141 144 146 152 153 159 c 2
 188 192 l 2
 199 203 209 199 205 184 c 2
EndSplineSet
EndChar

StartChar: questiondown
Encoding: 191 191 38
Width: 191
VWidth: 1372
Flags: HMW
LayerCount: 5
Fore
SplineSet
33 81 m 0
 50 81 58 71 58 54 c 0
 58 34 41 31 41 20 c 0
 41 13 47 9 63 9 c 0
 84 9 102 20 117 49 c 0
 127 68 132 85 132 97 c 0
 132 120 121 130 100 130 c 2
 99 130 l 2
 85 130 69 126 54 115 c 0
 47 110 42 108 35 108 c 0
 29 108 27 112 27 116 c 0
 27 120 28 124 29 127 c 2
 68 240 l 2
 70 246 74 252 83 252 c 0
 88 252 104 247 115 247 c 0
 138 247 157 248 173 251 c 0
 177 252 180 252 183 252 c 0
 189 252 191 250 191 247 c 0
 191 244 188 239 183 233 c 0
 167 217 148 209 127 209 c 0
 107 209 106 212 95 212 c 0
 85 212 79 207 76 197 c 2
 65 166 l 2
 64 162 63 159 63 156 c 0
 63 150 64 147 70 147 c 0
 82 147 91 154 113 154 c 0
 153 154 179 129 179 90 c 0
 179 53 160 28 140 12 c 0
 119 -4 95 -12 68 -12 c 0
 27 -12 0 4 0 44 c 0
 0 65 12 81 33 81 c 0
EndSplineSet
EndChar

StartChar: Agrave
Encoding: 192 192 39
Width: 205
VWidth: 1372
Flags: HMW
LayerCount: 5
Fore
SplineSet
163 172 m 0
 149 172 141 181 141 194 c 0
 141 210 156 217 156 226 c 0
 156 231 148 234 140 234 c 0
 119 234 104 222 95 201 c 0
 72 144 82 143 107 148 c 0
 115 150 121 151 129 151 c 0
 159 151 183 131 183 93 c 0
 183 32 135 -12 83 -12 c 0
 38 -12 15 18 15 78 c 0
 15 158 68 255 139 255 c 0
 175 255 195 236 195 206 c 0
 195 188 181 172 163 172 c 0
82 10 m 0
 116 10 135 56 135 93 c 0
 135 114 127 125 110 125 c 0
 98 125 89 123 78 108 c 0
 65 90 62 58 62 38 c 0
 62 19 68 10 82 10 c 0
EndSplineSet
EndChar

StartChar: Aacute
Encoding: 193 193 40
Width: 174
VWidth: 1372
Flags: HMW
LayerCount: 5
Fore
SplineSet
36 21 m 0
 51 54 80 92 121 135 c 0
 136 150 144 163 150 173 c 0
 154 180 156 184 156 188 c 0
 156 191 154 193 149 193 c 0
 146 193 141 192 136 190 c 0
 131 188 126 187 120 187 c 0
 112 187 104 191 95 197 c 0
 86 204 77 207 70 207 c 0
 58 207 52 201 42 188 c 0
 37 182 33 174 30 167 c 0
 27 160 22 156 16 156 c 0
 11 156 10 159 10 164 c 0
 10 167 10 170 11 173 c 0
 14 182 18 194 23 211 c 0
 34 246 l 0
 36 252 39 256 44 256 c 0
 49 256 54 252 55 244 c 0
 56 239 59 235 66 235 c 0
 73 235 78 237 85 243 c 0
 92 249 101 252 111 252 c 0
 121 252 130 248 137 240 c 0
 144 232 150 229 157 229 c 0
 167 229 175 234 182 246 c 0
 186 254 192 255 197 255 c 0
 201 255 204 253 204 248 c 0
 204 246 203 244 203 242 c 0
 197 211 179 173 151 127 c 0
 131 94 118 59 113 21 c 0
 111 7 106 0 95 0 c 27
 85 0 82 4 70 4 c 3
 56 4 51 0 43 0 c 3
 34 0 33 4 33 10 c 0
 33 13 34 16 36 21 c 0
EndSplineSet
EndChar

StartChar: Acircumflex
Encoding: 194 194 41
Width: 245
VWidth: 1372
Flags: HMW
LayerCount: 5
Fore
SplineSet
105 -13 m 4
 60 -13 10 12 10 58 c 4
 10 83 25 103 57 120 c 4
 67 125 75 133 75 141 c 4
 75 145 73 149 71 153 c 4
 65 165 60 177 60 187 c 4
 60 233 102 255 143 255 c 4
 190 255 235 230 235 187 c 4
 235 165 222 146 198 131 c 4
 190 126 185 121 185 116 c 4
 185 111 186 107 189 102 c 4
 198 88 207 77 207 59 c 31
 207 10 157 -13 105 -13 c 4
206 187 m 4
 206 217 177 232 145 232 c 4
 126 232 106 224 106 204 c 4
 106 197 109 189 112 183 c 4
 117 173 134 143 161 143 c 4
 180 143 206 164 206 187 c 4
41 59 m 4
 41 27 73 12 107 12 c 4
 137 12 158 20 158 45 c 4
 158 70 122 107 95 107 c 4
 72 107 41 83 41 59 c 4
EndSplineSet
EndChar

StartChar: Atilde
Encoding: 195 195 42
Width: 205
VWidth: 1372
Flags: HMW
LayerCount: 5
Fore
SplineSet
42 71 m 0
 56 71 64 62 64 49 c 0
 64 33 49 26 49 17 c 0
 49 12 57 9 65 9 c 0
 86 9 101 21 110 42 c 0
 133 99 123 100 98 95 c 0
 90 93 84 92 76 92 c 0
 46 92 22 112 22 150 c 0
 22 211 70 255 122 255 c 0
 167 255 190 225 190 165 c 0
 190 85 137 -12 66 -12 c 0
 30 -12 10 7 10 37 c 0
 10 55 24 71 42 71 c 0
123 233 m 0
 89 233 70 187 70 150 c 0
 70 129 78 118 95 118 c 0
 107 118 116 120 127 135 c 0
 140 153 143 185 143 205 c 0
 143 224 137 233 123 233 c 0
EndSplineSet
EndChar

StartChar: Adieresis
Encoding: 196 196 43
Width: 337
VWidth: 2048
Flags: HMW
LayerCount: 5
Fore
SplineSet
117 -18 m 3
 55 -18 20 40 20 110 c 3
 20 233 103 382 220 382 c 3
 280 382 317 337 317 261 c 3
 317 136 235 -18 117 -18 c 3
253 307 m 3
 253 335 245 355 220 355 c 3
 141 355 84 146 84 68 c 3
 84 34 92 9 120 9 c 3
 193 9 253 220 253 307 c 3
EndSplineSet
EndChar

StartChar: Aring
Encoding: 197 197 44
Width: 275
VWidth: 2048
Flags: HMW
LayerCount: 5
Fore
SplineSet
34 26 m 0
 82 28 85 47 100 96 c 2
 142 228 l 2
 145 238 147 245 147 250 c 3
 147 255 145 258 142 258 c 3
 138 258 132 255 125 249 c 2
 79 211 l 2
 75 208 71 206 68 206 c 3
 63 206 60 208 60 214 c 3
 60 218 62 224 68 231 c 2
 180 369 l 2
 187 377 193 381 200 381 c 3
 209 381 209 375 224 375 c 3
 241 375 242 381 253 381 c 3
 258 381 260 377 260 371 c 0
 260 363 256 352 255 348 c 2
 172 82 l 2
 167 67 163 54 163 45 c 0
 163 36 168 30 179 28 c 0
 183 27 191 27 197 26 c 0
 207 25 213 22 213 16 c 0
 213 4 204 0 189 0 c 2
 26 0 l 0
 19 0 15 3 15 8 c 0
 15 19 23 25 34 26 c 0
EndSplineSet
EndChar

StartChar: AE
Encoding: 198 198 45
Width: 338
VWidth: 2048
Flags: HMW
LayerCount: 5
Fore
SplineSet
323 284 m 0
 323 270 320 257 315 247 c 0
 284 186 195 180 133 141 c 0
 80.8036 109 114.038 105.856 137.5 95.7573 c 0
 173.333 80.3333 190.189 57 218 57 c 0
 248.333 57 257.333 74.3333 271 97 c 0
 276.163 105.564 281 109 287 109 c 0
 293 109 295 106 295 100 c 0
 295 84 277 50 256 26 c 0
 237 4 212 -13 177 -13 c 0
 137 -13 111 49 73 49 c 0
 62 49 51 44 42 33 c 0
 31 19 28 0 16 0 c 0
 9 0 5 5 5 14 c 0
 5 81 62 140 164 189 c 0
 216 214 255 242 255 305 c 0
 255 338 228 356 195 356 c 0
 166 356 133 338 133 314 c 0
 133 295 160 294 160 264 c 0
 160 242 140 227 118 227 c 0
 92 227 78 250 78 276 c 0
 78 334 133 382 205 382 c 0
 268 382 323 350 323 284 c 0
EndSplineSet
EndChar

StartChar: Ccedilla
Encoding: 199 199 46
Width: 322
VWidth: 2048
Flags: HMW
LayerCount: 5
Fore
SplineSet
53 118 m 3
 78.416 118 94 100.542 94 76 c 3
 94 50.5 68 44.5068 68 28 c 3
 68 15 78 9 99 9 c 3
 158.954 9 188 72.3115 188 132 c 3
 188 159.854 162.806 177 137 177 c 3
 122.544 177 111 177.746 111 189 c 3
 111 203.718 121.283 207 136 207 c 3
 201.881 207 247 233.773 247 302 c 3
 247 334.635 230.901 358 200 358 c 3
 178.574 358 160 351.965 160 334 c 3
 160 317.871 175 307.89 175 292 c 3
 175 268.38 157.675 255 137 255 c 3
 113.25 255 101 271.315 101 294 c 3
 101 345.572 151.031 382 206 382 c 3
 266.327 382 317 352.359 317 293 c 3
 317 250 291 217 240 193 c 0
 231 189 227 184 227 179 c 3
 227 175 230 169 235 164 c 0
 253 146 262 124 262 98 c 3
 262 75.9941 251.67 56.9248 240.5 41.5 c 0
 209 -2 160.977 -19 110 -19 c 3
 52.3936 -19 5 9.41699 5 67 c 3
 5 95.3428 24.8535 118 53 118 c 3
EndSplineSet
EndChar

StartChar: aogonek
Encoding: 261 261 48
Width: 509
Flags: HMW
LayerCount: 5
Fore
SplineSet
427 1108 m 7
 427 1057 381 1062 381 1044 c 7
 381 1031 404 1025 404 986 c 7
 404 926 351 906 299 906 c 7
 253 906 211 926 211 974 c 7
 211 1026 267 1036 267 1053 c 7
 267 1068 249 1072 249 1099 c 7
 249 1148 294 1174 344 1174 c 7
 388 1174 427 1150 427 1108 c 7
345 1153 m 7
 321 1153 291 1143 291 1122 c 7
 291 1108 326 1070 353 1070 c 7
 370 1070 401 1086 401 1109 c 7
 401 1133 377 1153 345 1153 c 7
297 1023 m 7
 270 1023 239 1002 239 973 c 7
 239 949 256 929 302 929 c 7
 331 929 358 936 358 965 c 7
 358 984 320 1023 297 1023 c 7
EndSplineSet
EndChar

StartChar: Cacute
Encoding: 262 262 49
Width: 373
VWidth: 0
Flags: MW
LayerCount: 5
Fore
SplineSet
145 180 m 3
 93 180 37 142 37 104 c 3
 37 51 87 17 164 17 c 3
 212 17 263 40 263 81 c 3
 263 110 237 132 209 158 c 0
 189 176 164 180 145 180 c 3
238 408 m 27
 197 408 147 389 147 354 c 3
 147 336 169 312 197 284 c 0
 216 265 229 255 250 255 c 3
 273 255 337 279 337 327 c 3
 337 380 288 408 238 408 c 27
233 438 m 3
 306 438 373 397 373 327 c 3
 373 240 285 247 285 220 c 3
 285 194 332 182 332 123 c 3
 332 20 242 -14 155 -14 c 27
 79 -14 0 26 0 105 c 3
 0 140 31 172 62 188 c 1
 92 206 120 206 120 220 c 3
 120 243 72 252 72 312 c 3
 72 402 156 438 233 438 c 3
EndSplineSet
EndChar

StartChar: cacute
Encoding: 263 263 50
Width: 625
VWidth: 1024
Flags: MW
LayerCount: 5
Fore
SplineSet
399 341 m 3
 385 341 367 305 367 292 c 3
 367 280 374 277 381 277 c 3
 402 277 420 285 440 285 c 3
 524 285 558 225 558 158 c 3
 558 96 499 27 450 7 c 0
 422 -4 386 -7 353 -7 c 3
 298 -7 249 33 249 87 c 3
 249 122 265 161 305 161 c 3
 328 161 350 149 350 120 c 3
 350 80 307 83 307 53 c 3
 307 35 317 21 352 21 c 3
 426 21 442 68 464 125 c 0
 472 146 486 179 486 206 c 0
 486 230 477 252 441 252 c 3
 364 252 347 205 323 205 c 3
 314 205 309 213 309 222 c 3
 309 259 338 309 351 337 c 0
 366 370 366 367 373 387 c 0
 378 403 390 434 415 434 c 3
 457 434 465 421 558 421 c 3
 577 421 588 424 607 424 c 3
 615 424 625 418 625 411 c 3
 625 381 488 341 399 341 c 3
154 49 m 3
 154 23 209 42 209 13 c 3
 209 -0 198 -1 185 -1 c 2
 180 -1 l 2
 134 -1 136 2 90 2 c 3
 73 2 48 1 34 1 c 3
 11 1 0 2 0 14 c 0
 0 36 6 33 45 38 c 1
 67 42 73 52 81 69 c 0
 107 123 123 169 149 234 c 24
 155 250 163 268 163 276 c 3
 163 280 158 282 153 282 c 3
 131 282 89 240 74 240 c 3
 66 240 62 240 62 249 c 3
 62 261 81 278 88 285 c 2
 188 386 l 2
 200 398 232 439 245 439 c 3
 262 439 262 433 284 428 c 0
 294 425 300 422 300 415 c 3
 300 400 290 372 281 354 c 0
 259 306 239 262 219 211 c 2
 180 114 l 1
 180 114 154 59 154 49 c 3
EndSplineSet
EndChar

StartChar: x
Encoding: 120 120 51
Width: 442
VWidth: 1024
Flags: HMW
LayerCount: 5
Fore
SplineSet
221 465 m 3
 150 465 139 366 139 246 c 3
 139 126 150 27 221 27 c 3
 292 27 303 126 303 246 c 3
 303 366 292 465 221 465 c 3
221 496 m 3
 363 496 417 378 417 246 c 3
 417 114 363 -5 221 -5 c 3
 79 -5 25 114 25 246 c 3
 25 378 79 496 221 496 c 3
EndSplineSet
EndChar

StartChar: y
Encoding: 121 121 52
Width: 319
VWidth: 0
Flags: HMW
LayerCount: 5
Fore
SplineSet
108 308 m 2
 57 235 l 2
 49 224 41 219 35 219 c 0
 29 219 25 224 25 232 c 0
 25 237 27 243 30 250 c 10
 98 387 l 2
 133 457 136 489 159 489 c 3
 169 489 177 480 197 480 c 3
 218 480 224 489 236 489 c 3
 247 489 248 480 248 468 c 2
 248 71 l 2
 248 48 254 35 277 32 c 0
 294 31 299 29 299 16 c 0
 299 4 296 0 279 0 c 2
 106 0 l 2
 87 0 84 6 84 17 c 0
 84 30 91 31 107 32 c 0
 130 35 136 49 136 71 c 2
 136 300 l 2
 136 315 132 323 126 323 c 0
 121 323 115 317 108 308 c 2
EndSplineSet
EndChar

StartChar: z
Encoding: 122 122 53
Width: 458
VWidth: 1024
Flags: HMW
LayerCount: 5
Fore
SplineSet
245 498 m 3
 344 498 419 435 419 355 c 3
 419 274 358 246 280 233 c 0
 246 227 193 212 156 182 c 0
 145 174 128 156 133 145 c 0
 139 133 149 141 170 141 c 0
 236 141 279 97 327 97 c 3
 362 97 379 118 389 145 c 0
 395 162 400 181 411 181 c 3
 420 181 423 173 423 163 c 0
 423 93 368 -6 292 -6 c 3
 230 -6 211 67 135 67 c 3
 112 67 80 51 66 16 c 0
 60 0 57 -6 46 -6 c 3
 38 -6 35 2 35 21 c 0
 37 124 107 201 185 241 c 0
 262 280 299 299 299 365 c 3
 299 424 274 459 213 459 c 3
 183 459 138 451 138 421 c 3
 138 393 195 398 195 336 c 3
 195 305 172 272 130 272 c 3
 68 272 52 312 52 350 c 3
 52 432 124 498 245 498 c 3
EndSplineSet
EndChar

StartChar: braceleft
Encoding: 123 123 54
Width: 418
VWidth: 1024
Flags: HMW
LayerCount: 5
Fore
SplineSet
202 495 m 3
 311 495 384 444 384 366 c 3
 384 259 285 273 285 252 c 3
 285 233 393 230 393 126 c 3
 393 35 296 -9 206 -9 c 3
 108 -9 25 39 25 123 c 3
 25 170 62 200 100 200 c 3
 135 200 170 178 170 134 c 3
 170 66 121 79 121 54 c 3
 121 40 143 30 184 30 c 3
 275 30 273 81 273 130 c 3
 273 230 223 223 149 231 c 0
 141 232 133 235 133 249 c 3
 133 259 137 263 148 264 c 0
 263 270 271 298 271 371 c 3
 271 428 254 459 191 459 c 3
 136 459 112 442 112 424 c 3
 112 399 169 408 169 346 c 3
 169 320 146 290 102 290 c 3
 66 290 34 323 34 367 c 3
 34 456 128 495 202 495 c 3
EndSplineSet
EndChar

StartChar: bar
Encoding: 124 124 55
Width: 452
VWidth: 0
Flags: HMW
HStem: 0 27<162.007 219.57 353.707 411.993> 123 34<81.0051 221.938 351.496 436.985>
VStem: 25 56<138 179.906> 163 162<437.626 493.668> 224 126<28.9463 122.056 158.205 287.298>
LayerCount: 5
Fore
SplineSet
224 91 m 2xe8
 224 114 215 123 191 123 c 2
 41 123 l 2
 26 123 25 135 25 141 c 0
 25 150 28 155 44 178 c 0
 130 302 138 365 163 471 c 0
 169 495 177 500 187 500 c 3
 209 500 212 486 248 486 c 3
 286 486 295 500 311 500 c 3
 320 500 325 496 325 488 c 3xf0
 325 460 295 413 216 322 c 0
 142 237 84 191 84 170 c 3
 84 161 91 160 103 160 c 2
 192 160 l 2
 219 160 224 173 224 191 c 2
 224 242 l 2
 224 260 228 278 238 289 c 0
 260 314 286 344 311 374 c 0
 321 387 340 394 340 368 c 2
 340 188 l 2
 340 171 345 160 366 160 c 2
 412 160 l 2
 435 160 437 155 437 142 c 3
 437 130 437 123 412 123 c 2
 368 123 l 2
 349 123 340 112 340 96 c 2xe8
 340 71 l 2
 340 50 345 37 365 33 c 0
 383 30 391 32 391 15 c 0
 391 0 379 0 360 0 c 2
 193 0 l 2
 175 0 172 3 172 17 c 0
 172 30 178 31 194 32 c 0
 218 35 224 48 224 71 c 2
 224 91 l 2xe8
EndSplineSet
EndChar

StartChar: braceright
Encoding: 125 125 56
Width: 405
VWidth: 1024
Flags: HMW
HStem: -9 25<120.584 212.98> 277 6<80 158> 392 87<88.204 286.095> 403 92<65.5 189.895>
VStem: 25 82<36 133.5> 258 122<78.9385 243.565>
LayerCount: 5
Fore
SplineSet
74 495 m 3xdc
 104 495 141 479 196 479 c 3
 254 479 310 491 330 494 c 0
 345 496 350 488 345 476 c 0
 320 421 266 392 188 392 c 3xec
 153 392 127 402 106 402 c 3
 92 402 85 397 84 382 c 2
 80 315 l 2
 80 299 87 294 93 294 c 3
 114 294 139 318 212 318 c 3
 309 318 380 258 380 160 c 3
 380 73 312 -9 177 -9 c 3
 102 -9 25 30 25 113 c 3
 25 154 49 196 100 196 c 3
 144 196 167 163 167 124 c 3
 167 71 117 70 117 50 c 3
 117 33 146 26 169 26 c 3
 251 26 258 106 258 161 c 3
 258 232 239 276 165 276 c 3
 123 276 86 247 70 227 c 0
 56 209 39 211 39 234 c 3
 39 246 43 278 44 304 c 2
 47 382 l 2
 49 419 47 448 49 473 c 0
 50 493 57 495 74 495 c 3xdc
EndSplineSet
EndChar

StartChar: at
Encoding: 64 64 57
Width: 200
Flags: HMW
LayerCount: 5
Fore
SplineSet
70 108 m 0
 51 108 31 95 31 74 c 0
 31 43 60 24 92 24 c 0
 129 24 154 32 154 57 c 0
 154 82 109 108 70 108 c 0
101 237 m 0
 79 237 42 234 42 206 c 0
 42 173 101 159 127 159 c 0
 146 159 161 177 161 193 c 0
 161 212 142 237 101 237 c 0
98 263 m 0
 146 263 192 246 192 190 c 0
 192 165 173 149 173 137 c 0
 173 121 200 117 200 79 c 0
 200 31 160 -5 99 -5 c 0
 49 -5 0 19 0 66 c 0
 0 111 26 112 26 129 c 0
 26 142 4 143 4 188 c 0
 4 241 51 263 98 263 c 0
EndSplineSet
EndChar

StartChar: degree
Encoding: 176 176 58
Width: 514
Flags: HMW
LayerCount: 5
Fore
SplineSet
0 162 m 0
 0 304 115 419 257 419 c 0
 399 419 514 304 514 162 c 0
 514 20 399 -95 257 -95 c 0
 115 -95 0 20 0 162 c 0
29 162 m 0
 29 36 131 -66 257 -66 c 0
 383 -66 485 36 485 162 c 0
 485 288 383 390 257 390 c 0
 131 390 29 288 29 162 c 0
219 133 m 0
 195 133 165 115 165 87 c 0
 165 49 199 20 251 20 c 0
 297 20 328 32 328 66 c 0
 328 98 267 133 219 133 c 0
262 297 m 0
 235 297 188 289 188 253 c 0
 188 212 270 189 303 189 c 0
 329 189 343 213 343 233 c 0
 343 257 325 297 262 297 c 0
258 322 m 0
 318 322 375 301 375 231 c 0
 375 199 345 179 345 165 c 0
 345 145 385 140 385 93 c 0
 385 34 335 -10 259 -10 c 0
 196 -10 135 19 135 77 c 0
 135 139 174 139 174 155 c 0
 174 169 141 173 141 229 c 0
 141 295 200 322 258 322 c 0
EndSplineSet
EndChar

StartChar: plusminus
Encoding: 177 177 59
Width: 514
Flags: HMW
LayerCount: 5
Fore
SplineSet
0 162 m 0
 0 304 115 419 257 419 c 0
 399 419 514 304 514 162 c 0
 514 20 399 -95 257 -95 c 0
 115 -95 0 20 0 162 c 0
29 162 m 0
 29 36 131 -66 257 -66 c 0
 383 -66 485 36 485 162 c 0
 485 288 383 390 257 390 c 0
 131 390 29 288 29 162 c 0
250 156 m 0
 280 156 313 176 313 235 c 0
 313 253 305 297 260 297 c 0
 219 297 214 271 214 229 c 0
 214 187 216 156 250 156 c 0
248 -9 m 0
 192 -9 159 21 159 53 c 0
 159 78 173 98 198 98 c 0
 218 98 234 89 234 65 c 0
 234 43 221 38 221 29 c 0
 221 22 224 14 249 14 c 0
 304 14 312 65 312 104 c 0
 312 130 304 135 295 135 c 0
 285 135 278 127 237 127 c 0
 177 127 146 162 146 224 c 0
 146 283 199 322 256 322 c 0
 348 322 389 240 389 159 c 0
 389 69 339 -9 248 -9 c 0
EndSplineSet
EndChar

StartChar: Gcommaaccent
Encoding: 290 290 60
Width: 414
VWidth: 1024
Flags: HMW
HStem: -6 96<215.314 324.173> 67 59<116.758 177.983> 459 39<125.06 251.895>
VStem: 14 31<-5.51705 39.8591> 31 86<326.942 421.695> 288 100<292.082 425.515> 358 34<121.399 183.419>
LayerCount: 5
Fore
SplineSet
122 122 m 0xac
 130 124 138 125 146 125 c 0
 224 125 235 89 285 89 c 0
 316 89 351 110 354 169 c 4
 355 184 358 188 370 188 c 6
 373 188 l 6
 385 188 389 180 389 173 c 6
 389 161 l 6
 389 91 358 -6 267 -6 c 0
 195 -6 191 76 121 76 c 0
 87 76 63 51 60 10 c 0
 60 3 57 -6 44 -6 c 2
 41 -6 l 2
 29 -6 25 2 25 9 c 2
 25 21 l 2
 25 124 87 190 164 229 c 0
 246 271 294 254 294 368 c 0
 294 430 267 467 200 467 c 0
 174 467 135 459 111 437 c 0
 99 426 101 413 115 408 c 0
 137 400 153 382 153 352 c 0
 153 317 125 293 90 293 c 0
 61 293 31 321 31 356 c 0
 31 430 102 500 211 500 c 0
 314 500 388 442 388 361 c 0
 388 284 336 241 257 221 c 0
 202 207 148 186 111 148 c 0
 94 130 100 117 122 122 c 0xac
EndSplineSet
EndChar

StartChar: underscore
Encoding: 95 95 61
Width: 320
VWidth: 768
Flags: HMW
LayerCount: 5
Fore
SplineSet
226 258 m 0
 217 255 206 253 194 253 c 3
 150 253 144 302 96 302 c 3
 64 302 49 279 43 251 c 0
 40 237 18 233 18 253 c 0
 18 261 20 273 20 296 c 3
 20 318 20 344 20 354 c 0
 20 366 26 370 33 370 c 3
 39 370 45 361 47 352 c 0
 52 335 61 332 80 345 c 0
 96 355 108 372 143 372 c 3
 195 372 201 323 240 323 c 3
 261 323 272 339 275 356 c 0
 277 365 281 370 289 370 c 0
 303 370 302 355 302 342 c 0
 300 281 285 217 243 164 c 0
 199 109 185 74 177 10 c 0
 176 2 171 -1 164 -1 c 3
 153 -1 145 4 123 4 c 3
 100 4 89 -2 79 -2 c 3
 71 -2 68 2 68 12 c 3
 68 119 207 158 247 236 c 0
 256 254 254 267 226 258 c 0
EndSplineSet
EndChar

StartChar: asciicircum
Encoding: 94 94 62
Width: 314
VWidth: 768
Flags: HMW
LayerCount: 5
Fore
SplineSet
168 182 m 3
 149 182 131 173 123 165 c 0
 110 152 106 147 106 94 c 3
 106 76 107 28 166 28 c 3
 213 28 217 76 217 114 c 3
 217 154 209 182 168 182 c 3
178 372 m 3
 242 372 279 340 279 290 c 3
 279 261 257 235 224 235 c 3
 205 235 181 247 181 278 c 3
 181 314 211 311 211 327 c 3
 211 336 203 341 180 341 c 3
 106 341 106 287 106 236 c 3
 106 206 114 206 123 206 c 3
 140 206 158 217 191 217 c 3
 259 217 296 174 296 112 c 3
 296 42 234 -4 170 -4 c 3
 66 -4 19 90 19 182 c 3
 19 284 74 372 178 372 c 3
EndSplineSet
EndChar

StartChar: backslash
Encoding: 92 92 63
Width: 339
VWidth: 0
Flags: HMW
HStem: 0 20<122 165 265 309> 92 26<61 166 264 328>
VStem: 19 42<104 135> 122 122<328 370> 168 94<22 92 119 215>
LayerCount: 5
Fore
SplineSet
168 66 m 2xe8
 168 83 158 90 140 90 c 2
 31 90 l 2
 20 90 19 102 19 106 c 0
 19 113 21 117 33 134 c 0
 97 227 103 273 122 353 c 0
 126 371 132 375 140 375 c 3
 156 375 158 368 185 368 c 3
 213 368 218 375 230 375 c 3
 237 375 241 371 241 361 c 3xf0
 241 340 220 310 162 242 c 0
 126 201 102 173 85 155 c 0
 68 135 70 122 96 122 c 2
 139 122 l 2
 159 122 168 135 168 149 c 2
 168 171 l 2xe8
 168 185 170 198 178 206 c 2
 227 262 l 2
 233 269 255 286 255 256 c 2
 255 150 l 2
 255 137 259 122 280 122 c 2
 309 122 l 2
 326 122 328 116 328 106 c 3
 328 97 328 90 309 90 c 2
 279 90 l 2
 265 90 255 82 255 70 c 2
 255 59 l 2
 255 36 261 32 281 30 c 0
 297 29 301 27 301 15 c 0
 301 4 299 0 283 0 c 2
 142 0 l 2
 126 0 122 3 122 15 c 0xf0
 122 27 128 29 142 30 c 0
 162 32 168 38 168 59 c 2xe8
 168 66 l 2xe8
EndSplineSet
EndChar

StartChar: bracketright
Encoding: 93 93 64
Width: 303
VWidth: 768
Flags: HMW
HStem: -7 19<90 160> 208 4<60 118> 294 65<66 215> 302 69<49 142>
VStem: 19 62<27 100> 194 92<59 183>
LayerCount: 5
Fore
SplineSet
56 371 m 3xdc
 78 371 106 359 147 359 c 3
 186 359 223 366 242 369 c 0
 259 372 264 367 257 353 c 0
 237 315 197 294 141 294 c 3xec
 115 294 102 301 86 301 c 3
 76 301 67 294 66 283 c 2
 64 242 l 2
 63 230 70 226 79 226 c 3
 95 226 107 238 159 238 c 3
 232 238 285 194 285 120 c 3
 285 55 234 -7 133 -7 c 3
 77 -7 19 23 19 85 c 3
 19 116 37 143 75 143 c 3
 105 143 121 122 121 93 c 3
 121 61 93 55 93 40 c 3
 93 27 110 25 127 25 c 3
 189 25 194 80 194 121 c 3
 194 174 179 202 123 202 c 3
 91 202 69 188 57 170 c 0
 48 156 29 159 29 176 c 3
 29 185 32 208 33 228 c 2
 35 286 l 2
 37 314 35 336 37 355 c 0
 38 370 43 371 56 371 c 3xdc
EndSplineSet
EndChar

StartChar: hcircumflex
Encoding: 293 293 65
Width: 395
VWidth: 1024
Flags: HMW
HStem: -9 35<120.116 223.899> 276 42<109.149 234.004> 399 80<96.7938 294.077> 409 86<65.5 190.4>
VStem: 25 92<46.3335 128.5> 268 100<75.2978 240.683>
LayerCount: 5
Fore
SplineSet
49 261 m 2xec
 49 482 l 2
 49 488 51 490 54 490 c 0
 65 490 128 476 203 476 c 0
 254 476 310 490 320 490 c 0
 326 490 329 483 329 478 c 0
 329 475 328 471 324 464 c 0
 277 395 197 388 109 401 c 0
 93 403 82 399 82 383 c 2
 82 324 l 2
 82 302 92 298 112 305 c 0
 135 313 161 319 190 319 c 0
 291 319 370 262 370 165 c 0
 370 73 312 -5 177 -5 c 0
 102 -5 25 39 25 106 c 0
 25 142 52 169 87 169 c 0
 116 169 147 149 147 109 c 0
 147 90 140 77 130 67 c 0
 114 51 117 41 135 35 c 0
 146 31 159 30 169 30 c 0
 243 32 277 78 277 162 c 0
 277 250 237 282 181 282 c 0
 141 282 105 269 76 254 c 0
 68 250 49 241 49 261 c 2xec
EndSplineSet
EndChar

StartChar: asciitilde
Encoding: 126 126 66
Width: 419
VWidth: 1024
Flags: HMW
LayerCount: 5
Fore
SplineSet
224 249 m 3
 199 249 175 237 164 226 c 0
 147 209 142 197 142 126 c 3
 142 102 142 30 221 30 c 3
 284 30 289 102 289 152 c 3
 289 206 279 249 224 249 c 3
238 496 m 3
 323 496 372 453 372 387 c 3
 372 348 342 308 298 308 c 3
 273 308 236 322 236 370 c 3
 236 428 288 420 288 441 c 3
 288 453 271 461 240 461 c 3
 142 461 142 383 142 315 c 3
 142 275 148 269 159 269 c 3
 176 269 204 289 255 289 c 3
 346 289 394 232 394 150 c 3
 394 57 313 -5 227 -5 c 3
 88 -5 25 119 25 242 c 3
 25 378 100 496 238 496 c 3
EndSplineSet
EndChar

StartChar: uni007F
Encoding: 127 127 67
Width: 427
VWidth: 1024
Flags: HMW
LayerCount: 5
Fore
SplineSet
314 350 m 0
 299 343 279 337 258 337 c 3
 199 337 192 403 128 403 c 3
 86 403 65 372 55 335 c 0
 50 317 24 310 24 337 c 0
 24 347 27 363 27 394 c 3
 27 423 26 459 26 472 c 0
 26 488 33 494 42 494 c 3
 50 494 56 481 58 469 c 0
 62 447 74 435 99 454 c 0
 124 472 144 496 191 496 c 3
 261 496 271 428 323 428 c 3
 351 428 366 452 370 475 c 0
 372 487 380 494 388 494 c 0
 397 494 402 490 402 479 c 3
 402 391 380 293 318 215 c 0
 260 142 246 100 236 14 c 0
 235 4 228 -1 219 -1 c 3
 204 -1 194 11 164 11 c 3
 133 11 118 -3 105 -3 c 3
 94 -3 91 3 91 16 c 3
 91 164 296 215 338 328 c 0
 349 356 339 362 314 350 c 0
EndSplineSet
EndChar

StartChar: A
Encoding: 65 65 68
Width: 195
Flags: HMW
LayerCount: 5
Fore
SplineSet
87 133 m 0
 111 133 134 145 134 193 c 0
 134 208 126 240 90 240 c 0
 63 240 54 223 54 189 c 0
 54 155 60 133 87 133 c 0
81 -3 m 0
 36 -3 11 22 11 49 c 0
 11 69 25 81 42 81 c 0
 62 81 69 68 69 54 c 0
 69 42 65 40 65 32 c 0
 65 25 67 19 83 19 c 0
 121 19 133 46 133 88 c 0
 133 108 124 110 117 110 c 0
 109 110 105 107 72 107 c 0
 24 107 0 135 0 184 c 0
 0 232 43 263 89 263 c 0
 163 263 195 197 195 132 c 0
 195 59 155 -3 81 -3 c 0
EndSplineSet
EndChar

StartChar: X
Encoding: 88 88 69
Width: 331
VWidth: 768
Flags: HMW
LayerCount: 5
Fore
SplineSet
166 342 m 3
 113 342 104 274 104 184 c 3
 104 94 113 27 166 27 c 3
 219 27 227 94 227 184 c 3
 227 274 219 342 166 342 c 3
166 372 m 7
 272 372 313 283 313 184 c 3
 313 85 272 -4 166 -4 c 3
 60 -4 19 85 19 184 c 3
 19 283 60 372 166 372 c 7
EndSplineSet
EndChar

StartChar: Y
Encoding: 89 89 70
Width: 239
VWidth: 0
Flags: HMW
LayerCount: 5
Fore
SplineSet
76 216 m 2
 47 175 l 2
 33 155 9 162 22 188 c 10
 74 290 l 2
 100 342 102 367 119 367 c 3
 127 367 132 362 147 362 c 3
 163 362 165 367 174 367 c 3
 182 367 186 361 186 349 c 2
 186 59 l 6
 186 36 192 32 212 30 c 4
 228 29 232 27 232 15 c 4
 232 4 229 0 214 0 c 6
 76 0 l 6
 59 0 55 3 55 15 c 4
 55 27 61 29 76 30 c 4
 96 32 102 38 102 59 c 6
 102 204 l 2
 102 227 91 237 76 216 c 2
EndSplineSet
EndChar

StartChar: Z
Encoding: 90 90 71
Width: 343
VWidth: 768
Flags: HMW
LayerCount: 5
Fore
SplineSet
184 374 m 3
 258 374 314 326 314 266 c 3
 314 205 268 186 210 173 c 0
 184 167 149 156 121 134 c 0
 102 119 111 106 128 106 c 0
 178 106 207 74 243 74 c 3
 269 74 280 89 288 109 c 0
 292 122 298 136 306 136 c 3
 314 136 317 130 317 122 c 0
 317 70 276 -4 219 -4 c 3
 173 -4 158 50 101 50 c 3
 84 50 60 39 52 12 c 0
 48 -0 44 -4 36 -4 c 3
 30 -4 26 2 26 16 c 0
 28 93 81 152 139 182 c 0
 197 211 224 224 224 274 c 3
 224 318 203 342 160 342 c 3
 138 342 110 334 110 315 c 3
 110 294 146 295 146 252 c 3
 146 229 130 204 98 204 c 3
 52 204 39 234 39 262 c 3
 39 324 93 374 184 374 c 3
EndSplineSet
EndChar

StartChar: parenleft
Encoding: 40 40 72
Width: 162
VWidth: 1179
Flags: HMW
HStem: -7 19<39 74> 191 20<88 124>
VStem: 0 35<12 122> 126 35<82 191>
LayerCount: 5
Fore
SplineSet
53 -7 m 3
 19 -7 0 25 0 63 c 3
 0 130 46 211 109 211 c 3
 142 211 162 187 162 145 c 3
 162 77 118 -7 53 -7 c 3
126 162 m 3
 126 177 122 187 106 187 c 3
 67 187 35 87 35 45 c 3
 35 27 42 16 57 16 c 3
 92 16 126 115 126 162 c 3
EndSplineSet
EndChar

StartChar: parenright
Encoding: 41 41 73
Width: 166
VWidth: 1179
Flags: HMW
HStem: 0 18<17 56 106 138> 191 16G<121 125 146 151>
LayerCount: 5
Fore
SplineSet
28 23 m 0
 57 25 61 31 69 57 c 2
 91 127 l 2
 92 129 92 132 92 133 c 0
 92 138 90 140 86 140 c 0
 83 140 79 139 75 137 c 2
 31 116 l 2
 30 116 28 115 27 115 c 0
 22 115 18 118 18 123 c 0
 18 125 19 128 23 131 c 2
 108 199 l 2
 116 205 124 207 128 207 c 2
 146 207 l 2
 152 207 154 200 154 195 c 0
 154 192 154 190 153 189 c 2
 110 48 l 2
 108 43 107 38 107 35 c 0
 107 27 113 24 127 23 c 0
 143 22 145 18 145 10 c 0
 145 2 140 0 132 0 c 2
 20 0 l 2
 16 0 12 2 12 7 c 0
 12 15 15 22 28 23 c 0
EndSplineSet
EndChar

StartChar: asterisk
Encoding: 42 42 74
Width: 177
VWidth: 1179
Flags: HMW
HStem: -7 40<71 129> 0 17G<1 7> 192 19<66 123>
VStem: -5 20<0 26> 28 34<135 189> 134 38<127 187>
LayerCount: 5
Fore
SplineSet
171 153 m 0x7c
 171 127 149 111 128 102 c 0
 110 94 91 85 75 76 c 0
 58 66 61 54 72 46 c 0
 82 39 91 37 102 37 c 0
 118 37 128 49 136 62 c 0
 139 67 143 73 150 73 c 0
 160 73 157 58 154 52 c 0
 144 25 124 -7 95 -7 c 0xbc
 70 -7 59 28 38 28 c 0
 28 28 22 21 19 15 c 0
 14 5 12 0 4 0 c 0
 -2 0 -5 3 -5 8 c 0
 -5 44 27 80 83 106 c 0
 112 120 132 136 132 159 c 0
 132 182 114 187 96 187 c 0
 81 187 68 181 68 170 c 0
 68 160 76 160 76 144 c 0
 76 129 66 123 50 123 c 0
 36 123 27 139 27 153 c 0
 27 185 61 211 100 211 c 0
 134 211 171 198 171 153 c 0x7c
EndSplineSet
EndChar

StartChar: plus
Encoding: 43 43 75
Width: 167
VWidth: 1179
Flags: HMW
HStem: -7 19<29 77> 98 19<49 92> 194 17<75 122>
VStem: -10 38<12 55> 39 34<151 194> 97 40<24 96> 129 38<130 192>
LayerCount: 5
Fore
SplineSet
17 68 m 3xfc
 31 68 39 59 39 45 c 3
 39 35 34 33 34 25 c 3
 34 18 42 16 50 16 c 3
 82 16 97 38 97 70 c 3xfc
 97 89 86 96 63 96 c 3
 55 96 49 99 49 106 c 3
 49 116 54 119 62 119 c 3
 104 119 129 132 129 165 c 3
 129 183 116 189 99 189 c 3
 88 189 76 185 76 176 c 3
 76 169 79 171 79 159 c 3
 79 149 70 142 59 142 c 3
 46 142 39 150 39 163 c 3
 39 191 71 211 101 211 c 3
 134 211 167 195 167 163 c 3
 167 143 156 126 134 114 c 0
 129 111 120 108 120 101 c 3
 120 95 126 90 129 86 c 0xfa
 135 77 137 68 137 57 c 3
 137 45 131 34 125 26 c 0
 107 2 79 -7 51 -7 c 3
 19 -7 -10 8 -10 40 c 3
 -10 55 2 68 17 68 c 3xfc
EndSplineSet
EndChar

StartChar: slash
Encoding: 47 47 76
Width: 156
VWidth: 1179
Flags: HMW
LayerCount: 5
Fore
SplineSet
95 143 m 0
 79 143 74 156 63 156 c 0
 45 156 40 140 34 126 c 0
 29 112 11 115 14 129 c 0
 21 154 26 167 31 195 c 0
 32 202 35 207 42 207 c 0
 49 207 52 201 52 196 c 0
 53 189 56 183 63 183 c 0
 78 183 80 203 100 203 c 0
 119 203 117 184 131 184 c 0
 144 184 149 191 152 199 c 0
 154 205 159 206 163 206 c 0
 167 206 172 204 172 197 c 0
 172 196 172 196 172 194 c 0
 168 160 151 137 129 103 c 0
 111 76 98 45 93 15 c 0
 91 4 85 -2 79 -2 c 3
 70 -2 70 -1 59 -1 c 3
 48 -1 50 -2 39 -2 c 3
 19 -2 35 25 39 30 c 0
 78 98 112 111 123 136 c 0
 129 149 122 154 107 146 c 0
 104 144 98 143 95 143 c 0
EndSplineSet
EndChar

StartChar: uni001C
Encoding: 28 28 77
Width: 184
Flags: HMW
HStem: 0 21<65 100 147 184> 57 20<51 99 148 196>
VStem: 20 31<64 101> 63 70<169 208> 100 47<22 57 78 126>
LayerCount: 5
Fore
SplineSet
127 40 m 2xe0
 127 24 140 25 162 23 c 0
 170 22 172 18 172 12 c 0
 172 5 170 0 160 0 c 2
 50 0 l 2
 40 0 38 4 38 11 c 0
 38 17 42 22 48 22 c 0
 76 24 85 27 85 41 c 2
 85 47 l 2
 85 57 81 62 68 62 c 2
 11 62 l 2
 -1 62 0 67 0 71 c 0
 0 75 0 78 7 91 c 0
 22 119 36 148 45 194 c 0
 48 212 52 212 58 212 c 0
 66 212 69 210 80 210 c 0
 91 210 92 212 99 212 c 0
 104 212 107 209 107 202 c 0
 107 195 103 183 74 148 c 0
 45 112 36 103 36 95 c 0
 36 90 38 86 50 86 c 2
 70 86 l 2
 82 86 84 97 85 106 c 0
 86 113 87 117 94 123 c 0
 105 134 114 149 121 149 c 0
 125 149 128 149 128 139 c 0
 128 128 127 125 127 99 c 0
 127 92 132 87 142 87 c 2
 171 87 l 2
 183 87 184 82 184 76 c 2
 184 74 l 2
 184 67 182 62 166 62 c 2
 149 62 l 2
 137 62 127 61 127 49 c 2
 127 40 l 2xe0
EndSplineSet
EndChar

StartChar: uni001D
Encoding: 29 29 78
Width: 149
Flags: HMW
HStem: -4 18<43 87> 114 16<35 87> 167 38<25 127>
VStem: 0 47<15 70> 9 18<130 168> 101 49<23 108>
LayerCount: 5
Fore
SplineSet
25 210 m 0xec
 38 210 47 205 85 205 c 0
 97 205 111 207 121 209 c 0
 141 212 143 200 132 189 c 0
 121 177 101 169 77 169 c 0
 67 169 61 171 45 171 c 0
 32 171 31 156 31 144 c 0xec
 31 131 37 130 42 130 c 0
 53 130 52 134 80 134 c 0
 118 134 149 111 149 69 c 0
 149 32 122 -4 64 -4 c 0
 31 -4 0 9 0 44 c 0
 0 62 12 71 26 71 c 0
 41 71 47 60 47 50 c 0xf4
 47 38 44 40 44 31 c 0
 44 20 53 19 63 19 c 0
 96 19 108 44 108 67 c 0
 108 101 88 109 61 109 c 0
 36 109 28 93 14 93 c 0
 7 93 4 95 4 105 c 0
 4 115 9 137 9 186 c 0
 9 194 l 0
 9 207 15 210 25 210 c 0xec
EndSplineSet
EndChar

StartChar: uni001E
Encoding: 30 30 79
Width: 153
Flags: HMW
HStem: -2 20<57 103> 103 19<58 105> 192 18<62 103>
VStem: 0 48<36 171> 103 44<150 192> 111 45<20 102>
LayerCount: 5
Fore
SplineSet
80 97 m 0xf4
 54 97 44 83.5 44 59 c 0
 44 46 50 23 83 23 c 0
 108 23 112 44 112 65 c 0
 112 85.5 99.25 97 80 97 c 0xf4
90 210 m 0
 128 210 147 188 147 168 c 0
 147 150 135 138 120 138 c 0
 108 138 98 144 98 159 c 0
 98 167.167 100 167 100 176 c 0xf8
 100 181 95.5 187 86 187 c 0
 52 187 45 161.667 45 140 c 0
 45 124.64 50.7305 116 59 116 c 0
 66 116 69 119 94 119 c 0
 127.25 119 153 100 153 61 c 0
 153 27 123 -2 86 -2 c 0
 27 -2 0 50 0 102 c 0
 0 160 31 210 90 210 c 0
EndSplineSet
EndChar

StartChar: uni001F
Encoding: 31 31 80
Width: 159
Flags: HMW
HStem: -1 17G<75 84> 154 30<97 130> 162 20<25 43>
VStem: 0 18<122 154 183 209> 26 66<0 51> 130 29<127 206>
LayerCount: 5
Fore
SplineSet
93 147 m 0xdc
 79 147 73 160 54 160 c 0
 35 160 27 148 22 130 c 0
 19 120 18 115 9 115 c 0
 2 115 0 121 0 126 c 0
 0 130 2 153 2 166 c 0
 2 178 0 193 0 199 c 0
 0 206 3 210 9 210 c 0
 18 210 20 203 21 197 c 0
 23 188 28 186 34 186 c 0xbc
 46 186 49 210 72 210 c 0
 100 210 97 186 116 186 c 0
 128 186 134 191 138 201 c 0
 140 209 143 211 149 211 c 0
 156 211 159 206 159 198 c 0
 159 170 151 124 125 90 c 0
 104 63 93 46 89 18 c 0
 87 8 86 -1 75 -1 c 0
 69 -1 69 0 57 0 c 0
 46 0 44 -1 38 -1 c 0
 32 -1 28 1 28 11 c 0
 28 45 89 95 116 125 c 0
 124 134 127 142 127 147 c 0
 127 151 124 153 120 153 c 0
 112 153 103 147 93 147 c 0xdc
EndSplineSet
EndChar

StartChar: uni0019
Encoding: 25 25 81
Width: 163
Flags: HMW
LayerCount: 5
Fore
SplineSet
107 210 m 2
 113 210 116 206 116 198 c 2
 116 50 l 2
 116 25 133 26 156 23 c 0
 164 22 164 18 164 12 c 0
 164 5 162 0 152 0 c 2
 36 0 l 2
 27 0 25 4 25 11 c 0
 25 17 26 21 33 22 c 0
 65 24 75 28 75 56 c 2
 75 125 l 2
 75 140.915 65.2934 138.259 57 133 c 2
 16 107 l 2
 13 105 10 104 7 104 c 0
 3 104 0 107 0 110 c 0
 0 113 1 115 4 118 c 2
 70 196 l 2
 81 208 81 210 93 210 c 2
 107 210 l 2
EndSplineSet
EndChar

StartChar: Wcircumflex
Encoding: 372 372 82
Width: 232
VWidth: 2048
Flags: MW
HStem: 0 24<43.7167 97.7632 136.422 178.961> 77 25<54.9973 104.156 159.781 219.996>
VStem: 91 57<198.087 242.864>
LayerCount: 5
Fore
SplineSet
179 13 m 0
 179 3 173 0 165 0 c 2
 51 0 l 2
 45 0 43 2 43 6 c 0
 43 17 49 23 54 23 c 2
 77 24 l 2
 93 25 96 30 100 42 c 2
 107 64 l 2
 110 71 107 77 97 77 c 2
 10 77 l 2
 3 77 0 80 0 85 c 0
 0 95 3 97 11 107 c 0
 45 148 72 188 91 233 c 0
 94 241 97 245 102 245 c 3
 109 245 113 243 122 243 c 3
 131 243 135 245 141 245 c 3
 145 245 148 243 148 237 c 3
 148 228 138 210 111 178 c 0
 86 149 79 146 55 123 c 0
 46 115 43 102 63 102 c 2
 99 102 l 2
 113 102 119 108 124 122 c 2
 129 135 l 2
 132 144 138 149 145 154 c 2
 158 164 l 2
 169 171 172 166 169 156 c 2
 159 121 l 2
 155 109 157 102 169 102 c 2
 212 102 l 2
 220 102 220 94 220 89 c 0
 220 82 215 77 208 77 c 2
 161 77 l 2
 151 77 145 74 142 64 c 2
 135 41 l 2
 131 29 135 25 150 25 c 2
 168 24 l 2
 177 24 179 20 179 13 c 0
EndSplineSet
EndChar

StartChar: uni01D5
Encoding: 469 469 83
Width: 292
VWidth: 1024
Flags: MW
HStem: -7 29<91.4963 171.497> 206 32<77.2143 177.295> 302 57<74.7651 232.081> 310 61<49.5 142.937>
VStem: 19 72<27.603 94.9505> 206 66<48.8711 184.918>
LayerCount: 5
Fore
SplineSet
56 371 m 3xdc
 78 371 106 359 147 359 c 3
 191 359 233 368 248 370 c 0
 259 372 263 366 259 357 c 0
 240 316 200 302 142 302 c 3xec
 116 302 98 310 82 310 c 3
 72 310 68 306 67 295 c 2
 64 244 l 2
 63 228 72 226 78 226 c 3
 99 226 118 238 154 238 c 3
 227 238 272 194 272 120 c 3
 272 55 234 -7 133 -7 c 3
 83 -7 19 25 19 72 c 0
 19 96 35 117 61 117 c 3
 83 117 100 101 100 79 c 3
 100 57 91 54 91 39 c 3
 91 26 110 22 127 22 c 3
 189 22 206 80 206 121 c 3
 206 174 180 206 124 206 c 3
 92 206 65 185 53 170 c 0
 43 156 29 159 29 176 c 3
 29 185 32 208 33 228 c 2
 35 286 l 2
 37 314 35 336 37 355 c 0
 38 370 43 371 56 371 c 3xdc
EndSplineSet
EndChar

StartChar: uni0210
Encoding: 528 528 84
Width: 234
VWidth: 952
Flags: HMW
HStem: -3 39<119.233 216.628> 228 24<80.7305 153.318>
VStem: 26 52<155.543 225.244> 167 46<142.88 221.985> 225 21<52.4551 87.5026>
LayerCount: 5
Fore
SplineSet
117 228 m 0
 149 228 167 212 167 181 c 0
 167 146 139 140 100 118 c 0
 61 96 20 55 20 13 c 0
 20 -10 38 -10 43 7 c 0
 50 27 62 36 77 36 c 0
 110 36 124 -3 171.5 -3 c 0
 219 -3 242 42 246 75 c 0
 247 85 243 88 238 88 c 0
 232 88 229 81 225 71 c 0
 218 54 208 36 176 36 c 0
 156 36 121 49 98 58 c 0
 76 67 77 75 96 88 c 0
 106 95 118 101 133 106 c 0
 156 114 213 130 213 177 c 0
 213 219 179 252 124 252 c 0
 63 252 26 218 26 181 c 0
 26 167 35 155 50 155 c 0
 67 155 78 165 78 181 c 0
 78 189 75 193 75 200 c 0
 75 223 100 228 117 228 c 0
EndSplineSet
EndChar

StartChar: uni0241
Encoding: 577 577 85
Width: 0
VWidth: 855
Flags: HMW
LayerCount: 5
Fore
SplineSet
-2 312 m 0
 59 312 98 274 98 226 c 0
 98 184 78 156 29 139 c 0
 -2 129 -22 124 -45 104 c 0
 -53 97 -70 76 -41 74 c 0
 -25 73 -8 67 9 60 c 0
 26 54 35 55 46 72 c 2
 78 121 l 2
 83 129 86 129 96 123 c 0
 105 117 107 115 102 107 c 2
 73 62 l 2
 65 50 64 40 88 41 c 0
 114 43 125 53 138 76 c 0
 142 85 148 98 158 98 c 0
 162 98 167 93 166 86 c 0
 162 37 125 -7 70 -7 c 0
 64 -7 58 -6 52 -4 c 0
 37 0 31 -3 24 -14 c 2
 -2 -53 l 2
 -7 -61 -10 -62 -20 -55 c 0
 -30 -49 -31 -46 -26 -39 c 2
 -1 0 l 2
 7 11 8 20 -7 29 c 0
 -22 38 -38 46 -56 46 c 0
 -75 46 -89 33 -92 10 c 0
 -94 0 -98 -3 -107 -3 c 0
 -114 -3 -117 1 -117 13 c 0
 -115 77 -81 120 -33 146 c 0
 15 172 43 180 43 222 c 0
 43 262 22 283 -14 283 c 0
 -32 283 -53 275 -53 257 c 0
 -53 241 -48 244 -48 221 c 0
 -48 204 -62 191 -81 191 c 0
 -99 191 -114 204 -114 227 c 0
 -114 269 -71 312 -2 312 c 0
EndSplineSet
EndChar

StartChar: uni0248
Encoding: 584 584 86
Width: 284
VWidth: 641
Flags: HMW
HStem: -3 26<108.114 176.197> 285 26<108.114 176.197>
VStem: 20 54<55.3092 252.691> 210 54<55.3092 252.691>
LayerCount: 5
Fore
SplineSet
142 285 m 7
 98 285 74 238 74 154 c 3
 74 70 98 23 142 23 c 3
 186 23 210 70 210 154 c 3
 210 238 186 285 142 285 c 7
142 311 m 3
 232 311 264 237 264 154 c 3
 264 71 232 -3 142 -3 c 3
 54 -3 20 71 20 154 c 3
 20 237 54 311 142 311 c 3
EndSplineSet
EndChar

StartChar: uni024C
Encoding: 588 588 87
Width: 310
VWidth: 0
Flags: HMW
HStem: 0 27<105.015 162.383 216.989 274.994> 91 29<74.5577 163.163 216.371 289.998>
VStem: 104 73<244.423 306.885> 164 52<28.0066 90.9937 120 197.438>
LayerCount: 5
Fore
SplineSet
216 51 m 2xd0
 216 33 222 28 234 28 c 2
 258 27 l 2
 270 26 275 25 275 13 c 0
 275 4 273 0 260 0 c 2
 122 0 l 2
 108 0 105 3 105 13 c 0
 105 23 110 27 119 27 c 2
 145 28 l 2
 157 28 164 37 164 51 c 2
 164 69 l 2xd0
 164 89 156 91 141 91 c 2
 30 91 l 2
 21 91 20 100 20 103 c 0
 20 109 23 111 32 126 c 0
 79 203 91 227 104 291 c 0
 107 306 111 310 118 310 c 3
 127 310 131 307 143 307 c 3
 156 307 161 310 168 310 c 3
 174 310 177 306 177 300 c 3xe0
 177 282 166.5 257 134 210 c 0
 105.164 168.299 93 164 75 141 c 0
 65.373 128.699 68 120 83 120 c 2
 142 120 l 2
 159 120 164 130 164 142 c 2
 164 153 l 2
 164 165 166 176 173 183 c 0
 186 198 182 193 198 211 c 0
 205 219 216 220 216 203 c 2
 216 140 l 2
 216 127 217 120 235 120 c 6
 274 120 l 2
 287 120 290 116 290 106 c 3
 290 95 288 91 274 91 c 2
 236 91 l 2
 224 91 216 86 216 72 c 2
 216 51 l 2xd0
EndSplineSet
EndChar

StartChar: uni000E
Encoding: 14 14 88
Width: 1000
VWidth: 970
LayerCount: 5
Back
SplineSet
119 48 m 6xf4
 119 63 117 67 101 67 c 6
 33 67 l 6
 18 67 19 74 19 79 c 4
 19 84 19 87 28 103 c 4
 52 148 68 174 84 224 c 4
 98 263 98 265 112 265 c 7
 122 265 123 262 137 262 c 7
 151 262 152 265 161 265 c 7
 167 265 172 263 172 254 c 4xf8
 172 239 160 221 112 173 c 4
 71 132 58 111 58 104 c 4
 58 99 58 92 73 92 c 6
 99 92 l 6
 114 92 117 95 118 102 c 4
 118 107 118 128 119 137 c 4
 120 147 123 155 130 160 c 4
 161 180 162 185 171 185 c 4
 176 185 180 185 180 174 c 4
 180 160 178 141 178 109 c 4
 178 100 181 93 193 93 c 6
 223 93 l 6
 238 93 239 89 239 81 c 6
 239 79 l 6
 239 73 237 67 217 67 c 6
 198 67 l 6
 183 67 178 66 178 44 c 6
 178 39 l 6
 178 20 191 23 215 21 c 4
 224 20 224 16 224 11 c 4
 224 0 222 0 207 0 c 4
 191 0 158 0 148 0 c 4
 132 0 110 0 94 0 c 4
 77 0 75 -1 75 12 c 4
 75 16 76 19 85 20 c 4
 107 22 119 18 119 39 c 6
 119 48 l 6xf4
EndSplineSet
EndChar

StartChar: D
Encoding: 68 68 89
Width: 220
Flags: MW
HStem: 0 26<56.0058 99.7142 159.21 204.993> 71 25<39.0001 98.9301 159.661 219.998>
VStem: 0 39<80.5 126.495> 54 87<211.63 259.658> 100 59<27.0938 70.997 97.0051 166.84>
LayerCount: 5
Fore
SplineSet
100 52 m 2xe8
 100 67 98 71 82 71 c 0
 14 71 l 0
 -1 71 0 78 0 83 c 0
 0 88 0 91 9 107 c 0
 28 143 52 188 54 243 c 0xf0
 56 266 63 265 70 265 c 0
 80 265 86 260 100 260 c 0xe8
 114 260 121 265 130 265 c 0
 136 265 141 263 141 254 c 0
 141 239 127 218 88 173 c 0
 50 129 39 115 39 108 c 0
 39 103 39 96 54 96 c 0xf0
 80 96 l 0
 95 96 98 99 99 106 c 0
 99 111 99 122 100 130 c 0
 101 140 105 149 111 156 c 0
 134 178 143 195 152 195 c 0
 157 195 161 195 161 184 c 0
 161 170 159 145 159 113 c 0
 159 104 162 97 174 97 c 0
 204 97 l 0
 219 97 220 93 220 85 c 0
 220 83 l 0
 220 77 218 71 198 71 c 0
 179 71 l 0
 164 71 159 70 159 48 c 2
 159 42 l 2
 159 30 167 27 182 27 c 0
 196 26 205 26 205 13 c 0
 205 2 199 0 188 0 c 2
 75 0 l 2
 58 0 56 2 56 13 c 0
 56 25 64 25 77 26 c 0
 92 26 100 32 100 42 c 2
 100 52 l 2xe8
EndSplineSet
EndChar

StartChar: uni02B9
Encoding: 697 697 90
Width: 175
VWidth: 230
Flags: MW
LayerCount: 5
Fore
SplineSet
0 -134 m 2
 0 596 l 2
 0 610 6 620 21 620 c 2
 201 620 l 2
 220 620 225 613 225 603 c 0
 225 587 217 585 192 585 c 2
 59 585 l 2
 39 585 35 583 35 562 c 2
 35 -95 l 2
 35 -119 37 -125 57 -125 c 2
 201 -125 l 2
 220 -125 225 -130 225 -142 c 0
 225 -156 217 -160 192 -160 c 2
 24 -160 l 2
 10 -160 0 -154 0 -134 c 2
EndSplineSet
EndChar

StartChar: uni02BA
Encoding: 698 698 91
Width: 175
VWidth: 230
Flags: MW
LayerCount: 5
Fore
SplineSet
175 -134 m 2
 175 596 l 2
 175 610 169 620 154 620 c 2
 -26 620 l 2
 -45 620 -50 613 -50 603 c 0
 -50 587 -42 585 -17 585 c 2
 116 585 l 2
 136 585 140 583 140 562 c 2
 140 -95 l 2
 140 -119 138 -125 118 -125 c 2
 -26 -125 l 2
 -45 -125 -50 -130 -50 -142 c 0
 -50 -156 -42 -160 -17 -160 c 2
 151 -160 l 2
 165 -160 175 -154 175 -134 c 2
EndSplineSet
EndChar

StartChar: uni02BB
Encoding: 699 699 92
Width: 0
VWidth: 230
Flags: MW
LayerCount: 5
Fore
SplineSet
556 -125 m 2
 575 -125 580 -132 580 -142 c 0
 580 -158 573 -160 547 -160 c 2
 -17 -160 l 2
 -42 -160 -50 -158 -50 -142 c 0
 -50 -132 -45 -125 -26 -125 c 2
 556 -125 l 2
556 620 m 2
 575 620 580 613 580 603 c 0
 580 587 573 585 547 585 c 2
 -17 585 l 2
 -42 585 -50 587 -50 603 c 0
 -50 613 -45 620 -26 620 c 2
 556 620 l 2
EndSplineSet
EndChar

StartChar: uni0316
Encoding: 790 790 93
Width: 223
VWidth: 1085
Flags: HMW
HStem: -3 25<80.0845 148.141> 114 24<80.2788 147.308> 227 24<90.4356 145.422>
VStem: 21 45<35.1905 206.182> 146 49<171.267 226.371> 158 43<26.1859 109.594>
LayerCount: 5
Fore
SplineSet
115 114 m 3xf4
 90 114 70 99 70 69 c 3
 70 46 84 22 116 22 c 3
 142 22 153 39 153 71 c 3
 153 92 146 114 115 114 c 3xf4
145 214 m 0xf8
 145 223 141 227 124 227 c 3
 78 227 70 185 70 150 c 3
 70 132 80 133 85 133 c 3
 99 133 107 138 131 138 c 3
 172 138 203 115 203 73 c 7xf4
 203 25 164 -3 121 -3 c 3
 50 -3 20 51 20 123 c 3
 20 196 58 251 126 251 c 3
 169 251 195 228 195 199 c 3
 195 184 188 169 169 169 c 3
 151 169 142 180 142 194 c 0
 142 203 145 208 145 214 c 0xf8
EndSplineSet
EndChar

StartChar: uni0317
Encoding: 791 791 94
Width: 221
VWidth: 952
Flags: HMW
HStem: -1 21G<58 66 97.5 107> 184 39<107.947 161.668> 201 22<47.0044 76.5623>
VStem: 18 22<156.225 194.687 223.109 249.997> 52 64<0.114574 58.8268>
LayerCount: 5
Fore
SplineSet
123 177 m 0xd8
 102 177 93 199 74 199 c 0
 53 199 45 193 40 171 c 0
 37 158 35 156 26 156 c 0
 19 156 18 159 18 166 c 2
 18 239 l 2
 18 251 21 252 29 252 c 0
 37 252 38 250 39 242 c 0
 41 231 44 224 53 224 c 0xb8
 68 224 79 246 101 246 c 0
 125 246 129 223 151 223 c 0
 168 223 178 235 180 243 c 0
 182 249 184 252 192 252 c 0
 198 252 201 252 201 241 c 0
 201 196 191 148 159 108 c 0
 135 75 122 51 118 17 c 0
 115 4 116 -1 102 -1 c 3
 97 -1 92 0 82 0 c 3
 74 0 67 -1 61 -1 c 3
 51 -1 47 2 50 14 c 0
 65 79 151 128 163 166 c 0
 166 175 170 186 157 186 c 0
 147 186 138 177 123 177 c 0xd8
EndSplineSet
EndChar

StartChar: bracketleft
Encoding: 91 91 95
Width: 313
VWidth: 768
Flags: MW
HStem: -7 33<98.3468 192.37> 170 31<100.071 185.112> 339 32<92.5667 191.566>
VStem: 19 79<34.7566 114.857> 26 65<258.5 331.177> 203 85<217.485 330.261> 205 90<37.6818 150.704>
LayerCount: 5
Fore
SplineSet
152 371 m 3xec
 234 371 288 332 288 274 c 3xec
 288 225 261 210 239 203 c 0
 225 197 218 195 218 189 c 3
 218 182 225 180 238 174 c 0
 262 163 295 144 295 94 c 3
 295 26 222 -7 154 -7 c 3
 80 -7 19 29 19 92 c 3
 19 127 47 150 75 150 c 3
 101 150 128 133 128 100 c 3
 128 54 98 61 98 42 c 3
 98 32 113 26 138 26 c 3
 206 26 205 61 205 98 c 3xf2
 205 173 161 168 117 170 c 0
 111 170 100 172 100 187 c 3
 100 198 108 201 116 201 c 0
 194 201 203 223 203 278 c 3
 203 321 190 339 143 339 c 3
 111 339 91 331 91 317 c 3
 91 298 127 303 127 260 c 3
 127 240 109 218 76 218 c 3
 49 218 26 242 26 275 c 3
 26 342 96 371 152 371 c 3xec
EndSplineSet
EndChar

StartChar: uni0004
Encoding: 4 4 96
Width: 1000
VWidth: 1024
LayerCount: 5
Back
SplineSet
109 248 m 7
 163 248 200 222 200 183 c 7
 200 129 151 137 151 126 c 7
 151 116 204 115 204 63 c 7
 204 17 156 -4 111 -4 c 7
 62 -4 20 21 20 59 c 7
 20 83 39 96 58 96 c 7
 76 96 88 85 88 66 c 7
 88 34 65 41 65 28 c 7
 65 21 78 15 100 15 c 7
 146 15 144 41 144 65 c 7
 144 111 123 110 91 113 c 4
 82 114 74 114 74 124 c 7
 74 132 81 133 90 134 c 4
 140 137 144 152 144 186 c 7
 144 214 133 229 104 229 c 7
 82 229 64 223 64 211 c 7
 64 199 88 200 88 173 c 7
 88 160 78 148 56 148 c 7
 38 148 25 164 25 186 c 7
 25 227 72 248 109 248 c 7
EndSplineSet
EndChar

StartChar: uni0006
Encoding: 6 6 97
Width: 1000
VWidth: 1024
LayerCount: 5
Back
SplineSet
46 248 m 7xd6
 61 248 78 240 106 240 c 7
 128 240 150 243 163 245 c 4
 175 247 184 244 176 231 c 4
 162 208 139 195 104 195 c 7xe6
 86 195 75 200 64 200 c 7
 57 200 52 196 52 189 c 6xd6
 50 159 l 6
 49 149 55 149 58 149 c 7
 70 149 75 159 114 159 c 7
 162 159 198 129 198 80 c 7
 198 36 164 -4 96 -4 c 7
 58 -4 20 15 20 53 c 7
 20 73 30 91 56 91 c 7
 76 91 86 78 86 58 c 7
 86 37 68 42 68 27 c 7xda
 68 17 80 15 92 15 c 7
 133 15 137 52 137 80 c 7
 137 116 128 135 87 135 c 7
 65 135 54 126 47 114 c 4
 41 104 28 105 28 117 c 7
 28 123 30 139 30 152 c 6
 32 191 l 6
 33 209 31 222 32 234 c 4
 32 244 38 248 46 248 c 7xd6
EndSplineSet
EndChar

StartChar: uni0007
Encoding: 7 7 98
Width: 1000
VWidth: 1024
LayerCount: 5
Back
SplineSet
128 127 m 7xf8
 116 127 106 122 100 116 c 4
 92 108 89 102 89 63 c 7
 89 51 88 10 128 10 c 7
 160 10 162 51 162 76 c 7
 162 103 158 127 128 127 c 7xf8
137 248 m 7
 179 248 204 227 204 194 c 7
 204 174 189 154 167 154 c 7
 155 154 136 161 136 185 c 7
 136 217 169 212 169 222 c 7xf4
 169 229 157 236 138 236 c 7
 89 236 89 192 89 158 c 7
 89 135 90 131 96 131 c 7
 104 131 115 144 146 144 c 7
 192 144 215 116 215 75 c 7
 215 29 175 -2 132 -2 c 7
 62 -2 30 59 30 121 c 7
 30 189 68 248 137 248 c 7
EndSplineSet
EndChar

StartChar: uni0008
Encoding: 8 8 99
Width: 1000
VWidth: 1024
LayerCount: 5
Back
SplineSet
175 175 m 4xbc
 167 172 157 168 147 168 c 7xdc
 117 168 110 204 78 204 c 7
 56 204 46 191 41 173 c 4
 39 165 30 163 30 174 c 4
 30 179 32 188 32 204 c 7
 32 218 31 230 31 236 c 4
 31 244 32 247 36 247 c 7xbc
 41 247 42 241 42 235 c 4
 44 226 48 226 56 228 c 4
 70 234 83 248 110 248 c 7
 154 248 154 214 180 214 c 7xdc
 196 214 204 228 206 238 c 4
 207 244 210 247 214 247 c 4
 216 247 219 246 219 240 c 7
 219 196 208 147 177 108 c 4
 148 72 141 50 136 7 c 4
 136 -1 132 0 128 0 c 7
 120 0 114 2 100 2 c 7
 87 2 76 -2 70 -2 c 7
 63 -2 64 2 64 8 c 7
 64 84 169 108 189 164 c 4
 197 184 191 183 175 175 c 4xbc
EndSplineSet
EndChar

StartChar: uni0009
Encoding: 9 9 100
Width: 1000
VWidth: 1024
LayerCount: 5
Back
SplineSet
91 108 m 7xf4
 73 108 45 89 45 62 c 7
 45 26 87 11 124 11 c 7
 165 11 176 29 176 49 c 7
 176 79 125 108 91 108 c 7xf4
127 234 m 7
 107 234 71 228 71 198 c 7
 71 167 135 146 160 146 c 7
 176 146 198 154 198 178 c 7xea
 198 214 162 234 127 234 c 7
127 248 m 7
 167 248 212 224 212 178 c 7xea
 212 146 188 137 188 129 c 7
 188 117 220 106 220 70 c 7
 220 26 182 -4 124 -4 c 7
 76 -4 30 18 30 62 c 7xf4
 30 103 64 112 64 122 c 7
 64 128 36 142 36 177 c 7
 36 227 79 248 127 248 c 7
EndSplineSet
EndChar

StartChar: Ecircumflex
Encoding: 202 202 101
Width: 304
VWidth: 2048
Flags: HMW
LayerCount: 5
Fore
SplineSet
249 260 m 0
 228 260 210 272 210 297 c 0
 210 324 228 330 228 342 c 0
 228 350 221 353 210 353 c 0
 177 353 154 334 139 300 c 0
 132 285 121 252 121 233 c 0
 121 219 125 210 137 210 c 0
 149 210 164 223 199 223 c 0
 247 223 277 182 277 135 c 0
 277 48 212 -18 138 -18 c 0
 62 -18 25 27 25 116 c 0
 25 231 92 381 212 381 c 0
 251 381 294 362 294 314 c 0
 294 285 277 260 249 260 c 0
134 10 m 0
 178 10 206 84 206 138 c 0
 206 170 196 188 168 188 c 0
 152 188 137 180 126 168 c 0
 109 149 95 91 95 57 c 0
 95 23 113 10 134 10 c 0
EndSplineSet
EndChar

StartChar: Edieresis
Encoding: 203 203 102
Width: 287
VWidth: 2048
Flags: HMW
LayerCount: 5
Fore
SplineSet
54 27 m 0
 78 76 115 130 183 189 c 0
 211 213 253 264 253 284 c 0
 253 290 251 293 246 293 c 0
 230 293 214 274 191 274 c 0
 162 274 139 309 117 309 c 0
 88 309 75 284 62 258 c 0
 57 247 55 240 43 240 c 0
 36 240 33 244 33 249 c 0
 33 262 57 350 61 367 c 0
 64 379 71 381 78 381 c 2
 79 381 l 2
 97 381 83 349 109 349 c 0
 132 349 143 376 184 376 c 0
 222 376 229 343 256 343 c 0
 270 343 281 356 287 367 c 0
 292 376 298 380 305 380 c 2
 308 380 l 2
 314 380 317 377 317 370 c 0
 317 355 305 310 297 288 c 0
 288 264 255 225 232 190 c 0
 200 140 178 84 170 28 c 0
 167 7 157 -4 146 -4 c 3
 130 -4 125 4 105 4 c 3
 85 4 85 -4 65 -4 c 3
 52 -4 50 1 50 10 c 0
 50 15 51 20 54 27 c 0
EndSplineSet
EndChar

StartChar: Igrave
Encoding: 204 204 103
Width: 366
VWidth: 2048
Flags: HMW
LayerCount: 5
Fore
SplineSet
283 153 m 0
 298 131 308 109 308 89 c 1
 309 89 l 1
 309 10.9707 231 -19 157 -19 c 0
 90.3457 -19 15 20.5 15 87 c 0
 15 123 39 154 86 179 c 0
 101 187 112 196 112 208 c 0
 112 214 110 220 107 226 c 0
 97 245 90 263 90 279 c 0
 90 346 149.624 381 214 381 c 0
 288 381 351 337 351 279 c 0
 351 245 333 218 296 196 c 0
 285 189 276 182 276 175 c 0
 276 167 278 160 283 153 c 0
305 282 m 0
 305 326 269 352 226 352 c 0
 197 352 159 341.5 159 306 c 0
 159 295 164 283 170 273 c 0
 177.385 258.229 208.5 209 246 209 c 0
 274.344 209 305 249.5 305 282 c 0
137 166 m 0
 101.407 166 64 122.389 64 87 c 0
 64 38 110 10 161 10 c 0
 206 10 236 30 236 67.5 c 0
 236 96 176.808 166 137 166 c 0
EndSplineSet
EndChar

StartChar: Iacute
Encoding: 205 205 104
Width: 299
VWidth: 2048
Flags: HMW
LayerCount: 5
Fore
SplineSet
60 103 m 0
 81 103 99 91 99 66 c 0
 99 39 81 33 81 21 c 0
 81 13 88 10 99 10 c 0
 132 10 155 29 170 63 c 0
 177 78 188 111 188 130 c 0
 188 144 184 153 172 153 c 0
 160 153 145 140 110 140 c 0
 62 140 32 181 32 228 c 0
 32 315 97 381 171 381 c 0
 247 381 284 336 284 247 c 0
 284 132 217 -18 97 -18 c 0
 58 -18 15 1 15 49 c 0
 15 78 32 103 60 103 c 0
175 353 m 0
 131 353 103 279 103 225 c 0
 103 193 113 175 141 175 c 0
 157 175 172 183 183 195 c 0
 200 214 214 272 214 306 c 0
 214 340 196 353 175 353 c 0
EndSplineSet
EndChar

StartChar: Ograve
Encoding: 210 210 109
Width: 782
VWidth: 0
Flags: HMW
LayerCount: 5
Fore
SplineSet
391 169 m 3
 96 169 29 0 9 0 c 3
 4 0 0 1 0 12 c 3
 0 50 161 222 391 222 c 3
 621 222 782 50 782 12 c 3
 782 1 778 0 773 0 c 3
 753 0 686 169 391 169 c 3
EndSplineSet
EndChar

StartChar: Oacute
Encoding: 211 211 110
Width: 782
VWidth: 0
Flags: HMW
LayerCount: 5
Fore
SplineSet
391 -169 m 3
 686 -169 753 0 773 0 c 3
 778 0 782 -1 782 -12 c 3
 782 -50 621 -222 391 -222 c 3
 161 -222 0 -50 0 -12 c 3
 0 -1 4 0 9 0 c 3
 29 0 96 -169 391 -169 c 3
EndSplineSet
EndChar

StartChar: Ocircumflex
Encoding: 212 212 111
Width: 782
VWidth: 2048
Flags: HMW
LayerCount: 5
Fore
SplineSet
519 284 m 0
 519 270 516 257 511 247 c 0
 480 186 391 180 329 141 c 0
 276.804 109 310.038 105.856 333.5 95.7568 c 0
 369.333 80.333 386.189 57 414 57 c 0
 444.333 57 453.333 74.333 467 97 c 0
 472.163 105.564 477 109 483 109 c 0
 489 109 491 106 491 100 c 0
 491 84 473 50 452 26 c 0
 433 4 408 -13 373 -13 c 0
 333 -13 307 49 269 49 c 0
 258 49 247 44 238 33 c 0
 227 19 224 0 212 0 c 0
 205 0 201 5 201 14 c 0
 201 81 258 140 360 189 c 0
 412 214 451 242 451 305 c 0
 451 338 424 356 391 356 c 0
 362 356 329 338 329 314 c 0
 329 295 356 294 356 264 c 0
 356 242 336 227 314 227 c 0
 288 227 274 250 274 276 c 0
 274 334 329 382 401 382 c 0
 464 382 519 350 519 284 c 0
391 529 m 3
 96 529 29 360 9 360 c 3
 4 360 0 361 0 372 c 3
 0 410 161 582 391 582 c 3
 621 582 782 410 782 372 c 3
 782 361 778 360 773 360 c 3
 753 360 686 529 391 529 c 3
EndSplineSet
EndChar

StartChar: Otilde
Encoding: 213 213 112
Width: 782
VWidth: 2048
Flags: HMW
LayerCount: 5
Fore
SplineSet
245 118 m 3
 270.416 118 286 100.542 286 76 c 3
 286 50.5 260 44.5068 260 28 c 3
 260 15 270 9 291 9 c 3
 350.954 9 380 72.3115 380 132 c 3
 380 159.854 354.806 177 329 177 c 3
 314.544 177 303 177.746 303 189 c 3
 303 203.718 313.283 207 328 207 c 3
 393.881 207 439 233.773 439 302 c 3
 439 334.635 422.901 358 392 358 c 3
 370.574 358 352 351.965 352 334 c 3
 352 317.871 367 307.89 367 292 c 3
 367 268.38 349.675 255 329 255 c 3
 305.25 255 293 271.315 293 294 c 3
 293 345.572 343.031 382 398 382 c 3
 458.327 382 509 352.359 509 293 c 3
 509 250 483 217 432 193 c 0
 423 189 419 184 419 179 c 3
 419 175 422 169 427 164 c 0
 445 146 454 124 454 98 c 3
 454 75.9941 443.67 56.9248 432.5 41.5 c 0
 401 -2 352.977 -19 302 -19 c 3
 244.394 -19 197 9.41699 197 67 c 3
 197 95.3428 216.854 118 245 118 c 3
391 529 m 3
 96 529 29 360 9 360 c 3
 4 360 0 361 0 372 c 3
 0 410 161 582 391 582 c 3
 621 582 782 410 782 372 c 3
 782 361 778 360 773 360 c 3
 753 360 686 529 391 529 c 3
EndSplineSet
EndChar

StartChar: Odieresis
Encoding: 214 214 113
Width: 782
VWidth: 2048
Flags: HMW
LayerCount: 5
Fore
SplineSet
483 272 m 2
 449 158 l 2
 449 156 448 154 448 153 c 0
 448 143 455 137 465 137 c 2
 494 137 l 2
 506 137 512 133 512 126 c 0
 512 114 503 106 492 106 c 2
 458 106 l 2
 442 106 431 99 427 85 c 2
 419 56 l 2
 417 51 416 46 416 42 c 0
 416 34 420 28 433 27 c 2
 454 26 l 2
 466 25 472 22 472 16 c 0
 472 5 464 0 451 0 c 2
 281 0 l 2
 275 0 271 3 271 8 c 0
 271 10 272 12 272 14 c 0
 275 21 283 26 297 27 c 0
 325 29 335 31 346 66 c 2
 353 88 l 2
 354 90 354 93 354 95 c 0
 354 102 348 106 336 106 c 2
 215 106 l 2
 205 106 200 110 200 117 c 0
 200 131 206 137 221 150 c 0
 282.507 206.381 331.321 299.634 354 362 c 0
 359 375 365 381 374 381 c 3
 394 381 400 372 420 372 c 3
 442 372 449 381 468 381 c 27
 474 381 479 378 479 371 c 3
 479 360 454 329 403 277 c 0
 370 244 333 210 292 176 c 2
 281 167 l 2
 270 158 265 151 265 146 c 0
 265 140 273 137 289 137 c 2
 341 137 l 2
 362 137 369 143 374 161 c 2
 386 200 l 2
 392 218 403 227 413 237 c 2
 457 280 l 2
 463 286 470 290 476 290 c 3
 480 290 484 287 484 280 c 0
 484 278 484 275 483 272 c 2
391 529 m 3
 96 529 29 360 9 360 c 3
 4 360 0 361 0 372 c 3
 0 410 161 582 391 582 c 3
 621 582 782 410 782 372 c 3
 782 361 778 360 773 360 c 3
 753 360 686 529 391 529 c 3
EndSplineSet
EndChar

StartChar: multiply
Encoding: 215 215 114
Width: 782
VWidth: 2048
Flags: HMW
LayerCount: 5
Fore
SplineSet
261 121 m 3
 283 121 298 105 298 81 c 3
 298 51 268 43 268 24 c 3
 268 13 278 8 302 8 c 0
 319 8 335 14 350 26 c 0
 374 46 408 104 408 144 c 0
 408 179 392 195 359 195 c 0
 309 195 295 161 262 161 c 0
 254 161 251 166 251 171 c 0
 251 178 254 185 256 190 c 2
 316 365 l 2
 318 373 324 377 333 377 c 0
 341 377 365 371 394 371 c 0
 431 371 466 375 490 381 c 0
 496 382 502 383 506 383 c 3
 514 383 516 380 516 373 c 3
 516 369 514 365 510 359 c 0
 488 327 433 302 392 302 c 0
 368 302 362 304 346 304 c 0
 330 304 322 298 316 282 c 2
 304 247 l 2
 302 242 301 237 301 233 c 0
 301 225 305 219 315 219 c 3
 332 219 342 230 381 230 c 3
 442 230 478 193 478 134 c 0
 478 46 401 -18 313 -18 c 0
 254 -18 212 8 212 66 c 3
 212 98 229 121 261 121 c 3
391 529 m 3
 96 529 29 360 9 360 c 3
 4 360 0 361 0 372 c 3
 0 410 161 582 391 582 c 3
 621 582 782 410 782 372 c 3
 782 361 778 360 773 360 c 3
 753 360 686 529 391 529 c 3
EndSplineSet
EndChar

StartChar: Oslash
Encoding: 216 216 115
Width: 782
VWidth: 2048
Flags: HMW
LayerCount: 5
Fore
SplineSet
462 260 m 0
 441 260 423 272 423 297 c 0
 423 324 441 330 441 342 c 0
 441 350 434 353 423 353 c 0
 390 353 367 334 352 300 c 0
 345 285 334 252 334 233 c 0
 334 219 338 210 350 210 c 0
 362 210 377 223 412 223 c 0
 460 223 490 182 490 135 c 0
 490 48 425 -18 351 -18 c 0
 275 -18 238 27 238 116 c 0
 238 231 305 381 425 381 c 0
 464 381 507 362 507 314 c 0
 507 285 490 260 462 260 c 0
347 10 m 0
 391 10 419 84 419 138 c 0
 419 170 409 188 381 188 c 0
 365 188 350 180 339 168 c 0
 322 149 308 91 308 57 c 0
 308 23 326 10 347 10 c 0
391 529 m 3
 96 529 29 360 9 360 c 3
 4 360 0 361 0 372 c 3
 0 410 161 582 391 582 c 3
 621 582 782 410 782 372 c 3
 782 361 778 360 773 360 c 3
 753 360 686 529 391 529 c 3
EndSplineSet
EndChar

StartChar: Ugrave
Encoding: 217 217 116
Width: 782
VWidth: 2048
Flags: HMW
LayerCount: 5
Fore
SplineSet
276 27 m 0
 300 76 337 130 405 189 c 0
 433 213 475 264 475 284 c 0
 475 290 473 293 468 293 c 0
 452 293 436 274 413 274 c 0
 384 274 361 309 339 309 c 0
 310 309 297 284 284 258 c 0
 279 247 277 240 265 240 c 0
 258 240 255 244 255 249 c 0
 255 262 279 350 283 367 c 0
 286 379 293 381 300 381 c 2
 301 381 l 2
 319 381 305 349 331 349 c 0
 354 349 365 376 406 376 c 0
 444 376 451 343 478 343 c 0
 492 343 503 356 509 367 c 0
 514 376 520 380 527 380 c 2
 530 380 l 2
 536 380 539 377 539 370 c 0
 539 355 527 310 519 288 c 0
 510 264 477 225 454 190 c 0
 422 140 400 84 392 28 c 0
 389 7 379 -4 368 -4 c 3
 352 -4 347 4 327 4 c 3
 307 4 307 -4 287 -4 c 3
 274 -4 272 1 272 10 c 0
 272 15 273 20 276 27 c 0
391 529 m 3
 96 529 29 360 9 360 c 3
 4 360 0 361 0 372 c 3
 0 410 161 582 391 582 c 3
 621 582 782 410 782 372 c 3
 782 361 778 360 773 360 c 3
 753 360 686 529 391 529 c 3
EndSplineSet
EndChar

StartChar: Uacute
Encoding: 218 218 117
Width: 782
VWidth: 2048
Flags: HMW
LayerCount: 5
Fore
SplineSet
475 153 m 0
 490 131 500 109 500 89 c 1
 501 89 l 1
 501 10.9707 423 -19 349 -19 c 0
 282.346 -19 207 20.5 207 87 c 0
 207 123 231 154 278 179 c 0
 293 187 304 196 304 208 c 0
 304 214 302 220 299 226 c 0
 289 245 282 263 282 279 c 0
 282 346 341.624 381 406 381 c 0
 480 381 543 337 543 279 c 0
 543 245 525 218 488 196 c 0
 477 189 468 182 468 175 c 0
 468 167 470 160 475 153 c 0
497 282 m 0
 497 326 461 352 418 352 c 0
 389 352 351 341.5 351 306 c 0
 351 295 356 283 362 273 c 0
 369.385 258.229 400.5 209 438 209 c 0
 466.344 209 497 249.5 497 282 c 0
329 166 m 0
 293.407 166 256 122.389 256 87 c 0
 256 38 302 10 353 10 c 0
 398 10 428 30 428 67.5 c 0
 428 96 368.808 166 329 166 c 0
391 529 m 3
 96 529 29 360 9 360 c 3
 4 360 0 361 0 372 c 3
 0 410 161 582 391 582 c 3
 621 582 782 410 782 372 c 3
 782 361 778 360 773 360 c 3
 753 360 686 529 391 529 c 3
EndSplineSet
EndChar

StartChar: Ucircumflex
Encoding: 219 219 118
Width: 782
VWidth: 2048
Flags: HMW
LayerCount: 5
Fore
SplineSet
300 103 m 0
 321 103 339 91 339 66 c 0
 339 39 321 33 321 21 c 0
 321 13 328 10 339 10 c 0
 372 10 395 29 410 63 c 0
 417 78 428 111 428 130 c 0
 428 144 424 153 412 153 c 0
 400 153 385 140 350 140 c 0
 302 140 272 181 272 228 c 0
 272 315 337 381 411 381 c 0
 487 381 524 336 524 247 c 0
 524 132 457 -18 337 -18 c 0
 298 -18 255 1 255 49 c 0
 255 78 272 103 300 103 c 0
415 353 m 0
 371 353 343 279 343 225 c 0
 343 193 353 175 381 175 c 0
 397 175 412 183 423 195 c 0
 440 214 454 272 454 306 c 0
 454 340 436 353 415 353 c 0
391 529 m 3
 96 529 29 360 9 360 c 3
 4 360 0 361 0 372 c 3
 0 410 161 582 391 582 c 3
 621 582 782 410 782 372 c 3
 782 361 778 360 773 360 c 3
 753 360 686 529 391 529 c 3
EndSplineSet
EndChar

StartChar: Udieresis
Encoding: 220 220 119
Width: 782
VWidth: 2048
Flags: HMW
LayerCount: 5
Fore
SplineSet
563 284 m 0
 563 270 560 257 555 247 c 0
 524 186 435 180 373 141 c 0
 320.804 109 354.038 105.856 377.5 95.7568 c 0
 413.333 80.333 430.189 57 458 57 c 0
 488.333 57 497.333 74.333 511 97 c 0
 516.163 105.564 521 109 527 109 c 0
 533 109 535 106 535 100 c 0
 535 84 517 50 496 26 c 0
 477 4 452 -13 417 -13 c 0
 377 -13 351 49 313 49 c 0
 302 49 291 44 282 33 c 0
 271 19 268 0 256 0 c 0
 249 0 245 5 245 14 c 0
 245 81 302 140 404 189 c 0
 456 214 495 242 495 305 c 0
 495 338 468 356 435 356 c 0
 406 356 373 338 373 314 c 0
 373 295 400 294 400 264 c 0
 400 242 380 227 358 227 c 0
 332 227 318 250 318 276 c 0
 318 334 373 382 445 382 c 0
 508 382 563 350 563 284 c 0
391 -177 m 3
 686 -177 753 -8 773 -8 c 3
 778 -8 782 -9 782 -20 c 3
 782 -58 621 -230 391 -230 c 3
 161 -230 0 -58 0 -20 c 3
 0 -9 4 -8 9 -8 c 3
 29 -8 96 -177 391 -177 c 3
EndSplineSet
EndChar

StartChar: Yacute
Encoding: 221 221 120
Width: 782
VWidth: 2048
Flags: HMW
LayerCount: 5
Fore
SplineSet
311 118 m 3
 336.416 118 352 100.542 352 76 c 3
 352 50.5 326 44.5068 326 28 c 3
 326 15 336 9 357 9 c 3
 416.954 9 446 72.3115 446 132 c 3
 446 159.854 420.806 177 395 177 c 3
 380.544 177 369 177.746 369 189 c 3
 369 203.718 379.283 207 394 207 c 3
 459.881 207 505 233.773 505 302 c 3
 505 334.635 488.901 358 458 358 c 3
 436.574 358 418 351.965 418 334 c 3
 418 317.871 433 307.89 433 292 c 3
 433 268.38 415.675 255 395 255 c 3
 371.25 255 359 271.315 359 294 c 3
 359 345.572 409.031 382 464 382 c 3
 524.327 382 575 352.359 575 293 c 3
 575 250 549 217 498 193 c 0
 489 189 485 184 485 179 c 3
 485 175 488 169 493 164 c 0
 511 146 520 124 520 98 c 3
 520 75.9941 509.67 56.9248 498.5 41.5 c 0
 467 -2 418.977 -19 368 -19 c 3
 310.394 -19 263 9.41699 263 67 c 3
 263 95.3428 282.854 118 311 118 c 3
391 -177 m 3
 686 -177 753 -8 773 -8 c 3
 778 -8 782 -9 782 -20 c 3
 782 -58 621 -230 391 -230 c 3
 161 -230 0 -58 0 -20 c 3
 0 -9 4 -8 9 -8 c 3
 29 -8 96 -177 391 -177 c 3
EndSplineSet
EndChar

StartChar: Thorn
Encoding: 222 222 121
Width: 782
VWidth: 2048
Flags: HMW
LayerCount: 5
Fore
SplineSet
522 272 m 2
 488 158 l 2
 488 156 487 154 487 153 c 0
 487 143 494 137 504 137 c 2
 533 137 l 2
 545 137 551 133 551 126 c 0
 551 114 542 106 531 106 c 2
 497 106 l 2
 481 106 470 99 466 85 c 2
 458 56 l 2
 456 51 455 46 455 42 c 0
 455 34 459 28 472 27 c 2
 493 26 l 2
 505 25 511 22 511 16 c 0
 511 5 503 0 490 0 c 2
 320 0 l 2
 314 0 310 3 310 8 c 0
 310 10 311 12 311 14 c 0
 314 21 322 26 336 27 c 0
 364 29 374 31 385 66 c 2
 392 88 l 2
 393 90 393 93 393 95 c 0
 393 102 387 106 375 106 c 2
 254 106 l 2
 244 106 239 110 239 117 c 0
 239 131 245 137 260 150 c 0
 321.507 206.381 370.321 299.634 393 362 c 0
 398 375 404 381 413 381 c 3
 433 381 439 372 459 372 c 3
 481 372 488 381 507 381 c 27
 513 381 518 378 518 371 c 3
 518 360 493 329 442 277 c 0
 409 244 372 210 331 176 c 2
 320 167 l 2
 309 158 304 151 304 146 c 0
 304 140 312 137 328 137 c 2
 380 137 l 2
 401 137 408 143 413 161 c 2
 425 200 l 2
 431 218 442 227 452 237 c 2
 496 280 l 2
 502 286 509 290 515 290 c 3
 519 290 523 287 523 280 c 0
 523 278 523 275 522 272 c 2
391 -177 m 3
 686 -177 753 -8 773 -8 c 3
 778 -8 782 -9 782 -20 c 3
 782 -58 621 -230 391 -230 c 3
 161 -230 0 -58 0 -20 c 3
 0 -9 4 -8 9 -8 c 3
 29 -8 96 -177 391 -177 c 3
EndSplineSet
EndChar

StartChar: germandbls
Encoding: 223 223 122
Width: 782
VWidth: 2048
Flags: HMW
LayerCount: 5
Fore
SplineSet
318 121 m 3
 340 121 355 105 355 81 c 3
 355 51 325 43 325 24 c 3
 325 13 335 8 359 8 c 0
 376 8 392 14 407 26 c 0
 431 46 465 104 465 144 c 0
 465 179 449 195 416 195 c 0
 366 195 352 161 319 161 c 0
 311 161 308 166 308 171 c 0
 308 178 311 185 313 190 c 2
 373 365 l 2
 375 373 381 377 390 377 c 0
 398 377 422 371 451 371 c 0
 488 371 523 375 547 381 c 0
 553 382 559 383 563 383 c 3
 571 383 573 380 573 373 c 3
 573 369 571 365 567 359 c 0
 545 327 490 302 449 302 c 0
 425 302 419 304 403 304 c 0
 387 304 379 298 373 282 c 2
 361 247 l 2
 359 242 358 237 358 233 c 0
 358 225 362 219 372 219 c 3
 389 219 399 230 438 230 c 3
 499 230 535 193 535 134 c 0
 535 46 458 -18 370 -18 c 0
 311 -18 269 8 269 66 c 3
 269 98 286 121 318 121 c 3
391 -177 m 3
 686 -177 753 -8 773 -8 c 3
 778 -8 782 -9 782 -20 c 3
 782 -58 621 -230 391 -230 c 3
 161 -230 0 -58 0 -20 c 3
 0 -9 4 -8 9 -8 c 3
 29 -8 96 -177 391 -177 c 3
EndSplineSet
EndChar

StartChar: agrave
Encoding: 224 224 123
Width: 782
VWidth: 2048
Flags: HMW
LayerCount: 5
Fore
SplineSet
498 260 m 0
 477 260 459 272 459 297 c 0
 459 324 477 330 477 342 c 0
 477 350 470 353 459 353 c 0
 426 353 403 334 388 300 c 0
 381 285 370 252 370 233 c 0
 370 219 374 210 386 210 c 0
 398 210 413 223 448 223 c 0
 496 223 526 182 526 135 c 0
 526 48 461 -18 387 -18 c 0
 311 -18 274 27 274 116 c 0
 274 231 341 381 461 381 c 0
 500 381 543 362 543 314 c 0
 543 285 526 260 498 260 c 0
383 10 m 0
 427 10 455 84 455 138 c 0
 455 170 445 188 417 188 c 0
 401 188 386 180 375 168 c 0
 358 149 344 91 344 57 c 0
 344 23 362 10 383 10 c 0
391 -177 m 3
 686 -177 753 -8 773 -8 c 3
 778 -8 782 -9 782 -20 c 3
 782 -58 621 -230 391 -230 c 3
 161 -230 0 -58 0 -20 c 3
 0 -9 4 -8 9 -8 c 3
 29 -8 96 -177 391 -177 c 3
EndSplineSet
EndChar

StartChar: aacute
Encoding: 225 225 124
Width: 782
VWidth: 2048
Flags: HMW
LayerCount: 5
Fore
SplineSet
315 27 m 0
 339 76 376 130 444 189 c 0
 472 213 514 264 514 284 c 0
 514 290 512 293 507 293 c 0
 491 293 475 274 452 274 c 0
 423 274 400 309 378 309 c 0
 349 309 336 284 323 258 c 0
 318 247 316 240 304 240 c 0
 297 240 294 244 294 249 c 0
 294 262 318 350 322 367 c 0
 325 379 332 381 339 381 c 2
 340 381 l 2
 358 381 344 349 370 349 c 0
 393 349 404 376 445 376 c 0
 483 376 490 343 517 343 c 0
 531 343 542 356 548 367 c 0
 553 376 559 380 566 380 c 2
 569 380 l 2
 575 380 578 377 578 370 c 0
 578 355 566 310 558 288 c 0
 549 264 516 225 493 190 c 0
 461 140 439 84 431 28 c 0
 428 7 418 -4 407 -4 c 3
 391 -4 386 4 366 4 c 3
 346 4 346 -4 326 -4 c 3
 313 -4 311 1 311 10 c 0
 311 15 312 20 315 27 c 0
391 -177 m 3
 686 -177 753 -8 773 -8 c 3
 778 -8 782 -9 782 -20 c 3
 782 -58 621 -230 391 -230 c 3
 161 -230 0 -58 0 -20 c 3
 0 -9 4 -8 9 -8 c 3
 29 -8 96 -177 391 -177 c 3
EndSplineSet
EndChar

StartChar: atilde
Encoding: 227 227 125
Width: 782
VWidth: 2048
Flags: HMW
LayerCount: 5
Fore
SplineSet
321 103 m 0
 342 103 360 91 360 66 c 0
 360 39 342 33 342 21 c 0
 342 13 349 10 360 10 c 0
 393 10 416 29 431 63 c 0
 438 78 449 111 449 130 c 0
 449 144 445 153 433 153 c 0
 421 153 406 140 371 140 c 0
 323 140 293 181 293 228 c 0
 293 315 358 381 432 381 c 0
 508 381 545 336 545 247 c 0
 545 132 478 -18 358 -18 c 0
 319 -18 276 1 276 49 c 0
 276 78 293 103 321 103 c 0
436 353 m 0
 392 353 364 279 364 225 c 0
 364 193 374 175 402 175 c 0
 418 175 433 183 444 195 c 0
 461 214 475 272 475 306 c 0
 475 340 457 353 436 353 c 0
391 -177 m 3
 686 -177 753 -8 773 -8 c 3
 778 -8 782 -9 782 -20 c 3
 782 -58 621 -230 391 -230 c 3
 161 -230 0 -58 0 -20 c 3
 0 -9 4 -8 9 -8 c 3
 29 -8 96 -177 391 -177 c 3
EndSplineSet
EndChar

StartChar: copyright
Encoding: 169 169 126
Width: 514
Flags: HMW
LayerCount: 5
Fore
SplineSet
0 162 m 0
 0 304 115 419 257 419 c 0
 399 419 514 304 514 162 c 0
 514 20 399 -95 257 -95 c 4
 115 -95 0 20 0 162 c 0
29 162 m 0
 29 36 131 -66 257 -66 c 0
 383 -66 485 36 485 162 c 0
 485 288 383 390 257 390 c 0
 131 390 29 288 29 162 c 0
284 326 m 2
 294 326 301 322 301 307 c 2
 301 51 l 2
 301 31 304 29 327 27 c 0
 339 26 341 22 341 14 c 0
 341 3 336 0 319 0 c 2
 210 0 l 2
 188 0 186 4 186 14 c 0
 186 20 187 25 198 26 c 0
 229 29 230 30 230 75 c 2
 230 182 l 2
 230 194 230 206 224 206 c 0
 217 206 217 202 183 161 c 0
 179 156 172 153 168 153 c 0
 160 153 159 157 159 160 c 0
 159 162 161 167 162 170 c 0
 182 215 207 262 222 298 c 0
 233 325 243 326 254 326 c 2
 284 326 l 2
EndSplineSet
EndChar

StartChar: ordfeminine
Encoding: 170 170 127
Width: 514
Flags: HMW
LayerCount: 5
Fore
SplineSet
0 162 m 0
 0 304 115 419 257 419 c 0
 399 419 514 304 514 162 c 0
 514 20 399 -95 257 -95 c 0
 115 -95 0 20 0 162 c 0
29 162 m 0
 29 36 131 -66 257 -66 c 0
 383 -66 485 36 485 162 c 0
 485 288 383 390 257 390 c 0
 131 390 29 288 29 162 c 0
267 334 m 0
 339 334 392 290 392 236 c 0
 392 174 308 151 276 140 c 0
 261 135 214 122 214 101 c 0
 214 95 224 93 239 91 c 0
 278 85 288 70 318 70 c 0
 346 70 358 82 369 114 c 0
 373 126 373 138 380 138 c 0
 388 138 390 134 390 120 c 0
 391 64 353 1 305 1 c 0
 250 1 250 48 200 48 c 0
 178 48 162 31 155 14 c 0
 150 2 145 0 139 0 c 0
 136 0 132 2 132 19 c 0
 132 74 188 132 238 161 c 0
 289 190 313 203 313 244 c 0
 313 283 300 308 245 308 c 0
 228 308 202 298 202 284 c 0
 202 265 224 263 224 235 c 0
 224 214 213 194 185 194 c 0
 151 194 140 217 140 242 c 0
 140 289 187 334 267 334 c 0
EndSplineSet
EndChar

StartChar: guillemotleft
Encoding: 171 171 128
Width: 514
Flags: HMW
LayerCount: 5
Fore
SplineSet
0 162 m 0
 0 304 115 419 257 419 c 0
 399 419 514 304 514 162 c 0
 514 20 399 -95 257 -95 c 0
 115 -95 0 20 0 162 c 0
29 162 m 0
 29 36 131 -66 257 -66 c 0
 383 -66 485 36 485 162 c 0
 485 288 383 390 257 390 c 0
 131 390 29 288 29 162 c 0
254 326 m 0
 326 326 375 283 375 241 c 0
 375 171 314 182 314 165 c 0
 314 150 380 149 380 85 c 0
 380 30 317 -7 257 -7 c 0
 197 -7 137 21 137 77 c 0
 137 108 158 120 183 120 c 0
 206 120 219 106 219 82 c 0
 219 59 204 53 204 40 c 0
 204 32 211 22 243 22 c 0
 295 22 304 55 304 90 c 0
 304 148 256 144 229 146 c 0
 212 148 205 150 205 162 c 0
 205 172 212 175 220 176 c 0
 296 180 300 212 300 244 c 0
 300 282 285 299 251 299 c 0
 222 299 206 291 206 278 c 0
 206 262 223 257 223 236 c 0
 223 218 213 199 184 199 c 0
 161 199 144 213 144 242 c 0
 144 296 205 326 254 326 c 0
EndSplineSet
EndChar

StartChar: logicalnot
Encoding: 172 172 129
Width: 514
Flags: HMW
LayerCount: 5
Fore
SplineSet
0 162 m 0
 0 304 115 419 257 419 c 0
 399 419 514 304 514 162 c 0
 514 20 399 -95 257 -95 c 0
 115 -95 0 20 0 162 c 0
29 162 m 0
 29 36 131 -66 257 -66 c 0
 383 -66 485 36 485 162 c 0
 485 288 383 390 257 390 c 0
 131 390 29 288 29 162 c 0
249 59 m 2
 249 77 247 84 227 84 c 2
 130 84 l 2
 111 84 111 91 111 96 c 0
 111 102 113 106 124 127 c 0
 154 182 173 216 194 279 c 0
 210 327 210 330 234 330 c 2
 290 330 l 2
 303 330 310 328 310 319 c 0
 310 301 291 273 231 214 c 0
 180 164 158 136 158 123 c 0
 158 117 158 114 180 114 c 2
 220 114 l 2
 238 114 247 117 248 126 c 0
 248 133 249 163 250 174 c 0
 251 186 249 201 258 207 c 0
 306 237 310 243 318 243 c 0
 325 243 327 239 327 226 c 0
 327 210 324 181 324 127 c 0
 324 116 328 115 337 115 c 2
 366 115 l 2
 384 115 386 110 386 100 c 2
 386 98 l 2
 386 90 384 84 359 84 c 2
 347 84 l 2
 329 84 324 82 324 54 c 2
 324 48 l 2
 324 24 326 28 356 26 c 0
 367 25 367 18 367 13 c 0
 367 0 363 0 345 0 c 0
 324 0 297 1 285 1 c 0
 265 1 251 0 231 0 c 0
 209 0 207 -1 207 14 c 0
 207 18 208 24 219 25 c 0
 246 27 249 22 249 48 c 2
 249 59 l 2
EndSplineSet
EndChar

StartChar: uni00AD
Encoding: 173 173 130
Width: 514
Flags: MW
HStem: -95 29<179.564 334.436> -12 23<212.037 278.662> 172 32<193.068 283.98> 250 63<196.144 338.168> 259 62<178.476 278.048> 390 29<179.564 334.436>
VStem: 0 29<84.5635 239.436> 147 62<13.1032 91.6452> 161 22<188.002 257.173> 300 81<36.602 160.759> 485 29<84.5635 239.436>
LayerCount: 5
Fore
SplineSet
0 162 m 0xe660
 0 304 115 419 257 419 c 0
 399 419 514 304 514 162 c 0
 514 20 399 -95 257 -95 c 0
 115 -95 0 20 0 162 c 0xe660
29 162 m 0
 29 36 131 -66 257 -66 c 0
 383 -66 485 36 485 162 c 0
 485 288 383 390 257 390 c 0
 131 390 29 288 29 162 c 0
186 321 m 0xeee0
 206 321 222 313 290 313 c 0
 319 313 335 320 347 320 c 0
 352 320 356 318 356 311 c 0
 356 307 355 299 342 284 c 0
 323 262 300 250 270 250 c 0xf6e0
 254 250 233 259 204 259 c 0
 191 259 187 254 186 238 c 0
 185 223 183 213 183 205 c 0xeee0
 183 191 187 188 190 188 c 0
 207 188 220 204 273 204 c 0
 333 204 381 166 381 94 c 0
 381 46 336 -12 247 -12 c 0
 197 -12 147 10 147 64 c 0
 147 91 161 113 190 113 c 0
 217 113 226 96 226 77 c 0
 226 48 209 49 209 31 c 0xef60
 209 14 232 11 247 11 c 0
 297 11 300 65 300 101 c 0
 300 148 282 172 240 172 c 0
 205 172 193 157 183 145 c 0
 176 137 170 135 163 135 c 0
 159 135 154 137 154 151 c 0
 154 166 161 209 161 285 c 2
 161 296 l 2
 161 316 171 321 186 321 c 0xeee0
EndSplineSet
EndChar

StartChar: registered
Encoding: 174 174 131
Width: 514
Flags: HMW
LayerCount: 5
Fore
SplineSet
0 162 m 0
 0 304 115 419 257 419 c 0
 399 419 514 304 514 162 c 0
 514 20 399 -95 257 -95 c 0
 115 -95 0 20 0 162 c 0
29 162 m 0
 29 36 131 -66 257 -66 c 0
 383 -66 485 36 485 162 c 0
 485 288 383 390 257 390 c 0
 131 390 29 288 29 162 c 0
258 159 m 0
 241 159 230 153 222 146 c 0
 209 136 206 111 206 80 c 0
 206 62 208 19 258 19 c 0
 297 19 304 64 304 97 c 0
 304 133 298 159 258 159 c 0
270 325 m 0
 328 325 359 293 359 263 c 0
 359 233 342 213 320 213 c 0
 302 213 283 219 283 245 c 0
 283 267 301 274 301 287 c 0
 301 295 294 302 270 302 c 0
 209 302 207 250 207 211 c 0
 207 181 214 178 221 178 c 0
 231 178 243 188 281 188 c 0
 341 188 373 153 373 91 c 0
 373 38 320 -6 263 -6 c 0
 171 -6 130 75 130 156 c 0
 130 246 179 325 270 325 c 0
EndSplineSet
EndChar

StartChar: macron
Encoding: 175 175 132
Width: 514
Flags: HMW
LayerCount: 5
Fore
SplineSet
0 162 m 0
 0 304 115 419 257 419 c 0
 399 419 514 304 514 162 c 0
 514 20 399 -95 257 -95 c 0
 115 -95 0 20 0 162 c 0
29 162 m 0
 29 36 131 -66 257 -66 c 0
 383 -66 485 36 485 162 c 0
 485 288 383 390 257 390 c 0
 131 390 29 288 29 162 c 0
327 210 m 0
 324 210 323 208 311 208 c 0
 307 207 302 207 295 207 c 0
 256 207 237 253 201 253 c 0
 177 253 168 237 163 221 c 0
 158 207 154 204 147 204 c 0
 142 204 138 208 138 216 c 0
 138 223 139 233 139 254 c 0
 139 273 138 285 138 294 c 0
 138 305 141 310 149 310 c 0
 163 310 158 294 171 294 c 0
 194 294 200 312 243 312 c 0
 301 312 298 270 332 270 c 0
 353 270 356 286 360 300 c 0
 363 309 367 313 376 313 c 0
 385 313 386 305 386 300 c 0
 386 242 372 178 331 126 c 0
 298 84 287 57 280 13 c 0
 277 -2 275 -17 259 -17 c 0
 249 -17 248 -15 230 -15 c 0
 213 -15 202 -18 193 -18 c 0
 184 -18 181 -14 181 -5 c 0
 181 51 240 104 296 154 c 0
 302 160 315 173 324 186 c 0
 329 193 333 200 333 204 c 0
 333 208 331 210 327 210 c 0
EndSplineSet
EndChar

StartChar: uni00B2
Encoding: 178 178 133
Width: 514
Flags: MW
HStem: -95 29<179.564 334.436> 32 23<96.1035 128.583 189.319 219.831 311.737 360.176> 276 23<311.737 360.176> 390 29<179.564 334.436>
VStem: 0 29<84.5635 239.436> 131 57<58.0605 197.997> 232 60<75.4893 255.931> 379 61<75.4893 255.931> 485 29<84.5635 239.436>
LayerCount: 5
Fore
SplineSet
336 276 m 0
 295 276 292 220 292 166 c 0
 292 112 295 55 336 55 c 0
 377 55 379 112 379 166 c 0
 379 220 377 276 336 276 c 0
336 299 m 0
 412 299 440 236 440 166 c 0
 440 96 412 32 336 32 c 0
 260 32 232 96 232 166 c 0
 232 236 260 299 336 299 c 0
175 298 m 2
 183 298 188 293 188 280 c 2
 188 77 l 2
 188 61 192 60 210 58 c 0
 220 57 220 53 220 47 c 0
 220 38 218 36 208 36 c 2
 107 36 l 2
 98 36 96 38 96 46 c 0
 96 51 97 56 106 57 c 0
 130 60 131 60 131 96 c 2
 131 178 l 2
 131 194 129 198 125 198 c 0
 121 198 120 199 93 166 c 0
 89 161 85 158 81 158 c 0
 75 158 75 162 75 165 c 0
 75 167 76 170 77 173 c 0
 93 209 112 247 125 276 c 0
 134 298 144 298 153 298 c 2
 175 298 l 2
0 162 m 0
 0 304 115 419 257 419 c 0
 399 419 514 304 514 162 c 0
 514 20 399 -95 257 -95 c 0
 115 -95 0 20 0 162 c 0
29 162 m 0
 29 36 131 -66 257 -66 c 0
 383 -66 485 36 485 162 c 0
 485 288 383 390 257 390 c 0
 131 390 29 288 29 162 c 0
EndSplineSet
EndChar

StartChar: Aogonek
Encoding: 260 260 134
Width: 255
VWidth: 0
Flags: HMW
LayerCount: 5
Fore
SplineSet
255 193 m 3
 255 133 200 139 200 118 c 3
 200 103 227 96 227 50 c 3
 227 -21 165 -45 104 -45 c 3
 50 -45 0 -20 0 36 c 3
 0 97 66 108 66 128 c 3
 66 146 45 151 45 183 c 3
 45 241 98 271 157 271 c 3
 209 271 255 242 255 193 c 3
158 246 m 3
 130 246 95 235 95 210 c 3
 95 194 136 149 168 149 c 3
 188 149 224 167 224 194 c 3
 224 222 196 246 158 246 c 3
102 93 m 3
 70 93 34 68 34 34 c 3
 34 6 54 -18 108 -18 c 3
 142 -18 174 -9 174 25 c 3
 174 47 129 93 102 93 c 3
EndSplineSet
EndChar

StartChar: I
Encoding: 73 73 135
Width: 174
VWidth: 1474
Flags: MW
HStem: 0 23<2.15408 50.7784 113.438 153.982> 239 20G<132.5 138 163.5 169.5>
LayerCount: 5
Fore
SplineSet
15 23 m 0
 50 25 55 33 66 66 c 2
 93 150 l 2
 94 155 95 159 95 162 c 0
 95 167 93 169 89 169 c 0
 85 169 78 166 72 162 c 2
 30 136 l 2
 27 133 24 133 21 133 c 0
 17 133 15 135 15 139 c 0
 15 142 16 146 20 150 c 2
 120 251 l 2
 125 257 130 259 135 259 c 3
 141 259 141 257 151 257 c 3
 162 257 160 259 167 259 c 3
 172 259 174 255 174 250 c 0
 174 246 172 240 171 236 c 2
 115 55 l 2
 114 49 113 44 113 39 c 0
 113 31 116 25 130 24 c 0
 148 22 154 21 154 12 c 0
 154 2 148 0 138 0 c 2
 9 0 l 2
 4 0 2 3 2 9 c 0
 2 19 8 23 15 23 c 0
EndSplineSet
EndChar

StartChar: J
Encoding: 74 74 136
Width: 222
VWidth: 1474
Flags: MW
HStem: -9 50<89.3009 161.617> 0 21G<1 8.5> 240 24<82.05 153.424>
VStem: -6 25<0.248604 32.9853> 35 42<169.254 236.772> 167 47<158.908 234.257>
LayerCount: 5
Fore
SplineSet
214 191 m 0x7c
 214 159 184 142 160 130 c 0
 139 119 114 110 94 99 c 0
 63 82 77 72 94 59 c 0
 107 49 121 41 135 41 c 0
 155 41 167 62 177 78 c 0
 181 84 184 87 190 87 c 0
 195 87 197 83 197 79 c 0
 197 76 196 71 193 65 c 0
 180 31 156 -9 112 -9 c 0xbc
 85 -9 69 36 43 36 c 0
 31 36 24 30 19 19 c 0
 14 7 13 0 4 0 c 0
 -2 0 -6 4 -6 10 c 0
 -6 55 34 98 104 131 c 0
 140 148 167 175 167 199 c 0
 167 228 142 240 119 240 c 0
 99 240 77 232 77 218 c 0
 77 205 94 201 94 181 c 0
 94 166 84 155 64 155 c 0
 46 155 35 174 35 192 c 0
 35 232 76 264 125 264 c 0
 167 264 214 247 214 191 c 0x7c
EndSplineSet
EndChar

StartChar: K
Encoding: 75 75 137
Width: 212
VWidth: 1474
Flags: MW
HStem: -9 24<42.4767 102.283> 123 24<67.2793 120.805> 243 21<99.9601 158.187>
VStem: -6 48<15.558 69.0263> 55 43<188.938 242.009> 128 50<30.4627 120.578> 167 48<161.911 240.617>
LayerCount: 5
Fore
SplineSet
27 85 m 3xfc
 44 85 55 73 55 56 c 3
 55 39 42 36 42 27 c 3
 42 19 52 15 64 15 c 3
 110 15 128 50 128 90 c 3xfc
 128 114 114 123 85 123 c 3
 75 123 67 125 67 132 c 3
 67 142 74 147 84 147 c 3
 136 147 167 164 167 210 c 3
 167 232 151 243 130 243 c 3
 116 243 98 239 98 227 c 3
 98 217 105 214 105 199 c 3
 105 187 94 178 80 178 c 3
 64 178 55 188 55 204 c 3
 55 239 96 264 133 264 c 3
 174 264 215 244 215 204 c 3
 215 179 201 157 174 142 c 0
 168 138 156 135 156 126 c 3
 156 118 163 112 167 107 c 0xfa
 174 96 178 85 178 71 c 3
 178 56 170 42 163 32 c 0
 141 2 105 -9 70 -9 c 3
 30 -9 -6 10 -6 50 c 3
 -6 69 8 85 27 85 c 3xfc
EndSplineSet
EndChar

StartChar: L
Encoding: 76 76 138
Width: 223
VWidth: 1474
Flags: MW
HStem: 0 25<40.3022 90.8926 160 185.985> 71 25<55.311 98.1333 167.172 213.845> 239 20G<111 121 165 172>
LayerCount: 5
Fore
SplineSet
186 12 m 0
 186 3 181 0 172 0 c 2
 50 0 l 2
 44 0 40 3 40 9 c 0
 40 18 45 24 57 25 c 0
 76 26 86 21 94 45 c 2
 98 57 l 2
 101 67 94 71 88 71 c 2
 5 71 l 2
 -2 71 -6 75 -6 80 c 0
 -6 90 -1 93 8 103 c 0
 48 146 83 204 99 246 c 0
 102 255 108 259 114 259 c 3
 128 259 127 255 141 255 c 3
 156 255 160 259 170 259 c 3
 174 259 179 257 179 249 c 3
 179 239 167 225 132 189 c 0
 108 165 82 141 54 116 c 0
 43 106 40 96 59 96 c 2
 88 96 l 2
 107 96 112 104 115 115 c 2
 117 121 l 2
 121 133 128 138 136 145 c 2
 163 172 l 2
 175 183 185 178 181 164 c 2
 166 114 l 2
 163 104 169 96 177 96 c 2
 202 96 l 2
 210 96 214 91 214 86 c 0
 214 76 208 71 200 71 c 2
 170 71 l 2
 159 71 152 68 149 58 c 2
 145 43 l 2
 142 33 147 26 160 25 c 2
 174 24 l 2
 181 23 186 19 186 12 c 0
EndSplineSet
EndChar

StartChar: N
Encoding: 78 78 139
Width: 193
VWidth: 1474
Flags: MW
HStem: -9 24<57.5359 104.515> 131 21<76.6875 123.493> 241 22<99.3984 136.209>
VStem: 6 48<15.619 116.676> 128 48<30.0465 130.56> 131 57<182.159 240.845>
LayerCount: 5
Fore
SplineSet
158 181 m 0xf4
 144 181 131 189 131 206 c 0xf4
 131 214 133 218 136 222 c 0
 141 232 142 241 127 241 c 0
 105 241 92 227 83 208 c 0
 79 198 72 178 72 165 c 0
 72 155 76 152 84 152 c 0
 92 152 101 156 122 156 c 0
 154 156 176 128 176 96 c 0xf8
 176 37 132 -9 82 -9 c 0
 30 -9 6 23 6 83 c 0
 6 161 51 263 132 263 c 0
 159 263 188 249 188 217 c 0
 188 197 177 181 158 181 c 0xf4
81 15 m 0
 111 15 128 62 128 99 c 0xf8
 128 121 122 131 103 131 c 0
 92 131 80 125 73 117 c 0
 61 104 54 67 54 45 c 0
 54 22 64 15 81 15 c 0
EndSplineSet
EndChar

StartChar: P
Encoding: 80 80 140
Width: 228
VWidth: 1474
Flags: MW
HStem: -9 25<46.2007 136.947> 239 25<96.42 175.742>
VStem: -6 30<33.7919 94.6916> 45 47<169.169 235.924> 145 49<20.7224 89.4395> 196 27<164.648 220.818>
LayerCount: 5
Fore
SplineSet
194 65 m 1
 194 12 141 -9 91 -9 c 0
 46 -9 -6 18 -6 63 c 0
 -6 87 10 110 42 127 c 0
 77 146 45 164 45 194 c 0
 45 239 86 264 130 264 c 0
 180 264 223 234 223 194 c 0
 223 177 215 161 201 148 c 0
 187 135 179 132 179 118 c 0
 179 104 194 91 194 65 c 1
196 194 m 0
 196 220 165 239 136 239 c 0
 116 239 92 235 92 213 c 0
 92 206 96 197 100 190 c 0
 105 180 122 151 147 151 c 0
 166 151 196 164 196 194 c 0
82 114 m 0
 58 114 24 92 24 63 c 0
 24 33 59 16 94 16 c 0
 131 16 145 30 145 49 c 0
 145 70 109 114 82 114 c 0
EndSplineSet
EndChar

StartChar: semicolon
Encoding: 59 59 141
Width: 199
Flags: MW
HStem: -6 24<55.5956 124.94> 117 27<62.0051 117.677> 242 23<58.2508 123.649>
VStem: 0 53<19.6677 77.5979 176.695 236.996> 138 61<23.8815 111.31 156.856 235.75>
LayerCount: 5
Fore
SplineSet
95 265 m 0
 153 265 194 236 194 196 c 0
 194 149 153 151 153 134 c 0
 153 117 199 115 199 67 c 0
 199 22 146 -6 98 -6 c 0
 50 -6 0 16 0 61 c 0
 0 81 15 94 35 94 c 0
 55 94 63 80 63 64 c 0
 63 48 53 47 53 36 c 0
 53 28 64 18 89 18 c 0
 131 18 138 44 138 72 c 0
 138 114 104 117 82 117 c 0
 68 117 62 119 62 131 c 0
 62 141 69 144 75 144 c 0
 119 147 135 166 135 199 c 0
 135 230 116 242 93 242 c 0
 70 242 54 234 54 219 c 0
 54 207 65 204 65 189 c 0
 65 173 56 161 33 161 c 0
 18 161 4 174 4 197 c 0
 4 241 55 265 95 265 c 0
EndSplineSet
EndChar

StartChar: less
Encoding: 60 60 142
Width: 220
Flags: MW
HStem: 0 26<56.0058 99.7142 159.21 204.993> 71 25<39.0001 98.9301 159.661 219.998>
VStem: 0 39<80.5 126.495> 54 87<211.63 259.658> 100 59<27.0938 70.997 97.0051 156.918>
LayerCount: 5
Fore
SplineSet
100 52 m 2xe8
 100 67 98 71 82 71 c 0
 14 71 l 0
 -1 71 0 78 0 83 c 0
 0 88 0 91 9 107 c 0
 28 143 52 188 54 243 c 0xf0
 56 266 63 265 70 265 c 0
 80 265 86 260 100 260 c 0xe8
 114 260 121 265 130 265 c 0
 136 265 141 263 141 254 c 0
 141 239 127 218 88 173 c 0
 50 129 39 115 39 108 c 0
 39 103 39 96 54 96 c 0xf0
 80 96 l 0
 95 96 98 99 99 106 c 0
 99 111 99 112 100 120 c 0
 101 130 105 140 111 146 c 0
 134 168 143 186 152 186 c 0
 157 186 161 186 161 174 c 0
 161 160 159 145 159 113 c 0
 159 104 162 97 174 97 c 0
 204 97 l 0
 219 97 220 93 220 85 c 0
 220 83 l 0
 220 77 218 71 198 71 c 0
 179 71 l 0
 164 71 159 70 159 48 c 2
 159 42 l 2
 159 30 167 27 182 27 c 0
 196 26 205 26 205 13 c 0
 205 2 199 0 188 0 c 2
 75 0 l 2
 58 0 56 2 56 13 c 0
 56 25 64 25 77 26 c 0
 92 26 100 32 100 42 c 2
 100 52 l 2xe8
EndSplineSet
EndChar

StartChar: equal
Encoding: 61 61 143
Width: 187
Flags: MW
HStem: -5 23<53.6761 109.119> 142 20<43.8233 108.659> 209 47<31 158.13>
VStem: 0 59<19.0634 87.376> 11 23<162.002 210.448> 126 61<28.2698 134.894>
LayerCount: 5
Fore
SplineSet
31 262 m 0xec
 47 262 59 256 106 256 c 0
 128 256 155 263 165 263 c 0
 170 263 172 259 172 254 c 0
 172 244 160 231 150 224 c 0
 136 215 117 209 96 209 c 0
 83 209 70 211 50 211 c 0
 34 211 34 195 34 180 c 0xec
 34 164 38 162 44 162 c 0
 58 162 63 168 100 168 c 0
 148 168 187 138 187 86 c 0
 187 40 152 -5 80 -5 c 0
 39 -5 0 11 0 55 c 0
 0 77 15 89 32 89 c 0
 51 89 59 75 59 60 c 0xf4
 59 45 53 45 53 34 c 0
 53 20 66 18 79 18 c 0
 120 18 126 55 126 84 c 0
 126 122 110 142 76 142 c 0
 54 142 43 132 34 124 c 0
 28 119 22 114 17 114 c 0
 8 114 5 117 5 129 c 0
 5 142 11 172 11 233 c 0
 11 242 l 0
 11 258 18 262 31 262 c 0xec
EndSplineSet
EndChar

StartChar: greater
Encoding: 62 62 144
Width: 195
Flags: MW
HStem: -3 25<71.8493 128.411> 129 24<72.6798 131.845> 240 23<77.0121 128.691>
VStem: 0 60<44.7527 213.225> 129 55<187.445 239.935> 139 56<25.6136 127.655>
LayerCount: 5
Fore
SplineSet
105 129 m 0xf4
 73 129 60 110 60 70 c 0
 60 55 63 22 104 22 c 0
 135 22 139 55 139 81 c 0
 139 110 135 129 105 129 c 0xf4
112 263 m 0
 159 263 184 235 184 210 c 0
 184 187 169 173 150 173 c 0
 135 173 122 180 122 199 c 0
 122 213 129 215 129 226 c 0xf8
 129 232 126 240 110 240 c 0
 68 240 61 208 61 179 c 0
 61 172 l 0
 61 154 69 149 76 149 c 0
 85 149 90 153 121 153 c 0
 169 153 195 125 195 76 c 0
 195 33 153 -3 107 -3 c 0
 33 -3 0 63 0 128 c 0
 0 201 38 263 112 263 c 0
EndSplineSet
EndChar

StartChar: question
Encoding: 63 63 145
Width: 199
Flags: MW
HStem: -1 21G<94 105> 192 38<120.778 162.931> 203 25<30.7224 54.0253>
VStem: 0 22<152.184 193.102 228.247 261.723> 33 82<0.10083 63.1296> 163 36<158.862 257.693>
LayerCount: 5
Fore
SplineSet
117 177 m 0xdc
 95 177 83 203 57 203 c 0
 33 203 26 187 22 167 c 0
 19 154 15 152 8 152 c 0
 2 152 0 156 0 162 c 0
 0 167 3 191 3 207 c 0
 3 222 0 242 0 249 c 0
 0 258 3 262 9 262 c 0
 16 262 20 254 21 246 c 0
 23 235 26 228 36 228 c 0xbc
 54 228 61 263 90 263 c 0
 125 263 123 230 147 230 c 0
 162 230 171 241 176 254 c 0
 178 260 182 264 189 264 c 0
 197 264 199 259 199 254 c 0
 199 207 188 155 155 113 c 0
 129 79 120 58 115 23 c 0
 112 10 112 -1 98 -1 c 0
 90 -1 89 0 74 0 c 0
 60 0 52 -2 45 -2 c 0
 38 -2 33 2 33 14 c 0
 33 63 124 128 150 160 c 0
 160 173 163 180 163 185 c 0
 163 190 160 192 157 192 c 0
 145 192 138 177 117 177 c 0xdc
EndSplineSet
EndChar

StartChar: uni0089
Encoding: 137 137 149
Width: 309
VWidth: 2048
Flags: MW
HStem: 0 33<0.855766 75.3681 207.237 248.712>
LayerCount: 5
Fore
SplineSet
24 33 m 0
 84 36 88 59 107 121 c 2
 160 287 l 2
 164 300 166 309 166 315 c 3
 166 321 164 325 160 325 c 3
 155 325 148 322 139 314 c 2
 81 266 l 2
 76 262 71 260 67 260 c 3
 61 260 57 262 57 270 c 3
 57 275 59 282 67 291 c 2
 208 465 l 2
 217 475 224 480 233 480 c 3
 244 480 244 472 263 472 c 3
 284 472 286 480 300 480 c 3
 306 480 309 475 309 467 c 0
 309 457 303 443 302 438 c 2
 198 103 l 2
 192 84 186 68 186 57 c 0
 186 46 193 38 207 35 c 0
 212 34 221 34 229 33 c 0
 242 32 249 28 249 20 c 0
 249 5 238 0 219 0 c 2
 14 0 l 0
 5 0 0 4 0 10 c 0
 0 24 10 32 24 33 c 0
EndSplineSet
EndChar

StartChar: uni008A
Encoding: 138 138 150
Width: 411
VWidth: 2048
Flags: MW
HStem: -16 88<202.668 276.391> 0 21G<-0.5 11.5> 455 34<180.254 288.064>
VStem: -10 44<2.89651 60.6515> 87 72<330.038 422.522> 310 86<315.431 434.493>
LayerCount: 5
Fore
SplineSet
396 366 m 0x7c
 396 348 392 332 386 319 c 0
 347 242 231 226 152 178 c 0
 101 147 127 135 157 121 c 0
 195 103 224 72 259 72 c 0
 297 72 308 93 325 122 c 0
 332 133 338 137 346 137 c 0
 354 137 356 134 356 126 c 0
 356 106 333 63 307 33 c 0
 283 5 251 -16 207 -16 c 0xbc
 157 -16 128 66 80 66 c 0
 57 66 43 55 34 41 c 0
 22 22 19 0 4 0 c 0
 -5 0 -10 7 -10 18 c 0
 -10 102 66 179 195 241 c 0
 261 273 310 313 310 392 c 0
 310 434 277 455 235 455 c 0
 198 455 159 433 159 404 c 0
 159 380 191 379 191 341 c 0
 191 313 166 294 138 294 c 0
 105 294 87 323 87 356 c 0
 87 429 156 489 247 489 c 0
 326 489 396 449 396 366 c 0x7c
EndSplineSet
EndChar

StartChar: uni0088
Encoding: 136 136 151
Width: 374
VWidth: 2048
Flags: MW
HStem: -16 34<93.7626 163.171> 454 34<211.733 283.619>
VStem: 0 81<49.3005 227.644> 294 80<255.279 431.977>
LayerCount: 5
Fore
SplineSet
122 -16 m 7
 44 -16 0 58 0 146 c 7
 0 301 105 488 252 488 c 7
 328 488 374 432 374 336 c 7
 374 178 271 -16 122 -16 c 7
294 394 m 7
 294 429 284 454 252 454 c 7
 152 454 81 191 81 93 c 7
 81 50 91 18 126 18 c 7
 218 18 294 284 294 394 c 7
EndSplineSet
EndChar

StartChar: p
Encoding: 112 112 152
Width: 318
VWidth: 2048
Flags: MW
HStem: -12 31<71.2317 184.854> 335 31<138.384 239.631>
VStem: -8 44<43.6301 137.27> 63 65<246.522 327.664> 201 69<31.3783 114.391> 270 40<224.211 311.944>
LayerCount: 5
Fore
SplineSet
269 90 m 1xf4
 270 90 l 1xf8
 270 16 197 -12 127 -12 c 0
 64 -12 -8 25 -8 88 c 0
 -8 122 15 152 59 176 c 0
 107 203 63 228 63 270 c 0
 63 333 120 366 181 366 c 0
 251 366 310 325 310 270 c 0
 310 246 299 223 279 205 c 0
 267 195 246 185 246 166 c 0
 246 147 269 126 269 90 c 1xf4
270 272 m 0xf4
 270 308 229 335 189 335 c 0
 161 335 128 327 128 296 c 0
 128 286 133 274 139 264 c 0
 146 250 174 205 209 205 c 0
 236 205 270 231 270 272 c 0xf4
110 162 m 0
 76 162 36 128 36 88 c 0
 36 46 82 19 130 19 c 0
 181 19 201 42 201 68 c 0xf8
 201 97 148 162 110 162 c 0
EndSplineSet
EndChar

StartChar: uni0098
Encoding: 152 152 153
Width: 264
VWidth: 2048
Flags: MW
HStem: -3 32<57.9643 164.052> 280 32<121.413 212.109>
VStem: 0 38<46.2895 115.875> 58 58<202.171 275.607> 172 60<35.2158 107.125> 228 36<196.161 265.757>
LayerCount: 5
Fore
SplineSet
232 78 m 3xf8
 232 21 170 -3 112 -3 c 0
 60 -3 0 28 0 80 c 0
 0 99 9 117 27 132 c 0
 53 155 73 155 73 174 c 0
 73 198 58 206 58 232 c 0
 58 284 106 312 157 312 c 0
 215 312 264 278 264 232 c 0xf4
 264 214 258 198 245 184 c 0
 234 172 210 160 210 145 c 0
 210 124 232 112 232 78 c 3xf8
228 233 m 0
 228 262 196 280 163 280 c 0
 140 280 116 272 116 249 c 0
 116 225 144 183 174 183 c 0
 196 183 228 199 228 233 c 0
104 133 m 0
 76 133 38 113 38 80 c 0
 38 47 75 29 115 29 c 0
 143 29 172 36 172 65 c 0xf8
 172 89 136 133 104 133 c 0
EndSplineSet
EndChar

StartChar: G
Encoding: 71 71 154
Width: 199
Flags: MW
HStem: -1 21G<94 105> 177 56<103 154.446> 210 26<28.6297 53.8899>
VStem: 33 82<0.10083 63.1296>
LayerCount: 5
Fore
SplineSet
114 177 m 0xd0
 92 177 79 210 53 210 c 0
 34 210 28 199 23 185 c 0
 18 173 15 170 8 170 c 0
 2 170 0 174 0 180 c 0
 0 185 1 201 1 217 c 0
 1 232 0 242 0 249 c 0
 0 258 3 262 9 262 c 0
 21 262 20 236 31 236 c 0xb0
 49 236 58 263 85 263 c 0
 127 263 125 233 149 233 c 0
 164 233 171 242 176 254 c 0
 179 260 182 264 189 264 c 0
 197 264 199 259 199 254 c 0
 199 207 188 155 155 113 c 0
 129 79 120 58 115 23 c 0
 112 10 112 -1 98 -1 c 0
 90 -1 89 0 74 0 c 0
 60 0 52 -2 45 -2 c 0
 38 -2 33 2 33 14 c 0
 33 63 124 128 150 160 c 0
 170 182 158 192 140 182 c 0
 134 179 123 177 114 177 c 0xd0
EndSplineSet
EndChar

StartChar: uni0018
Encoding: 24 24 155
Width: 166
Flags: MW
HStem: -3 23<59.5479 106.452> 187 23<59.5479 106.452>
VStem: 0 45<25.6789 181.966> 121 45<25.6789 181.966>
LayerCount: 5
Fore
SplineSet
83 187 m 0
 50 187 45 147 45 104 c 0
 45 61 50 20 83 20 c 0
 116 20 121 61 121 104 c 0
 121 147 116 187 83 187 c 0
83 210 m 0
 144 210 166 160 166 104 c 0
 166 48 144 -3 83 -3 c 0
 22 -3 0 48 0 104 c 0
 0 160 22 210 83 210 c 0
EndSplineSet
EndChar

StartChar: uni001A
Encoding: 26 26 156
Width: 167
Flags: MW
HStem: -3 21G<6 11> -2 40<68.5797 141.692> 188 24<52.4176 113.648>
VStem: 0 61<4.5 62.7954 123.739 170.446> 6 45<133.909 187.523> 121 46<119.744 184.689> 145 21<47.8772 80.5049>
LayerCount: 5
Fore
SplineSet
87 212 m 0xac
 133 212 167 184 167 149 c 0xac
 167 110 115 94 95 87 c 0
 73 79 61 71 61 62 c 0
 61 44 100 38 112 38 c 0
 126 38 138 45 145 66 c 0
 148 74 152 81 158 81 c 0
 163 81 166 77 166 69 c 0
 166 38 143 -2 112 -2 c 0x72
 76 -2 74 26 44 26 c 0
 33 26 26 17 22 6 c 0
 19 -2 14 -3 8 -3 c 0
 4 -3 0 -1 0 10 c 0xb2
 0 46 35 84 68 102 c 0
 101 120 121 128 121 154 c 0
 121 180 103 188 77 188 c 0
 59 188 51 180 51 171 c 0
 51 159 58 159 58 145 c 0
 58 132 49 122 31 122 c 0
 13 122 6 137 6 153 c 0
 6 183 36 212 87 212 c 0xac
EndSplineSet
EndChar

StartChar: uni001B
Encoding: 27 27 157
Width: 159
Flags: MW
HStem: -5 24<47.6555 105.587> 91 23.4775<51.7203 99.6057> 185 24<46.1095 106.504>
VStem: 0 50<19.3765 74.4179 127.422 184.573> 116 43<23.3207 87.7906 122.403 181.127>
LayerCount: 5
Fore
SplineSet
76 209 m 0
 122 209 155 186 155 154 c 0
 155 116 122 120 122 106 c 0
 122 92 159 92 159 54 c 0
 159 18 116 -5 78 -5 c 0
 40 -5 0 13 0 49 c 0
 0 65 12 75 28 75 c 0
 44 75 50 63.5 50 53 c 0
 50 40 47 42 47 33 c 0
 47 27 53.1667 19 71 19 c 0
 105 19 116 38 116 57 c 0
 116 91 84 91 66 91 c 0
 42.3223 91 46.25 113.75 66 114.478 c 0
 95.0078 115.546 113 131.529 113 156 c 0
 113 178 92 185 74 185 c 0
 56 185 45 180 45 168 c 0
 45 158 50 159 50 147 c 0
 50 134 44 127 26 127 c 0
 14 127 3 136 3 154 c 0
 3 189 44 209 76 209 c 0
EndSplineSet
EndChar

StartChar: exclam
Encoding: 33 33 159
Width: 153
Flags: MW
HStem: -2 23<53.7225 96.2894> 89 22<48.3829 101.28> 185 25<46.7992 101.256>
VStem: 0 41<112.64 183.468> 6 47<21.3965 69.4492> 109 44<31.8606 178.118>
LayerCount: 5
Fore
SplineSet
73 111 m 0xf4
 99 111 109 124.5 109 149 c 0
 109 162 103 185 70 185 c 0
 45 185 41 164 41 143 c 0
 41 122.5 53.75 111 73 111 c 0xf4
63 -2 m 0
 25 -2 6 20 6 40 c 0
 6 58 18 70 33 70 c 0
 45 70 55 64 55 49 c 0
 55 40.833 53 41 53 32 c 0xec
 53 27 57.5 21 67 21 c 0
 101 21 108 46.333 108 68 c 0
 108 83.3604 102.27 92 94 92 c 0
 87 92 84 89 59 89 c 0
 25.75 89 0 108 0 147 c 0
 0 181 30 210 67 210 c 0
 126 210 153 158 153 106 c 0
 153 48 122 -2 63 -2 c 0
EndSplineSet
EndChar

StartChar: h
Encoding: 104 104 160
Width: 280
VWidth: 2048
Flags: MW
HStem: -12 32<68.1354 128.767> 334 32<153.258 214.568>
VStem: 0 61<28.2592 186.952> 220 60<167.596 332.599>
LayerCount: 5
Fore
SplineSet
92 -12 m 3
 34 -12 0 44 0 110 c 3
 0 226 79 366 189 366 c 3
 246 366 280 324 280 252 c 3
 280 134 204 -12 92 -12 c 3
220 290 m 3
 220 316 213 334 189 334 c 3
 114 334 61 144 61 70 c 3
 61 38 70 20 96 20 c 3
 165 20 220 208 220 290 c 3
EndSplineSet
EndChar

StartChar: i
Encoding: 105 105 161
Width: 235
VWidth: 2048
Flags: MW
HStem: 0 31<0.279259 63.3482 147.627 195.921> 340 20G<175.5 183 221 229> 340 20G<175.5 183 221 229>
LayerCount: 5
Fore
SplineSet
18 31 m 0xc0
 63 33 68 45 83 91 c 2
 121 209 l 2
 123 216 124 221 124 225 c 0
 124 231 122 234 117 234 c 0
 113 234 107 231 99 225 c 2
 55 191 l 2
 51 187 47 186 43 186 c 0
 38 186 35 189 35 195 c 0
 35 199 37 205 42 211 c 2
 159 349 l 2
 166 357 172 360 179 360 c 3
 187 360 187 356 201 356 c 3
 217 356 216 360 226 360 c 3
 232 360 235 357 235 351 c 0
 235 345 232 337 229 328 c 2
 151 77 l 2
 149 68 147 60 147 53 c 0
 147 42 151 34 164 32 c 0
 184 29 196 30 196 17 c 0
 196 3 187 0 173 0 c 2
 10 0 l 2
 3 0 0 4 0 12 c 0
 0 24 8 30 18 31 c 0xc0
EndSplineSet
EndChar

StartChar: j
Encoding: 106 106 162
Width: 309
VWidth: 2048
Flags: MW
HStem: -12 66<143.283 214.488> 0 21G<0 10.5> 336 31<129.332 217.763>
VStem: -8 32<0.511429 43.2039> 65 56<240.797 324.88> 232 65<230.373 327.039>
LayerCount: 5
Fore
SplineSet
297 274 m 0x7c
 297 260 294 249 290 239 c 0
 261 181 175 167 116 131 c 0
 87 113 102 99 118 91 c 0
 143 79 167 54 191 54 c 0
 219 54 227 70 241 92 c 0
 246 100 250 105 258 105 c 0
 264 105 267 100 267 94 c 0
 267 79 250 47 230 25 c 0
 212 4 188 -12 155 -12 c 0xbc
 117 -12 96 50 60 50 c 0
 43 50 32 44 24 26 c 0
 17 11 17 0 4 0 c 0
 -4 0 -8 6 -8 14 c 0
 -8 77 47 136 144 182 c 0
 194 206 231 237 232 287 c 0
 232 317 209 336 177 336 c 0
 149 336 121 325 121 303 c 0
 121 285 143 284 143 256 c 0
 143 235 125 220 104 220 c 0
 79 220 65 242 65 267 c 0
 65 322 117 367 185 367 c 0
 244 367 297 336 297 274 c 0x7c
EndSplineSet
EndChar

StartChar: k
Encoding: 107 107 163
Width: 295
VWidth: 2048
Flags: MW
HStem: -12 26<56.9349 127.903> 173 29<93.2834 159.488> 344 23<145.426 214.64>
VStem: -8 61<15.5617 93.9368> 83 53<263.475 335.634> 176 60<52.7013 157.972> 231 56<233.538 336.405>
LayerCount: 5
Fore
SplineSet
38 118 m 3xfc
 62 118 74 101 74 78 c 3
 74 56 53 52 53 37 c 3
 53 26 64 14 84 14 c 3
 141 14 176 68 176 124 c 3xfc
 176 159 143 173 118 173 c 3
 104 173 93 174 93 184 c 3
 93 198 102 202 116 202 c 3
 178 202 231 228 231 292 c 3
 231 323 216 344 179 344 c 3
 154 344 136 329 136 315 c 3
 136 301 151 296 151 277 c 3
 151 261 138 247 118 247 c 3
 96 247 83 262 83 284 c 3
 83 333 131 367 183 367 c 3
 240 367 287 339 287 283 c 3
 287 248 268 218 231 197 c 0xfa
 223 192 206 186 206 176 c 3
 206 165 216 158 224 144 c 0
 230 132 236 120 236 99 c 3
 236 26 151 -12 92 -12 c 3
 37 -12 -8 14 -8 69 c 3
 -8 96 12 118 38 118 c 3xfc
EndSplineSet
EndChar

StartChar: l
Encoding: 108 108 164
Width: 311
VWidth: 2048
Flags: MW
HStem: 0 31<60.1465 123.385 213 249.948> 99 31<58.0044 136.268 228.096 286.594> 340 20G<153 166.5 235 245> 340 20G<153 166.5 235 245>
VStem: -8 66<107.5 142.336> 137 62<36.3391 76.875>
LayerCount: 5
Fore
SplineSet
250 17 m 0xec
 250 5 242 0 230 0 c 2
 73 0 l 2
 64 0 60 4 60 13 c 0
 60 25 68 30 84 31 c 0
 110 33 119 29 130 62 c 2
 136 79 l 2
 137 81 137 83 137 85 c 0
 137 93 132 99 122 99 c 2
 7 99 l 2
 -3 99 -8 104 -8 111 c 0
 -8 125 -1 130 13 142 c 0
 71 195 116 283 138 342 c 0
 142 354 149 360 157 360 c 3
 176 360 181 354 200 354 c 3
 221 354 228 360 242 360 c 3
 248 360 254 358 254 349 c 3
 254 336 232 312 184 262 c 0
 150 228 111 190 69 158 c 0
 61 152 58 146 58 141 c 0
 58 135 64 130 76 130 c 2
 122 130 l 2
 148 130 153 140 158 155 c 2
 169 189 l 2
 175 206 184 214 194 224 c 2
 236 265 l 2
 241 270 248 273 254 273 c 0
 258 273 262 271 262 265 c 0
 262 263 261 260 260 257 c 2
 229 153 l 2
 228 151 228 148 228 146 c 0
 228 137 234 130 246 130 c 2
 271 130 l 2
 282 130 287 126 287 119 c 0
 287 105 278 99 268 99 c 2
 236 99 l 2
 221 99 211 94 207 80 c 2
 200 55 l 2
 200 53 199 50 199 48 c 0
 199 40 202 33 213 32 c 2
 232 31 l 2
 242 30 250 27 250 17 c 0xec
EndSplineSet
EndChar

StartChar: m
Encoding: 109 109 165
Width: 287
VWidth: 2048
Flags: MW
HStem: -12 26<55.7996 126.126> 193 30<94.9792 177.907> 296 63<100.391 253.122>
VStem: 0 54<15.0828 90.3205> 189 62<67.7719 187.06>
LayerCount: 5
Fore
SplineSet
46 119 m 3
 67 119 82 104 82 82 c 3
 82 54 54 50 54 32 c 3
 54 22 64 14 86 14 c 0
 139 14 189 81 189 132 c 0
 189 180 172 193 137 193 c 0
 90 193 79 158 47 158 c 0
 39 158 37 162 37 166 c 0
 37 173 41 180 42 184 c 2
 98 347 l 2
 100 355 107 359 115 359 c 0
 123 359 144 353 172 353 c 0
 207 353 240 356 262 362 c 0
 268 363 274 365 278 365 c 3
 284 365 287 364 287 357 c 3
 287 353 286 349 282 343 c 0
 261 313 210 295 171 295 c 0
 149 295 143 296 128 296 c 0
 113 296 107 291 101 276 c 2
 88 238 l 2
 84 226 83 213 98 213 c 3
 114 213 126 223 160 223 c 3
 218 223 251 188 251 132 c 0
 251 49 178 -12 95 -12 c 0
 39 -12 0 13 0 68 c 3
 0 98 16 119 46 119 c 3
EndSplineSet
EndChar

StartChar: n
Encoding: 110 110 166
Width: 269
VWidth: 2048
Flags: MW
HStem: -12 31<81.9248 142.725> 182 26<108.778 170.649> 335 30<138.342 196.592>
VStem: 8 67<25.8655 153.833> 178 67<54.3069 180.195> 197 64<271.792 334.38>
LayerCount: 5
Fore
SplineSet
219 251 m 0xf4
 199 251 182 262 182 286 c 0
 182 307 197 312 197 323 c 0xf4
 197 332 187 335 177 335 c 0
 147 335 127 316 115 289 c 0
 109 275 98 244 98 226 c 0
 98 212 104 208 115 208 c 0
 126 208 143 216 172 216 c 0
 217 216 245 177 245 133 c 0xf8
 245 51 184 -12 114 -12 c 0
 42 -12 8 31 8 115 c 0
 8 224 71 365 184 365 c 0
 221 365 261 347 261 302 c 0
 261 274 245 251 219 251 c 0xf4
112 19 m 0
 153 19 178 86 178 137 c 0xf8
 178 167 169 182 143 182 c 0
 128 182 112 174 102 163 c 0
 86 145 75 94 75 63 c 0
 75 31 88 19 112 19 c 0
EndSplineSet
EndChar

StartChar: o
Encoding: 111 111 167
Width: 270
VWidth: 2048
Flags: HMW
LayerCount: 5
Fore
SplineSet
222 265 m 0
 211 265 195 256 181 256 c 0
 153 256 132 283 111 283 c 0
 82 283 70 261 59 236 c 0
 54 223 48 217 40 217 c 0
 35 217 30 221 30 228 c 0
 30 240 54 330 58 346 c 0
 62 359 66 360 73 360 c 0
 93 360 74 325 99 325 c 0
 126 325 135 356 174 356 c 0
 210 356 211 320 237 320 c 0
 251 320 265 332 272 346 c 0
 278 357 283 359 290 359 c 0
 297 359 300 353 300 345 c 0
 300 342 300 339 299 336 c 0
 295 318 287 288 281 272 c 0
 273 250 245 212 223 179 c 0
 193 132 169 79 161 26 c 0
 158 6 148 -4 138 -4 c 3
 123 -4 119 1 100 1 c 3
 81 1 81 -4 62 -4 c 3
 50 -4 48 2 48 10 c 0
 48 14 49 19 52 26 c 0
 74 72 110 122 172 180 c 0
 188 195 211 220 224 240 c 0
 229 248 232 254 232 258 c 0
 232 263 228 265 222 265 c 0
EndSplineSet
EndChar

StartChar: H
Encoding: 72 72 169
Width: 201
VWidth: 1474
Flags: MW
HStem: -9 24<48.6987 92.6357> 239 25<110.3 154.653>
VStem: 0 44<15.3347 152.326> 158 44<102.162 238.407>
LayerCount: 5
Fore
SplineSet
66 -9 m 3
 24 -9 0 31 0 79 c 3
 0 163 57 264 136 264 c 3
 177 264 202 233 202 181 c 3
 202 96 147 -9 66 -9 c 3
158 208 m 3
 158 227 153 239 136 239 c 3
 82 239 44 104 44 51 c 3
 44 28 50 15 69 15 c 3
 119 15 158 149 158 208 c 3
EndSplineSet
EndChar

StartChar: Q
Encoding: 81 81 170
Width: 193
VWidth: 1474
Flags: MW
HStem: -9 22<57.7909 94.6016> 102 21<70.5074 117.312> 239 24<89.485 136.464>
VStem: 6 57<13.1546 71.8411> 18 48<123.44 223.954> 140 48<137.324 238.381>
LayerCount: 5
Fore
SplineSet
36 73 m 0xf4
 50 73 63 65 63 48 c 0xf4
 63 40 61 36 58 32 c 0
 53 22 52 13 67 13 c 0
 89 13 102 27 111 46 c 0
 115 56 122 76 122 89 c 0
 122 99 118 102 110 102 c 0
 102 102 93 98 72 98 c 0
 40 98 18 126 18 158 c 0xec
 18 217 62 263 112 263 c 0
 164 263 188 231 188 171 c 0
 188 93 143 -9 62 -9 c 0
 35 -9 6 5 6 37 c 0
 6 57 17 73 36 73 c 0xf4
113 239 m 0
 83 239 66 192 66 155 c 0xec
 66 133 72 123 91 123 c 0
 102 123 114 129 121 137 c 0
 133 150 140 187 140 209 c 0
 140 232 130 239 113 239 c 0
EndSplineSet
EndChar

StartChar: comma
Encoding: 44 44 171
Width: 177
VWidth: 1179
Flags: MW
HStem: 0 23<23.5273 74.2004 118.75 157.945> 57 24<42.0022 78.6534 134.348 176.994>
VStem: -5 47<64 95.6674>
LayerCount: 5
Fore
SplineSet
158 10 m 0
 158 3 154 0 147 0 c 2
 31 0 l 2
 26 0 23 2 23 7 c 0
 23 16 28 22 38 23 c 0
 60 24 70 20 76 39 c 2
 78 46 l 2
 78 47 79 48 79 50 c 0
 79 55 74 57 70 57 c 2
 4 57 l 2
 -2 57 -5 62 -5 66 c 0
 -5 74 -1 76 6 84 c 0
 39 118 66 163 79 197 c 0
 81 204 86 207 91 207 c 3
 102 207 102 205 113 205 c 3
 125 205 128 207 136 207 c 3
 139 207 143 205 143 199 c 3
 143 191 134 180 106 151 c 0
 89 134 69 117 49 99 c 0
 45 95 42 91 42 87 c 0
 42 84 45 81 52 81 c 2
 72 81 l 2
 87 81 89 85 92 92 c 2
 94 97 l 2
 97 107 103 110 109 116 c 2
 129 135 l 2
 133 138 136 140 139 140 c 0
 142 140 145 137 145 133 c 0
 145 131 145 130 144 128 c 2
 135 98 l 2
 134 96 134 93 134 92 c 0
 134 84 140 81 145 81 c 2
 168 81 l 2
 174 81 177 77 177 69 c 0
 177 62 169 57 163 57 c 2
 136 57 l 2
 127 57 121 53 119 46 c 2
 117 37 l 2
 117 36 117 34 117 33 c 0
 117 28 121 24 129 24 c 2
 149 22 l 2
 156 21 158 16 158 10 c 0
EndSplineSet
EndChar

StartChar: hyphen
Encoding: 45 45 172
Width: 179
VWidth: 1179
Flags: MW
HStem: -7 23<52.5948 96.663> 106 24<75.3887 114.704> 168 41<74.3237 168.08>
VStem: 12.0293 40<16.0923 57.9473> 118.029 41<35.628 105.34>
LayerCount: 5
Fore
SplineSet
38.0293 69 m 3
 50.0293 69 59.0293 61 59.0293 48 c 3
 59.0293 36 52.0293 35 52.0293 25 c 3
 52.0293 19 58.0293 16 67.0293 16 c 0
 82.0293 16 97.0293 22 108.029 42 c 0
 115.029 55 118.029 71 118.029 82 c 0
 118.029 98 111.029 106 92.0293 106 c 0
 65.0293 106 61.0293 92 46.0293 92 c 0
 30.0293 92 37.0293 109 39.0293 114 c 2
 65.0293 197 l 2
 68.0293 207 73.0293 209 80.0293 209 c 0
 85.0293 209 95.0293 205 111.029 205 c 0
 129.029 205 149.029 207 163.029 209 c 0
 168.029 210 175.029 211 177.029 208 c 0
 180.029 204 180.029 200 174.029 194 c 0
 160.029 178 130.029 168 110.029 168 c 0
 97.0293 168 103.029 168 94.0293 168 c 0
 85.0293 168 80.0293 166 77.0293 157 c 2
 72.0293 141 l 2
 70.0293 134 71.0293 128 79.0293 128 c 3
 89.0293 128 93.0293 130 107.029 130 c 3
 141.029 130 159.029 108 159.029 76 c 0
 159.029 28 114.029 -7 66.0293 -7 c 0
 34.0293 -7 12.0293 7 12.0293 39 c 3
 12.0293 57 20.0293 69 38.0293 69 c 3
EndSplineSet
EndChar

StartChar: period
Encoding: 46 46 173
Width: 154
VWidth: 1179
Flags: MW
HStem: -7 24<45.9153 87.8562> 102 21<59.8555 100.335> 187 23<74.3637 107.031>
VStem: 5 39<17.3706 93.33> 102 39<23.2259 101.815> 105 45<145.111 186.977>
LayerCount: 5
Fore
SplineSet
126 145 m 0xf4
 115 145 105 151 105 165 c 0xf4
 105 171 106 173 107 176 c 0
 110 183 107 187 98 187 c 0
 76 187 63 166 59 140 c 0
 57 130 61 123 70 123 c 0
 76 123 87 125 98 125 c 0
 124 125 141 103 141 77 c 0xf8
 141 30 106 -7 66 -7 c 0
 24 -7 5 18 5 66 c 0
 5 128 41 210 106 210 c 0
 128 210 150 200 150 174 c 0
 150 158 141 145 126 145 c 0xf4
66 17 m 0
 90 17 102 49 102 79 c 0xf8
 102 97 96 102 81 102 c 0
 72 102 63 97 57 91 c 0
 47 81 44 58 44 40 c 0
 44 22 52 17 66 17 c 0
EndSplineSet
EndChar

StartChar: zero
Encoding: 48 48 174
Width: 182
VWidth: 1179
Flags: MW
HStem: -7 24<35.2382 108.456> 187 24<76.9808 141.973>
VStem: -5 31<24.3083 79.0426> 36 38<131.807 185.128> 115 40<20.5138 77.6925> 150 28<130.306 179.799>
LayerCount: 5
Fore
SplineSet
155 52 m 0xf8
 155 10 113 -7 73 -7 c 0
 37 -7 -5 14 -5 50 c 0
 -5 69 8 88 34 102 c 0
 62 117 36 131 36 155 c 0
 36 191 69 211 104 211 c 0
 144 211 178 187 178 155 c 0xf4
 178 141 172 128 161 118 c 0
 150 108 143 103 143 93 c 3
 143 82 155 72 155 52 c 0xf8
150 155 m 0
 150 176 132 187 109 187 c 0
 93 187 74 183 74 165 c 0
 74 148 92 123 116 123 c 0
 131 123 150 137 150 155 c 0
68 89 m 0
 49 89 26 73 26 50 c 0
 26 26 47 17 75 17 c 0
 105 17 115 31 115 46 c 0xf8
 115 63 90 89 68 89 c 0
EndSplineSet
EndChar

StartChar: one
Encoding: 49 49 175
Width: 154
VWidth: 1179
Flags: MW
HStem: -7 23<47.9691 80.6363> 80 21<54.6649 95.1445> 186 24<67.1438 109.085>
VStem: 5 45<16.0229 57.8892> 14 39<101.185 179.774> 111 39<109.67 185.629>
LayerCount: 5
Fore
SplineSet
29 58 m 0xf4
 40 58 50 52 50 38 c 0xf4
 50 32 49 30 48 27 c 0
 45 20 48 16 57 16 c 0
 79 16 92 37 96 63 c 0
 98 73 94 80 85 80 c 0
 79 80 68 78 57 78 c 0
 31 78 14 100 14 126 c 0xec
 14 173 49 210 89 210 c 0
 131 210 150 185 150 137 c 0
 150 75 114 -7 49 -7 c 0
 27 -7 5 3 5 29 c 0
 5 45 14 58 29 58 c 0xf4
89 186 m 0
 65 186 53 154 53 124 c 0xec
 53 106 59 101 74 101 c 0
 83 101 92 106 98 112 c 0
 108 122 111 145 111 163 c 0
 111 181 103 186 89 186 c 0
EndSplineSet
EndChar

StartChar: Dcroat
Encoding: 272 272 176
Width: 442
VWidth: 1024
Flags: MW
HStem: -5 32<177.408 264.592> 465 31<177.408 264.592>
VStem: 25 104<117.083 374.78> 313 104<117.083 374.78>
LayerCount: 5
Fore
SplineSet
221 465 m 3
 146 465 129 366 129 246 c 3
 129 126 146 27 221 27 c 3
 296 27 313 126 313 246 c 3
 313 366 296 465 221 465 c 3
221 496 m 3
 363 496 417 378 417 246 c 3
 417 114 363 -5 221 -5 c 3
 79 -5 25 114 25 246 c 3
 25 378 79 496 221 496 c 3
EndSplineSet
EndChar

StartChar: dcroat
Encoding: 273 273 177
Width: 304
VWidth: 0
Flags: MW
HStem: 0 32<76.0206 131.987 231.694 286.996> 469 20G<147.5 162.5 211 221.5>
VStem: 136 92<34.9078 322.994>
LayerCount: 5
Fore
SplineSet
108 308 m 2
 57 235 l 2
 49 224 41 219 35 219 c 0
 29 219 25 224 25 232 c 0
 25 237 27 243 30 250 c 10
 98 387 l 2
 133 457 136 489 159 489 c 3
 166 489 176 485 189 485 c 3
 204 485 206 489 216 489 c 3
 227 489 228 480 228 468 c 2
 228 71 l 2
 228 38 239 36 265 32 c 0
 282 30 287 29 287 16 c 0
 287 4 284 0 267 0 c 2
 98 0 l 2
 79 0 76 6 76 17 c 0
 76 30 83 31 99 32 c 0
 132 34 136 49 136 71 c 2
 136 300 l 2
 136 315 132 323 126 323 c 0
 121 323 115 317 108 308 c 2
EndSplineSet
EndChar

StartChar: Emacron
Encoding: 274 274 178
Width: 443
VWidth: 1024
Flags: HMW
HStem: -6 96<236.314 345.173> 67 59<137.758 198.983> 459 39<146.06 272.895>
VStem: 35 31<-5.51705 39.8591> 52 86<326.942 421.695> 309 100<292.082 425.515> 379 34<121.399 183.419>
LayerCount: 5
Fore
SplineSet
245 498 m 3xac
 344 498 409 432 409 355 c 3
 409 288 356 244 278 221 c 0
 245 211 195 204 158 174 c 0
 146 165 115 126 158 126 c 0x6c
 236 126 255 90 305 90 c 3
 340 90 369 122 379 149 c 0
 385 166 390 185 401 185 c 3
 410 185 413 177 413 167 c 0
 413 97 364 -6 288 -6 c 3xa2
 231 -6 211 67 135 67 c 3x62
 112 67 80 51 66 16 c 0
 60 0 57 -6 46 -6 c 3
 38 -6 35 2 35 21 c 0xb2
 37 124 102 188 180 228 c 0
 257 267 309 281 309 355 c 3
 309 419 274 459 213 459 c 3
 183 459 138 451 138 421 c 3
 138 393 176 396 176 347 c 3
 176 316 154 290 112 290 c 3
 83 290 52 312 52 350 c 3
 52 432 124 498 245 498 c 3xac
EndSplineSet
EndChar

StartChar: emacron
Encoding: 275 275 179
Width: 406
VWidth: 1024
Flags: MW
HStem: -9 39<123.245 255.601> 231 33<133.052 234.641> 459 36<122.01 251.05>
VStem: 25 96<47 142.634> 34 78<345 433.222> 282 90<301.473 434.044> 284 1<130 252>
LayerCount: 5
Fore
SplineSet
202 495 m 3xec
 311 495 372 444 372 366 c 3xec
 372 275 285 273 285 252 c 3
 285 233 381 222 381 126 c 3
 381 35 296 -9 206 -9 c 3
 108 -9 25 43 25 115 c 3
 25 162 57 188 95 188 c 3
 130 188 154 160 154 128 c 3
 154 80 121 79 121 54 c 3
 121 40 143 30 184 30 c 3
 275 30 284 81 284 130 c 3xf2
 284 220 223 223 149 231 c 0
 141 232 133 235 133 249 c 3
 133 259 137 263 148 264 c 0
 263 270 282 304 282 371 c 3
 282 424 254 459 191 459 c 3
 136 459 112 442 112 424 c 3
 112 399 157 402 157 352 c 3
 157 329 141 300 98 300 c 3
 62 300 34 323 34 367 c 3
 34 456 128 495 202 495 c 3xec
EndSplineSet
EndChar

StartChar: Ebreve
Encoding: 276 276 180
Width: 445
VWidth: 0
Flags: MW
HStem: 0 32<167.018 226.555 328.458 385.965> 123 37<84.0051 229.435 324.122 419.998>
VStem: 25 59<138 179.677> 158 137<428.232 494.832> 231 92<35.3252 122.056 160.787 317.906>
LayerCount: 5
Fore
SplineSet
231 91 m 2xe8
 231 114 222 123 198 123 c 2
 41 123 l 2
 26 123 25 135 25 141 c 0
 25 150 28 155 44 178 c 0
 130 302 136 364 158 471 c 0
 163 495 172 500 182 500 c 3
 204 500 213 495 232 495 c 3
 254 495 265 500 281 500 c 3
 290 500 295 496 295 488 c 3xf0
 295 460 272 418 205 323 c 0
 140 231 84 191 84 170 c 3
 84 161 91 160 103 160 c 2
 199 160 l 2
 226 160 231 173 231 191 c 2
 231 262 l 2
 231 280 235 298 245 309 c 0
 267 334 269 336 294 366 c 0
 304 379 323 386 323 360 c 2
 323 188 l 2
 323 171 328 160 349 160 c 2
 395 160 l 2
 418 160 420 155 420 142 c 3
 420 130 420 123 395 123 c 2
 351 123 l 2
 332 123 323 112 323 96 c 2
 323 71 l 2
 323 41 340 34 360 32 c 0
 378 30 386 32 386 15 c 0
 386 0 374 0 355 0 c 2
 188 0 l 2
 170 0 167 3 167 17 c 0
 167 30 173 31 189 32 c 0
 213 35 231 36 231 71 c 2
 231 91 l 2xe8
EndSplineSet
EndChar

StartChar: ebreve
Encoding: 277 277 181
Width: 393
VWidth: 1024
Flags: HMW
HStem: -9 35<120.116 223.899> 276 42<109.149 234.004> 399 80<96.7938 294.077> 409 86<65.5 190.4>
VStem: 25 92<46.3335 128.5> 268 100<75.2978 240.683>
LayerCount: 5
Fore
SplineSet
74 495 m 3xdc
 104 495 141 479 196 479 c 3
 254 479 310 491 330 494 c 0
 345 496 350 488 345 476 c 0
 320 421 267 399 189 399 c 3xec
 154 399 128 409 107 409 c 3
 93 409 86 404 85 389 c 2
 80 315 l 2
 79 299 87 294 93 294 c 3
 114 294 139 318 212 318 c 3
 309 318 368 258 368 160 c 3
 368 73 312 -9 177 -9 c 3
 102 -9 25 32 25 108 c 3
 25 149 46 184 87 184 c 3
 126 184 152 160 152 122 c 3
 152 80 117 70 117 50 c 3
 117 33 146 26 169 26 c 3
 251 26 268 106 268 161 c 3
 268 232 239 276 165 276 c 3
 123 276 86 247 70 227 c 0
 56 209 39 211 39 234 c 3
 39 246 43 278 44 304 c 2
 47 382 l 2
 49 419 47 448 49 473 c 0
 50 493 57 495 74 495 c 3xdc
EndSplineSet
EndChar

StartChar: Edotaccent
Encoding: 278 278 182
Width: 413
VWidth: 1024
Flags: MW
HStem: -5 35<166.006 266.839> 249 40<167.782 272.196> 461 35<176.964 286.461>
VStem: 32 95<110.933 367.187> 288 84<373 452.525> 294 94<69.5401 229.936>
LayerCount: 5
Fore
SplineSet
224 249 m 3xf4
 199 249 166 232 153 217 c 0
 138 199 127 177 127 126 c 3
 127 102 142 30 221 30 c 3
 284 30 294 89 294 152 c 3
 294 206 279 249 224 249 c 3xf4
238 496 m 3
 323 496 372 450 372 392 c 3
 372 354 348 320 304 320 c 3
 270 320 249 340 249 375 c 3
 249 417 288 420 288 441 c 3xf8
 288 453 271 461 240 461 c 3
 142 461 127 383 127 315 c 3
 127 275 133 267 144 267 c 3
 161 267 204 289 255 289 c 3
 346 289 388 232 388 150 c 3
 388 57 313 -5 227 -5 c 3
 88 -5 32 101 32 242 c 3
 32 386 100 496 238 496 c 3
EndSplineSet
EndChar

StartChar: edotaccent
Encoding: 279 279 183
Width: 426
VWidth: 1024
Flags: MW
HStem: -1 21G<210.5 222.5> 345 83<229.5 338.609> 411 85<124.812 221.351>
VStem: 25 31<333.007 378.014 445.553 493.982> 105 130<5.15601 82.4391> 369 32<441.365 493.817>
LayerCount: 5
Fore
SplineSet
315 358 m 0xdc
 300 351 280 345 259 345 c 3xdc
 200 345 193 411 129 411 c 3xbc
 87 411 66 380 56 343 c 0
 51 325 25 318 25 345 c 0xdc
 25 355 28 371 28 402 c 3
 28 431 25 459 25 472 c 0
 25 488 32 494 41 494 c 3
 49 494 55 481 57 469 c 0
 61 447 73 435 98 454 c 0
 123 472 143 496 190 496 c 3xbc
 260 496 270 428 322 428 c 3
 350 428 365 452 369 475 c 0
 371 487 379 494 387 494 c 0
 396 494 401 490 401 479 c 3
 401 391 379 293 317 215 c 0
 259 142 245 100 235 14 c 0
 234 4 227 -1 218 -1 c 3
 203 -1 200 5 170 5 c 3
 139 5 132 -3 119 -3 c 3
 108 -3 105 3 105 16 c 3
 105 128 297 223 339 336 c 0
 350 364 340 370 315 358 c 0xdc
EndSplineSet
EndChar

StartChar: Eogonek
Encoding: 280 280 184
Width: 430
VWidth: 1024
Flags: MW
HStem: -7 38<123.336 288.763> 220 66<182.684 237.334> 458 37<132.2 296.618>
VStem: 25 39<76.6465 177.859> 35 67<345.72 428.007> 320 85<66.5996 154.011> 351 38<312.355 410.626>
LayerCount: 5
Fore
SplineSet
156 220 m 3xf4
 119 220 64 178 64 124 c 3
 64 62 143 31 213 31 c 3
 298 31 320 73 320 105 c 3
 320 165 223 220 156 220 c 3xf4
218 458 m 3
 177 458 102 450 102 388 c 3
 102 326 223 286 273 286 c 3
 306 286 351 313 351 357 c 3xea
 351 420 288 458 218 458 c 3
218 495 m 3
 299 495 389 449 389 357 c 3xea
 389 293 341 272 341 251 c 3
 341 223 405 202 405 134 c 3
 405 57 329 -7 213 -7 c 3
 118 -7 25 37 25 124 c 3xf4
 25 206 93 227 93 250 c 3
 93 269 35 292 35 354 c 3
 35 453 121 495 218 495 c 3
EndSplineSet
EndChar

StartChar: eogonek
Encoding: 281 281 185
Width: 413
VWidth: 1024
Flags: MW
HStem: -5 35<133.539 243.036> 202 40<147.804 252.218> 461 35<153.161 253.994>
VStem: 32 94<261.064 421.46> 48 84<38.4747 118> 293 95<123.813 380.067>
LayerCount: 5
Fore
SplineSet
196 242 m 3xf4
 221 242 254 259 267 274 c 0
 282 292 293 314 293 365 c 3
 293 389 278 461 199 461 c 3
 136 461 126 402 126 339 c 3
 126 285 141 242 196 242 c 3xf4
182 -5 m 3
 97 -5 48 41 48 99 c 3
 48 137 72 171 116 171 c 3
 150 171 171 151 171 116 c 3
 171 74 132 71 132 50 c 3xec
 132 38 149 30 180 30 c 3
 278 30 293 108 293 176 c 3
 293 216 287 224 276 224 c 3
 259 224 216 202 165 202 c 3
 74 202 32 259 32 341 c 3
 32 434 107 496 193 496 c 3
 332 496 388 390 388 249 c 3
 388 105 320 -5 182 -5 c 3
EndSplineSet
EndChar

StartChar: Gdotaccent
Encoding: 288 288 186
Width: 442
VWidth: 1024
Flags: MW
HStem: -5 34<171.666 270.334> 467 33<172.096 265.873>
VStem: 25 97<120.242 375.484> 320 97<120.242 375.484>
LayerCount: 5
Fore
SplineSet
221 467 m 3
 148 467 122 388 122 278 c 2
 122 218 l 2
 122 108 146 29 221 29 c 3
 296 29 320 108 320 218 c 2
 320 269 l 2
 320 379 294 467 221 467 c 3
221 500 m 3
 363 500 417 380 417 248 c 3
 417 116 363 -5 221 -5 c 3
 79 -5 25 116 25 248 c 3
 25 380 79 500 221 500 c 3
EndSplineSet
EndChar

StartChar: gdotaccent
Encoding: 289 289 187
Width: 319
VWidth: 0
Flags: MW
HStem: 0 35<64 140.283 230.116 303> 470 20G<150 156.5 219 226.5>
VStem: 141 89<35.1879 336.539>
LayerCount: 5
Fore
SplineSet
141 60 m 2
 141 324 l 2
 141 352 128 353 118 334 c 2
 59 228 l 2
 53 217 44 216 33 223 c 0
 25 228 24 234 29 243 c 10
 144 483 l 2
 146 488 148 490 152 490 c 0
 161 490 173 480 187 480 c 3
 203 480 214 490 224 490 c 0
 229 490 230 487 230 480 c 2
 230 55 l 2
 230 38 240 35 256 35 c 2
 292 35 l 2
 299 35 303 34 303 23 c 2
 303 12 l 2
 303 1 300 0 288 0 c 2
 79 0 l 2
 67 0 64 1 64 12 c 2
 64 23 l 2
 64 34 68 35 74 35 c 2
 115 35 l 2
 131 35 141 42 141 60 c 2
EndSplineSet
EndChar

StartChar: gcommaaccent
Encoding: 291 291 188
Width: 405
VWidth: 1024
Flags: MW
HStem: -5 35<122.414 254.869> 234 35<133.142 152 154 241.082> 467 33<123.961 253.21>
VStem: 25 123<73.5748 164.209> 34 111<322.918 407.963> 282 89<305.242 438.688> 285 95<65.0144 201.152>
LayerCount: 5
Fore
SplineSet
154 234 m 2xf4
 228 234 285 224 285 134 c 3
 285 85 280 30 189 30 c 3
 165 30 142 36 126 44 c 0
 111 52 116 65 128 75 c 0
 139 84 148 98 148 122 c 3
 148 155 118 180 88 180 c 3
 50 180 25 149 25 111 c 3
 25 46 102 -5 200 -5 c 3
 290 -5 380 40 380 138 c 3xf2
 380 193 340 225 310 242 c 0
 290 253 292 258 311 270 c 0
 338 287 371 319 371 371 c 3
 371 451 298 500 202 500 c 3
 116 500 34 451 34 374 c 3
 34 339 54 311 90 311 c 3
 131 311 145 345 145 367 c 3xec
 145 392 130 408 114 415 c 0
 103 421 100 433 112 443 c 0
 134 461 166 467 195 467 c 7
 261 467 282 429 282 376 c 3
 282 309 260 269 154 269 c 2
 148 269 l 2
 141 269 133 265 133 253 c 2
 133 250 l 2
 133 238 140 234 152 234 c 2
 154 234 l 2xf4
EndSplineSet
EndChar

StartChar: Hcircumflex
Encoding: 292 292 189
Width: 446
VWidth: 0
Flags: MW
HStem: 0 35<156 171 207 232.283 322.116 348 380 395> 132 37<89.0922 103 200 231.44 323.122 350 406 421> 476 21G<230 257.5>
VStem: 233 89<35.1879 60 100 131.056 169.336 200 260 305.227>
LayerCount: 5
Fore
SplineSet
406 132 m 2
 418 132 421 132 421 144 c 2
 421 157 l 2
 421 169 417 169 410 169 c 2
 348 169 l 2
 327 169 322 180 322 197 c 2
 322 366 l 2
 322 382 310 377 300 363 c 0
 278 333 268 321 246 295 c 0
 236 283 233 278 233 260 c 2
 233 200 l 2
 233 182 232 169 205 169 c 2
 103 169 l 2
 80 169 80 177 90 192 c 0
 137 258 213 307 303 462 c 0
 305 466 309 476 309 482 c 4
 309 488 305 490 300 490 c 4
 286 490 273 476 242 476 c 7
 218 476 196 490 181 490 c 7
 177 490 173 489 171 480 c 4
 146 361 113 286 27 162 c 0
 19 151 22 132 37 132 c 2
 200 132 l 2
 224 132 233 123 233 100 c 2
 233 60 l 2
 233 42 223 35 207 35 c 2
 166 35 l 2
 160 35 156 34 156 23 c 2
 156 12 l 2
 156 1 159 0 171 0 c 2
 380 0 l 2
 392 0 395 1 395 12 c 2
 395 23 l 2
 395 34 391 35 384 35 c 2
 348 35 l 2
 332 35 322 38 322 55 c 10
 322 105 l 18
 322 121 331 132 350 132 c 2
 406 132 l 2
EndSplineSet
EndChar

StartChar: Hbar
Encoding: 294 294 190
Width: 401
VWidth: 1024
Flags: MW
HStem: -5 35<152.273 259.81> 246 39<149.416 263.608> 469 31<171.452 278.19>
VStem: 25.0137 89<106.841 216.502 260.281 365.647> 249.014 116<346.963 427.094> 289.014 87<66.8467 223.082>
LayerCount: 5
Fore
SplineSet
25.0137 242 m 0xf8
 24.0137 101 77.0137 -5 210.014 -5 c 0
 303.014 -5 376.014 53 376.014 145 c 0xf4
 376.014 234 311.014 285 225.014 285 c 0
 199.014 285 171.014 279 141.014 263 c 0
 126.014 255 114.014 252 114.014 278 c 2
 114.014 293 l 2
 114.014 392 138.014 469 233.014 469 c 0
 244.014 469 254.014 467 261.014 465 c 0
 288.014 457 282.014 439 267.014 424 c 0
 258.014 415 249.014 403 249.014 382 c 0
 249.014 355 268.014 329 302.014 329 c 0
 337.014 329 364.014 360 365.014 398 c 0
 365.014 451 316.014 500 231.014 500 c 3
 93.0137 500 25.0137 386 25.0137 242 c 0xf8
210.014 246 m 0
 265.014 246 289.014 212 289.014 142 c 0
 289.014 77 271.014 30 208.014 30 c 0
 142.014 30 114.014 69 114.014 170 c 0
 114.014 189 119.014 201 131.014 212 c 0
 157.014 237 184.014 246 210.014 246 c 0
EndSplineSet
EndChar

StartChar: hbar
Encoding: 295 295 191
Width: 413
VWidth: 1024
Flags: MW
HStem: 339 75<247.186 321.109> 405 83<101.605 171.905>
VStem: 25 35<302.06 389.035 445.5 493.94> 91 127<-1 75.8181> 348 35<435.928 493.942>
LayerCount: 5
Fore
SplineSet
59 322 m 0x78
 59 311 59 302 45 302 c 2
 41 302 l 2
 29 302 25 305 25 321 c 2
 25 475 l 2
 25 491 29 494 41 494 c 2
 45 494 l 2
 57 494 60 488 60 479 c 2
 60 456 l 2
 60 438 74 436 86 450 c 0
 107 475 126 488 155 488 c 0x78
 220 488 242 414 294 414 c 0
 325 414 346 438 348 475 c 0
 349 494 352 494 364 494 c 2
 367 494 l 2
 379 494 383 491 383 479 c 2
 383 467 l 2
 383 239 218 165 218 7 c 0
 218 -2 213 -3 209 -3 c 0
 194 -3 177 8 153 8 c 0
 122 8 114 -3 100 -3 c 0
 95 -3 91 -1 91 5 c 0
 91 127 248 196 317 319 c 0
 329 341 335 368 289 346 c 0
 281 342 271 339 260 339 c 0xb8
 194 339 179 405 115 405 c 0
 86 405 59 387 59 322 c 0x78
EndSplineSet
EndChar

StartChar: Itilde
Encoding: 296 296 192
Width: 411
VWidth: 1024
Flags: MW
HStem: -5 38<114.151 269.496> 464 36<138.84 281.399>
VStem: 25 42<70.7509 174.247> 37 68<347.528 430.646> 301 85<67.6803 162.944> 326 39<321.988 426.736>
LayerCount: 5
Fore
SplineSet
67 121 m 0xe8
 67 58 135 33 205 33 c 0
 275 33 301 78 301 110 c 0
 301 164 254 188 200 210 c 0
 178 218 166 219 144 211 c 0
 95 193 67 161 67 121 c 0xe8
326 378 m 0xd4
 326 428 276 464 208 464 c 0
 167 464 105 446 105 393 c 0
 105 344 162 320 225 294 c 0
 252 282 261 281 284 299 c 0
 310 319 326 346 326 378 c 0xd4
83 267 m 0
 55 288 37 318 37 362 c 0
 37 443 111 500 208 500 c 0
 290 500 365 454 365 378 c 0xd4
 365 346 353 318 334 296 c 0
 315 272 311 256 339 234 c 0
 367 210 386 181 386 139 c 0
 386 62 321 -5 205 -5 c 0
 110 -5 25 34 25 121 c 0xe8
 25 162 45 194 78 217 c 0
 102 235 110 245 83 267 c 0
EndSplineSet
EndChar

StartChar: itilde
Encoding: 297 297 193
Width: 401
VWidth: 1024
Flags: MW
HStem: -5 31<125.793 214.014> 209 39<137.405 251.597> 465 35<145.691 247.203>
VStem: 25 87<272.098 426.233> 33 115<55.6636 147.683> 287 89<149.457 389.37>
LayerCount: 5
Fore
SplineSet
376 262 m 0xec
 376 404 315 500 196 500 c 0
 104 500 25 443 25 351 c 0xf4
 25 262 90 209 176 209 c 0
 202 209 230 215 260 231 c 0
 275 239 287 242 287 216 c 2
 287 201 l 2
 287 134 254 32 168 26 c 0
 157 25 147 28 140 30 c 0
 116 38 123 54 134 67 c 0
 142 77 148 89 148 108 c 0
 148 137 126 162 92 162 c 0
 60 162 33 136 33 95 c 0
 33 44 85 -5 170 -5 c 3
 296 -5 376 135 376 262 c 0xec
191 248 m 0
 136 248 112 284 112 354 c 0
 112 419 138 465 195 465 c 0
 251 465 287 425 287 324 c 0
 287 305 282 293 270 282 c 0
 244 257 217 248 191 248 c 0
EndSplineSet
EndChar

StartChar: Idotaccent
Encoding: 304 304 194
Width: 401
VWidth: 1024
Flags: MW
HStem: -5 31<125.793 214.014> 209 39<137.405 251.597> 465 35<145.691 247.203>
VStem: 25 87<272.098 426.233> 33 115<55.6636 147.683> 287 89<149.457 389.37>
LayerCount: 5
Fore
SplineSet
376 262 m 0xec
 376 404 315 500 196 500 c 0
 104 500 25 443 25 351 c 0xf4
 25 262 90 209 176 209 c 0
 202 209 230 215 260 231 c 0
 275 239 287 242 287 216 c 2
 287 201 l 2
 287 134 254 32 168 26 c 0
 157 25 147 28 140 30 c 0
 116 38 123 54 134 67 c 0
 142 77 148 89 148 108 c 0
 148 137 126 162 92 162 c 0
 60 162 33 136 33 95 c 0
 33 44 85 -5 170 -5 c 3
 296 -5 376 135 376 262 c 0xec
191 248 m 0
 136 248 112 284 112 354 c 0
 112 419 138 465 195 465 c 0
 251 465 287 425 287 324 c 0
 287 305 282 293 270 282 c 0
 244 257 217 248 191 248 c 0
EndSplineSet
EndChar

StartChar: eth
Encoding: 240 240 199
Width: 442
Flags: HMW
LayerCount: 5
Fore
SplineSet
221 465 m 0
 146 465 113 366 113 246 c 0
 113 126 146 27 221 27 c 0
 296 27 329 126 329 246 c 0
 329 366 296 465 221 465 c 0
221 496 m 0
 363 496 417 378 417 246 c 0
 417 114 363 -5 221 -5 c 0
 79 -5 25 114 25 246 c 0
 25 378 79 496 221 496 c 0
EndSplineSet
EndChar

StartChar: ntilde
Encoding: 241 241 200
Width: 313
Flags: HMW
LayerCount: 5
Fore
SplineSet
84 0 m 0
 66 0 64 5 64 17 c 0
 64 26 67 31 84 33 c 0
 116 37 l 0
 133 39 141 45 141 75 c 0
 141 327 l 0
 141 360 127 352 113 335 c 0
 59 268 l 0
 32 235 15 254 32 284 c 0
 105 413 l 0
 134 465 139 489 157 489 c 0
 165 489 171 483 184 483 c 0
 199 483 202 489 212 489 c 0
 223 489 224 480 224 468 c 0
 224 72 l 0
 224 43 234 37 250 36 c 0
 276 34 l 0
 295 33 297 26 297 17 c 0
 297 5 294 0 277 0 c 0
 84 0 l 0
EndSplineSet
EndChar

StartChar: ldot
Encoding: 320 320 201
Width: 331
VWidth: 768
Flags: MW
HStem: -4 28<128.169 203.735> 345 27<129.095 202.818>
VStem: 19 65<74.0768 294.138> 247 66<74.0768 294.138>
LayerCount: 5
Fore
SplineSet
166 345 m 3
 113 345 84 284 84 184 c 3
 84 84 113 24 166 24 c 3
 219 24 247 84 247 184 c 3
 247 284 219 345 166 345 c 3
166 372 m 7
 272 372 313 283 313 184 c 3
 313 85 272 -4 166 -4 c 3
 60 -4 19 85 19 184 c 3
 19 283 60 372 166 372 c 7
EndSplineSet
EndChar

StartChar: Lslash
Encoding: 321 321 202
Width: 242
VWidth: 0
Flags: MW
HStem: 0 29<49.0044 109.519 197 234.996> 347 20G<117.5 129 162.5 170.5>
VStem: 112 64<30.0535 244.993>
LayerCount: 5
Fore
SplineSet
89 234 m 2
 43 181 l 2
 37 174 30 171 26 171 c 0
 21 171 18 174 18 179 c 0
 18 183 19 188 22 193 c 10
 77 290 l 2
 106 342 109 367 126 367 c 3
 132 367 138 362 146 362 c 3
 155 362 159 367 166 367 c 3
 175 367 176 363 176 350 c 2
 176 58 l 6
 176 37 183 31 197 30 c 6
 215 29 l 6
 229 28 235 27 235 15 c 4
 235 4 232 0 217 0 c 6
 70 0 l 6
 53 0 49 3 49 15 c 4
 49 27 55 29 66 29 c 6
 91 30 l 6
 105 31 112 41 112 58 c 6
 112 217 l 2
 112 236 110 245 104 245 c 0
 100 245 95 241 89 234 c 2
EndSplineSet
EndChar

StartChar: Imacron
Encoding: 298 298 203
Width: 426
Flags: MW
HStem: -258 36<170.122 293.881> 219 36<198.167 307.88> 375 20G<201 216>
VStem: 0 103<-129.982 107.066> 192 31<-394.967 394.995> 323 93<87.1473 182.143> 383 35<-113.719 -36.7942>
LayerCount: 5
Fore
SplineSet
192 -377 m 2xf8
 192 382 l 2
 192 391 194 395 208 395 c 0
 224 395 223 388 223 380 c 2
 223 -378 l 2
 223 -390 221 -395 209 -395 c 0
 193 -395 192 -390 192 -377 c 2xf8
0 -16 m 0
 0 148 91 255 233 255 c 0
 340 255 416 194 416 112 c 0
 416 76 385 42 348 42 c 0
 314 42 290 68 290 102 c 0
 290 142 323 153 323 174 c 0xfc
 323 202 290 219 243 219 c 0
 117 219 103 115 103 -16 c 0
 103 -120 134 -222 230 -222 c 0
 340 -222 378 -99 383 -54 c 0
 387 -23 418 -19 418 -53 c 0xfa
 418 -121 363 -258 230 -258 c 0
 79 -258 0 -156 0 -16 c 0
EndSplineSet
EndChar

StartChar: imacron
Encoding: 299 299 204
Width: 426
Flags: MW
HStem: -258 36<170.122 293.881> 219 36<170.964 307.88>
VStem: 0 103<-129.982 107.066> 323 93<87.1473 182.143> 383 35<-113.719 -36.7942>
LayerCount: 5
Fore
SplineSet
0 -16 m 4xe8
 0 148 91 255 233 255 c 4
 340 255 416 194 416 112 c 4
 416 76 385 42 348 42 c 4
 314 42 290 68 290 102 c 4
 290 142 323 153 323 174 c 4xf0
 323 202 290 219 243 219 c 4
 117 219 103 115 103 -16 c 4
 103 -120 134 -222 230 -222 c 4
 340 -222 378 -99 383 -54 c 4
 387 -23 418 -19 418 -53 c 4
 418 -121 363 -258 230 -258 c 4
 79 -258 0 -156 0 -16 c 4xe8
EndSplineSet
EndChar

StartChar: Ibreve
Encoding: 300 300 205
Width: 418
Flags: MW
HStem: 375 20G<201 216>
VStem: 0 103<-129.84 108.113> 192 31<-394.967 -262.484 -200.206 201.714 257.096 394.995> 323 93<137.924 180.331> 383 35<-114.464 -36.7942>
LayerCount: 5
Fore
SplineSet
223 -303 m 2xe8
 223 -378 l 2
 223 -390 221 -395 209 -395 c 0
 193 -395 192 -390 192 -377 c 2
 192 -293 l 2
 192 -262 186 -257 154 -248 c 0
 53 -219 -0 -130 0 -16 c 0
 0 113 56 206 149 241 c 0
 180 252 192 250 192 287 c 2
 192 382 l 2
 192 391 194 395 208 395 c 0
 224 395 223 388 223 380 c 2
 223 289 l 2
 223 264 225 256 254 254 c 0
 350 247 416 189 416 112 c 0
 416 76 385 42 348 42 c 0
 314 42 290 68 290 102 c 0
 290 142 323 153 323 174 c 0xf0
 323 200 295 216 254 219 c 0
 223 221 223 211 223 186 c 2
 223 -166 l 2
 223 -211 222 -229 265 -218 c 0
 348 -195 379 -94 383 -54 c 0
 387 -23 418 -19 418 -53 c 0
 418 -114 374 -231 268 -254 c 0
 228 -263 223 -264 223 -303 c 2xe8
192 -162 m 2
 192 177 l 2
 192 209 178 211 156 192 c 0
 110 153 103 75 103 -16 c 0
 103 -79 114 -141 144 -180 c 0
 172 -216 192 -205 192 -162 c 2
EndSplineSet
EndChar

StartChar: ohungarumlaut
Encoding: 337 337 206
Width: 216
VWidth: 2048
Flags: MW
HStem: 0 29<0.0554085 61.5595 127.994 178.991> 340 20G<175.5 210> 340 20G<175.5 210>
LayerCount: 5
Fore
SplineSet
17 29 m 0xc0
 62 31 67 42 82 88 c 2
 126 226 l 2
 134 251 121 254 104 242 c 2
 44 198 l 2
 25 185 16 204 30 218 c 2
 159 349 l 2
 167 357 172 360 179 360 c 2
 207 360 l 2
 213 360 216 357 216 351 c 0
 216 345 213 337 210 328 c 2
 131 74 l 2
 125 54 122 34 146 30 c 0
 166 27 179 27 179 14 c 0
 179 0 170 0 156 0 c 2
 10 0 l 2
 3 0 0 5 0 13 c 0
 0 25 7 28 17 29 c 0xc0
EndSplineSet
EndChar

StartChar: oe
Encoding: 339 339 207
Width: 287
VWidth: 2048
Flags: HMW
HStem: -12 28<55.2821 141.262> 168 27<97.0176 156.961> 341 26<137.248 214.772>
VStem: -8 60<18.7921 91.6751> 73 59<256.608 333.556> 175 60<39.2204 150.109> 233 54<228.851 330.878>
LayerCount: 5
Fore
SplineSet
33 112 m 3xfc
 55 112 66 96 66 78 c 3
 66 53 52 53 52 38 c 3
 52 26 68 16 92 16 c 3
 149 16 175 51 175 110 c 3xfc
 175 154 150 165 117 168 c 0
 103 169 97 172 97 182 c 3
 97 192 101 195 115 195 c 3
 177 195 233 222 233 287 c 3
 233 316 215 341 178 341 c 3
 148.649 341 133 329 133 315 c 3
 133 301 137 300.333 137 286 c 3
 137 265.667 125.004 255 109 255 c 3
 89 255 78 267 78 289 c 3
 78 330 125.651 367 182 367 c 3
 239 367 287 339 287 277 c 3xfa
 287 241 264 212 223 191 c 0
 197 178 198 169 212 152 c 0
 222 140 235 122 235 97 c 3
 235 28.5 163 -12 104 -12 c 3
 49 -12 -8 12 -8 67 c 3
 -8 94 12 112 33 112 c 3xfc
EndSplineSet
EndChar

StartChar: racute
Encoding: 341 341 208
Width: 282
VWidth: 2048
Flags: MW
HStem: -12 29<67.829 141.275> 196 27<88.719 176.74> 301 58<103.35 261.237>
VStem: 0 70<17.8117 97> 193 59<60.7689 187.217>
LayerCount: 5
Fore
SplineSet
70 61 m 0
 70 50 67 43 67 35 c 0
 67 22 78 17 95 17 c 0
 151 17 193 71 193 131 c 0
 193 173 179 196 135 196 c 0
 101 196 80 181 65 167 c 0
 59 162 52 156 45 160 c 0
 39 163 39 171 42 182 c 2
 99 347 l 2
 102 355 108 359 116 359 c 0
 128 359 156 353 190 353 c 0
 242 353 258 358 272 358 c 3
 279 358 282 354 282 349 c 0
 282 345 280 340 276 336 c 0
 257 313 221 299 182 299 c 0
 160 299 146 301 131 301 c 0
 116 301 109 296 104 281 c 2
 90 241 l 2
 89 237 88 233 88 230 c 0
 88 223 91 218 100 218 c 3
 116 218 129 223 156 223 c 3
 206 223 252 192 252 132 c 0
 252 49 181 -12 105 -12 c 0
 51 -12 1 12 0 61 c 0
 0 83 15 100 36 100 c 0
 56 100 70 83 70 61 c 0
EndSplineSet
EndChar

StartChar: Rcommaaccent
Encoding: 342 342 209
Width: 269
VWidth: 2048
Flags: MW
HStem: -12 26<77.1 149.378> 178 29<92.1665 172.615> 258 21G<219.5 241> 339 26<139.186 205.367>
VStem: 8 51<26.1355 150.42> 186 58<48.6033 170.295> 207 59<274.039 338.317>
LayerCount: 5
Fore
SplineSet
229 258 m 3xfa
 210 258 198 270 198 286 c 3
 198 303 207 307 207 321 c 3xfa
 207 334 192 339 178 339 c 3
 145 339 119 313 104 288 c 0
 94 272 80 236 80 218 c 3
 80 206 82 198 94 198 c 3
 110 198 132 207 155 207 c 3
 212 207 244 168 244 120 c 3xfc
 244 47 184 -12 114 -12 c 0
 42 -12 8 31 8 115 c 0
 8 224 71 365 184 365 c 3
 224 365 266 344 266 298 c 3
 266 280 253 258 229 258 c 3xfa
111 14 m 0
 163 14 186 64 186 124 c 3xfc
 186 168 158 178 132 178 c 3
 108 178 90 168 76 150 c 0
 62 132 59 109 59 78 c 0
 59 32 84 14 111 14 c 0
EndSplineSet
EndChar

StartChar: rcommaaccent
Encoding: 343 343 210
Width: 270
VWidth: 2048
Flags: MW
HStem: 268 82<132.129 204.959> 285 30<204.359 247.582> 296 31<85.1645 133.201> 342 20G<287.5 294.5>
VStem: 60 84<-2.9375 60.8906>
LayerCount: 5
Fore
SplineSet
240 285 m 0x58
 228 285 202 268 182 268 c 0x88
 150 268 139 296 107 296 c 0
 85 296 74 280 67 262 c 0
 61 249 56 243 47 243 c 0
 43 243 37 247 37 254 c 0
 37 261 44 277 49 302 c 0
 56 332 57 338 60 352 c 0
 63 361 68 363 73 363 c 0
 93 363 74 327 101 327 c 0x28
 120 327 132 350 162 350 c 0x88
 198 350 206 315 232 315 c 0
 253 315 269 330 275 349 c 0
 279 360 284 362 291 362 c 0
 298 362 301 356 301 348 c 0
 301 345 301 342 300 339 c 0
 296 321 287 288 281 272 c 0
 273 250 248 210 223 179 c 0
 188 136 155 79 144 26 c 0
 140 6 136 -4 121 -4 c 3
 110 -4 108 -3 97 -3 c 3
 84 -3 85 -4 74 -4 c 3
 62 -4 60 2 60 10 c 0
 60 14 61 19 64 26 c 0
 86 72 111 119 172 180 c 0
 202 210 222 232 240 260 c 0
 246 268 248 274 248 278 c 0
 248 283 246 285 240 285 c 0x58
EndSplineSet
EndChar

StartChar: Rcaron
Encoding: 344 344 211
Width: 317
VWidth: 2048
Flags: MW
HStem: -12 28<78.3311 182.245> 338 28<146.619 242.735>
VStem: 8 34.9844<43.8739 131.742> 77 50<238.116 325.477> 210 54<33.7803 127.378> 274 35<228.414 312.231>
LayerCount: 5
Fore
SplineSet
193 366 m 0
 260 366 309 324 309 269 c 0
 309 244 297 222 276 203 c 0
 241 173 229 172 251 134 c 0
 258 122 264 107 264 89 c 0
 263 23 197 -12 128 -12 c 0
 63 -12 8 28.6667 8 90 c 0
 8 125 33 159 77 184 c 0
 102 197 104 209 90 231 c 0
 83 242 77 256 77 272 c 0
 77 325 127 366 193 366 c 0
239 214 m 0
 258 225 274 244 274 271 c 0
 274 309 237 338 197 338 c 0
 158 338 127 321 127 286 c 0
 127 264 147 235 172 215 c 0
 193 198 218 202 239 214 c 0
130 16 m 0
 180 16 210 43 210 74 c 0
 210 106 185 136 158 156 c 0
 140 170 117 168 95 158 c 0
 68.3801 146.169 42.9844 119.776 42.9844 90.2656 c 0
 42.9844 45.3333 80.923 16 130 16 c 0
EndSplineSet
EndChar

StartChar: rcaron
Encoding: 345 345 212
Width: 269
VWidth: 2048
Flags: MW
HStem: -12 26<68.6333 134.814> 146 29<101.385 181.833> 339 26<124.622 196.9>
VStem: 8 59<14.6826 78.9609> 30 58<182.705 304.397> 215 51<202.58 326.865>
LayerCount: 5
Fore
SplineSet
45 95 m 3xf4
 64 95 76 83 76 67 c 3
 76 50 67 46 67 32 c 3xf4
 67 19 82 14 96 14 c 3
 129 14 155 40 170 65 c 0
 180 81 194 117 194 135 c 3
 194 147 192 155 180 155 c 3
 164 155 142 146 119 146 c 3
 62 146 30 185 30 233 c 3xec
 30 306 90 365 160 365 c 0
 232 365 266 322 266 238 c 0
 266 129 203 -12 90 -12 c 3
 50 -12 8 9 8 55 c 3
 8 73 21 95 45 95 c 3xf4
163 339 m 0
 111 339 88 289 88 229 c 3xec
 88 185 116 175 142 175 c 3
 166 175 184 185 198 203 c 0
 212 221 215 244 215 275 c 0
 215 321 190 339 163 339 c 0
EndSplineSet
EndChar

StartChar: lslash
Encoding: 322 322 213
Width: 321
VWidth: 1024
Flags: MW
HStem: -4 68<160.157 252.028> 55 34<90.3984 137.096> 343 31<100.348 198.375>
VStem: 20 28<-3.92485 40.3071> 24 68<247.638 326.283> 226 66<217.942 321.885> 267 28<84.225 139.375>
LayerCount: 5
Fore
SplineSet
169 374 m 3xac
 243 374 292 324 292 266 c 3
 292 216 253 181 195 164 c 0
 158 153 130 149 102 125 c 0
 93 117 72 90 107 89 c 0x6c
 154 88 175 64 213 64 c 3
 239 64 258 80 267 114 c 0
 270 126 273 140 285 140 c 3
 291 140 295 134 295 126 c 0
 295 67 258 -4 201 -4 c 3xa2
 158 -4 149 55 92 55 c 3x6a
 69 55 52 40 48 12 c 0
 46 -0 42 -4 32 -4 c 3
 24 -4 20 2 20 16 c 0xb0
 22 93 65 143 122 174 c 0
 179 205 226 210 226 266 c 3
 226 314 197 343 145 343 c 3
 128 343 92 334 92 312 c 3
 92 293 105 291 105 264 c 3
 105 241 88 225 65 225 c 3
 43 225 24 243 24 271 c 3
 24 323 78 374 169 374 c 3xac
EndSplineSet
EndChar

StartChar: Nacute
Encoding: 323 323 214
Width: 305
VWidth: 1024
Flags: MW
HStem: -7 32<97.3511 195.035> 171 29<113.036 188.07> 341 30<94.8156 197.022>
VStem: 19 74<32.7554 104.509> 26 62<252.985 329.471> 217 68<40.4602 151.248> 217 61<220.447 326.828>
LayerCount: 5
Fore
SplineSet
152 371 m 3xea
 234 371 278 332 278 274 c 3xea
 278 206 219 210 219 189 c 3
 219 170 285 166 285 94 c 3
 285 26 222 -7 154 -7 c 3
 80 -7 19 30 19 83 c 3
 19 109 38 129 61 129 c 3
 86 129 101 111 101 87 c 3
 101 65 93 64 93 50 c 3
 93 39 107 25 138 25 c 3
 206 25 217 61 217 98 c 3xf4
 217 166 168 165 127 171 c 0
 118 172 113 174 113 187 c 3
 113 195 116 200 126 200 c 0
 194 201 217 228 217 278 c 3
 217 318 193 341 146 341 c 3
 105 341 88 326 88 312 c 3
 88 295 101 292 101 270 c 3
 101 247 85 232 64 232 c 3
 40 232 26 248 26 277 c 3
 26 337 96 371 152 371 c 3xea
EndSplineSet
EndChar

StartChar: nacute
Encoding: 324 324 215
Width: 355
VWidth: 0
Flags: MW
HStem: 0 29<122.004 183.745 252.847 314.996> 96 31<84.4795 184.378 251.856 339.994> 351 20G<145 154.5 210 217.5>
VStem: 132 92<299.596 364.676> 186 65<29.9688 95.8242 127.319 224.062>
LayerCount: 5
Fore
SplineSet
251 58 m 2xe8
 251 37 257.978 30.6094 272 30 c 2
 295 29 l 2
 309 28 315 27 315 15 c 0
 315 4 312 0 297 0 c 2
 143 0 l 2
 126 0 122 3 122 15 c 0
 122 27 128 28 139 29 c 2
 165 30 l 2
 179.025 30.5391 186 41 186 58 c 2
 186 69 l 2xe8
 186 93 176 96 158 96 c 2
 37 96 l 2
 26 96 25 106 25 110 c 0
 25 117 27.7428 120.499 39 138 c 0
 98.5 230.5 114 272 132 349 c 0
 136 367 141 371 149 371 c 3
 160 371 167 365 181 365 c 3
 197 365 206 371 214 371 c 3
 221 371 224 367 224 360 c 3xf0
 224 339 215.5 313.5 164 242 c 0
 128.676 192.957 101 169 87 152 c 0
 75 138 79 127 97 127 c 2
 159 127 l 2
 179 127 186 139 186 153 c 2
 186 175 l 2
 186 189 188 203 196 211 c 0
 212 229 211 227 230 249 c 0
 238 259 251 260 251 240 c 2
 251 151 l 2
 251 136 253 127 274 127 c 2
 321 127 l 2
 337 127 340 122 340 112 c 3
 340 103 338 96 321 96 c 2
 275 96 l 2
 261 96 251 90 251 73 c 2
 251 58 l 2xe8
EndSplineSet
EndChar

StartChar: Ncommaaccent
Encoding: 325 325 216
Width: 292
VWidth: 1024
Flags: MW
HStem: -7 29<91.4963 171.497> 206 32<77.2143 177.295> 302 57<74.7651 232.081> 310 61<49.5 142.937>
VStem: 19 72<27.603 94.9505> 206 66<48.8711 184.918>
LayerCount: 5
Fore
SplineSet
56 371 m 3xdc
 78 371 106 359 147 359 c 3
 191 359 233 368 248 370 c 0
 259 372 263 366 259 357 c 0
 240 316 200 302 142 302 c 3xec
 116 302 98 310 82 310 c 3
 72 310 68 306 67 295 c 2
 64 244 l 2
 63 228 72 226 78 226 c 3
 99 226 118 238 154 238 c 3
 227 238 272 194 272 120 c 3
 272 55 234 -7 133 -7 c 3
 83 -7 19 25 19 72 c 0
 19 96 35 117 61 117 c 3
 83 117 100 101 100 79 c 3
 100 57 91 54 91 39 c 3
 91 26 110 22 127 22 c 3
 189 22 206 80 206 121 c 3
 206 174 180 206 124 206 c 3
 92 206 65 185 53 170 c 0
 43 156 29 159 29 176 c 3
 29 185 32 208 33 228 c 2
 35 286 l 2
 37 314 35 336 37 355 c 0
 38 370 43 371 56 371 c 3xdc
EndSplineSet
EndChar

StartChar: ncommaaccent
Encoding: 326 326 217
Width: 302
VWidth: 1024
Flags: MW
HStem: -4 29<112.759 197.636> 184 32<112.576 201.355> 343 29<123.192 204.608>
VStem: 19 67<71.5723 289.834> 206 68<271.34 341.301> 219 63<42.4797 171.992>
LayerCount: 5
Fore
SplineSet
158 184 m 3xf4
 144 184 120 178 106 162 c 0
 92 147 86 127 86 98 c 3
 86 63 106 25 159 25 c 3
 203 25 219 58 219 109 c 3
 219 149 208 184 158 184 c 3xf4
173 372 m 3
 237 372 274 337 274 301 c 3
 274 268 256 250 230 250 c 3
 207 250 195 267 195 286 c 3
 195 307 206 311 206 326 c 3xf8
 206 336 193 343 170 343 c 3
 102 343 86 287 86 236 c 3
 86 209 94 204 102 204 c 3
 122 204 146 216 182 216 c 3
 243 216 282 174 282 112 c 3
 282 42 229 -4 165 -4 c 3
 61 -4 19 76 19 182 c 3
 19 290 69 372 173 372 c 3
EndSplineSet
EndChar

StartChar: Ncaron
Encoding: 327 327 218
Width: 306
VWidth: 1024
Flags: MW
HStem: -1 21G<140.5 149.5> 258 53<160 234.487> 303 67<83.3723 135.182>
VStem: 18 23<245.739 283.518 332.557 369.925> 70 89<4.14469 71.4004> 261 25<327.568 369.98>
LayerCount: 5
Fore
SplineSet
220 269 m 0xbc
 209 264 198 258 182 258 c 3xdc
 138 258 136 303 88 303 c 3
 63 303 48 287 41 252 c 0
 38 238 18 234 18 254 c 0
 18 262 21 279 21 302 c 3
 21 324 19 344 19 354 c 0
 19 366 23 370 31 370 c 3
 38 370 43 364 45 350 c 0
 49 322 63 329 82 347 c 0
 96 359 111 370 128 370 c 3xbc
 180 370 182 311 220 311 c 3xdc
 242 311 256 330 261 356 c 0
 263 365 268 370 274 370 c 0
 283 370 286 367 286 359 c 3
 286 293 269 219 223 161 c 0
 179 106 167 74 159 10 c 0
 158 2 153 -1 146 -1 c 3
 135 -1 134 4 112 4 c 3
 92 4 90 -2 80 -2 c 3
 72 -2 70 2 70 12 c 3
 70 96 203 160 236 252 c 0
 242 269 236 277 220 269 c 0xbc
EndSplineSet
EndChar

StartChar: ncaron
Encoding: 328 328 219
Width: 333
VWidth: 1024
Flags: MW
HStem: -5 30<98.4643 224.856> 167 46<130.25 197.353> 342 29<102.783 226.662>
VStem: 25 33<57.1026 135.138> 32 50<252.303 327.579> 246 62<40.8365 123.396> 265 33<231.616 309.101>
LayerCount: 5
Fore
SplineSet
170 371 m 0xe8
 231 371 298 337 298 268 c 0xea
 298 220 262 204 262 185 c 0
 262 160.333 308 150 308 99 c 0
 308 41 253 -5 166 -5 c 0
 95 -5 25 28 25 93 c 0xf4
 25 155 76 167.333 76 188 c 0
 76 205.667 32 222 32 268 c 0
 32 342 97 371 170 371 c 0xe8
167 342 m 0
 138.5 342 82 337 82 291 c 0
 82 245 169 213 207 213 c 0
 232 213 265 235 265 268 c 0
 265 313.5 219 342 167 342 c 0
129 167 m 0
 101 167 58 133 58 93 c 0
 58 47 117 25 169 25 c 0
 228 25 246 55 246 79 c 0xf4
 246 124 179 167 129 167 c 0
EndSplineSet
EndChar

StartChar: napostrophe
Encoding: 329 329 220
Width: 302
VWidth: 1024
Flags: MW
HStem: -4 29<98.506 174.168> 152 32<99.8951 188.193> 343 29<104.97 190.232>
VStem: 19 63<196.775 321.97> 27 71<25.6155 92.5742> 215 67<87.718 304.178>
LayerCount: 5
Fore
SplineSet
143 184 m 3xf4
 157 184 181 190 195 206 c 0
 209 221 215 241 215 270 c 3
 215 305 197 343 147 343 c 3
 101 343 82 310 82 259 c 3
 82 219 93 184 143 184 c 3xf4
124 -4 m 3
 60 -4 27 32 27 65 c 3
 27 92 44 114 70 114 c 3
 92 114 107 98 107 78 c 3
 107 58 98 55 98 42 c 3xec
 98 32 104 25 127 25 c 3
 194 25 215 81 215 132 c 3
 215 159 207 164 199 164 c 3
 179 164 161 152 125 152 c 3
 64 152 19 188 19 256 c 3
 19 326 79 372 143 372 c 3
 245 372 282 293 282 195 c 3
 282 87 228 -4 124 -4 c 3
EndSplineSet
EndChar

StartChar: iogonek
Encoding: 303 303 221
Width: 313
VWidth: 0
Flags: MW
HStem: 0 32<81.0206 136.987 227.694 282.996> 469 20G<148 160.5 207 217.5>
VStem: 141 83<34.9078 349.732>
LayerCount: 5
Fore
SplineSet
113 335 m 2
 59 268 l 2
 32 235 15 254 32 284 c 10
 105 413 l 2
 134 465 139 489 157 489 c 3
 164 489 171 486 184 486 c 3
 199 486 202 489 212 489 c 3
 223 489 224 480 224 468 c 2
 224 71 l 2
 224 38 235 36 261 32 c 0
 278 30 283 29 283 16 c 0
 283 4 280 0 263 0 c 2
 103 0 l 2
 84 0 81 6 81 17 c 0
 81 30 88 31 104 32 c 0
 137 34 141 49 141 71 c 2
 141 327 l 2
 141 360 127 352 113 335 c 2
EndSplineSet
EndChar

StartChar: Iogonek
Encoding: 302 302 222
Width: 441
VWidth: 0
Flags: MW
HStem: 0 32<167.018 231.282 324.458 381.965> 123 37<84.0051 235.435 320.122 415.998>
VStem: 25 59<138 179.646> 169 125<428.232 497.859> 237 82<36.7459 122.056 160.787 324.625>
LayerCount: 5
Fore
SplineSet
237 91 m 2xe8
 237 114 228 123 204 123 c 2
 41 123 l 2
 26 123 25 135 25 141 c 0
 25 150 28 155 44 178 c 0
 130 302 147 364 169 471 c 0
 174 495 183 500 193 500 c 3
 215 500 213 498 232 498 c 3
 254 498 264 500 280 500 c 3
 289 500 294 497 294 486 c 3xf0
 294 458 270 418 205 323 c 0
 141 230 84 191 84 170 c 3
 84 161 91 160 103 160 c 2
 205 160 l 2
 232 160 237 173 237 191 c 2
 237 269 l 2
 237 287 241 305 251 316 c 0
 273 341 265 330 290 360 c 0
 300 374 319 380 319 354 c 2
 319 188 l 2
 319 171 324 160 345 160 c 2
 391 160 l 2
 414 160 416 155 416 142 c 3
 416 130 416 123 391 123 c 2
 347 123 l 2
 328 123 319 112 319 96 c 2
 319 71 l 2
 319 41 336 34 356 32 c 0
 374 30 382 32 382 15 c 0
 382 0 370 0 351 0 c 2
 188 0 l 2
 170 0 167 3 167 17 c 0
 167 30 173 31 189 32 c 0
 213 35 237 36 237 71 c 2
 237 91 l 2xe8
EndSplineSet
EndChar

StartChar: obreve
Encoding: 335 335 223
Width: 242
VWidth: 0
Flags: MW
HStem: 0 29<57.0044 91 177.832 229.996> 347 20G<120.5 132 161 168>
VStem: 112 64<30.0989 244.993>
LayerCount: 5
Fore
SplineSet
89 234 m 2
 43 181 l 2
 37 174 30 171 26 171 c 0
 21 171 18 174 18 179 c 0
 18 183 19 188 22 193 c 10
 77 290 l 2
 108 339 112 367 129 367 c 3
 135 367 139 366 147 366 c 3
 156 366 158 367 164 367 c 3
 172 367 176 361 176 349 c 2
 176 58 l 2
 176 37 184 30 197 30 c 2
 210 29 l 2
 224 28 230 27 230 15 c 0
 230 4 227 0 212 0 c 2
 78 0 l 2
 61 0 57 3 57 15 c 0
 57 27 63 28 74 29 c 2
 91 30 l 2
 105 32 112 41 112 58 c 2
 112 217 l 2
 112 236 110 245 104 245 c 0
 100 245 95 241 89 234 c 2
EndSplineSet
EndChar

StartChar: ibreve
Encoding: 301 301 224
Width: 321
VWidth: 0
Flags: MW
HStem: -24 49<0.0200195 135.864 184.4 320.929>
VStem: 136 49<-159.939 -24.0284 24.7078 160.846>
LayerCount: 5
Fore
SplineSet
217.5 23 m 3
 252.5 23 244 25 297 25 c 3
 316 25 321 24.333 321 2 c 3
 321 -27.3809 315.259 -24 288 -24 c 3
 250 -24 236.5 -23 212.5 -23 c 3
 188.45 -23 183 -34.6943 183 -56.5 c 3
 183 -91.5 185 -83 185 -136 c 3
 185 -155 183.344 -160 162 -160 c 3
 131.065 -160 136 -154.259 136 -127 c 3
 136 -90 137 -81.5 137 -58.5 c 3
 137 -28.1787 124.087 -23 100 -23 c 3
 97.5986 -23 66.7324 -24 37 -24 c 3
 1 -24 0 -25 0 -1 c 3
 0 26.25 0.763672 25 45 25 c 3
 76 25 87.5 24 105.5 24 c 3
 128.5 24 137 36.3018 137 53 c 27
 137 80.6924 136 96.3076 136 124 c 27
 136 140.991 132.667 161 159 161 c 3
 189 161 185 148.016 185 116 c 3
 185 79.3252 184 77.0283 184 50.5 c 3
 184 37.5 195.5 23 217.5 23 c 3
EndSplineSet
EndChar

StartChar: kcommaaccent
Encoding: 311 311 225
Width: 406
VWidth: 1024
Flags: MW
HStem: -1 21G<187.5 199.5> 352 68<218.5 321.477> 411 83<115.343 177.328>
VStem: 25 31<332.453 380.29 444.391 493.982> 93 119<3.2334 82.2018> 349 32<441.365 493.817>
LayerCount: 5
Fore
SplineSet
298 365 m 0xbc
 283 358 269 352 248 352 c 3xdc
 189 352 187 411 123 411 c 3
 89 411 65 382 56 343 c 0
 52 325 25 318 25 345 c 0
 25 355 28 371 28 402 c 3
 28 431 25 459 25 472 c 0
 25 488 32 494 41 494 c 3
 49 494 55 481 57 469 c 0
 61 447 69 433 93 454 c 0
 114 473 141 494 170 494 c 3xbc
 240 494 245 420 297 420 c 3xdc
 325 420 342 441 349 475 c 0
 351 487 359 494 367 494 c 0
 376 494 381 490 381 479 c 3
 381 391 359 293 297 215 c 0
 239 142 222 100 212 14 c 0
 211 4 204 -1 195 -1 c 3
 180 -1 180 3 150 3 c 3
 119 3 120 -3 107 -3 c 3
 96 -3 93 3 93 16 c 3
 93 128 275 220 322 343 c 0
 333 371 323 377 298 365 c 0xbc
EndSplineSet
EndChar

StartChar: Obreve
Encoding: 334 334 226
Width: 314
VWidth: 768
Flags: HMW
HStem: -4 32<121.796 200.723> 182 35<123.59 206.423> 341 31<128.596 209.775>
VStem: 19 87<81.3452 283.031> 211 68<275.5 340.079> 217 79<46.6834 175.12>
LayerCount: 5
Fore
SplineSet
168 182 m 3xf4
 149 182 131 173 123 165 c 0
 110 152 106 147 106 94 c 3
 106 76 107 28 166 28 c 3
 213 28 217 76 217 114 c 3
 217 154 209 182 168 182 c 3xf4
178 372 m 3
 242 372 279 340 279 290 c 3
 279 261 257 235 224 235 c 3
 205 235 181 247 181 278 c 3
 181 314 211 311 211 327 c 3xf8
 211 336 203 341 180 341 c 3
 106 341 106 287 106 236 c 3
 106 206 114 206 123 206 c 3
 140 206 158 217 191 217 c 3
 259 217 296 174 296 112 c 3
 296 42 234 -4 170 -4 c 3
 66 -4 19 90 19 182 c 3
 19 284 74 372 178 372 c 3
EndSplineSet
EndChar

StartChar: Scaron
Encoding: 352 352 227
Width: 238
VWidth: 952
Flags: MW
HStem: -4 24<89.5709 148.638> 227 24<89.5709 150.016>
VStem: 20 44<37.2355 210.195> 173 45<36.5727 211.474>
LayerCount: 5
Fore
SplineSet
120 227 m 0
 81 227 64 188 64 124 c 0
 64 60 81 20 120 20 c 0
 159 20 173 60 173 124 c 0
 173 188 159 227 120 227 c 0
120 251 m 0
 192 251 218 191 218 124 c 0
 218 57 192 -4 120 -4 c 0
 48 -4 20 57 20 124 c 0
 20 191 48 251 120 251 c 0
EndSplineSet
EndChar

StartChar: scaron
Encoding: 353 353 228
Width: 203
VWidth: 952
Flags: MW
HStem: 0 24<29.0015 82.5575 133.216 180.191>
VStem: 87 43<27.0533 153.996>
LayerCount: 5
Fore
SplineSet
119 250 m 3
 125 250 130 248 130 240 c 2
 130 52 l 2
 130 21 151 29 174 25 c 0
 182 23 183 18 183 14 c 2
 183 12 l 2
 183 4 182 0 172 0 c 2
 39 0 l 2
 31 0 29 5 29 12 c 0
 29 16 30 23 38 24 c 0
 70 28 87 23 87 57 c 2
 87 135 l 2
 87 148 84 154 79 154 c 0
 75 154 70 151 64 145 c 2
 38 119 l 2
 35 116 32 115 29 115 c 0
 24 115 20 119 20 125 c 0
 20 127 21 130 23 133 c 2
 36 150 l 2
 60 182 77 206 99 240 c 0
 104 248 109 250 119 250 c 3
EndSplineSet
EndChar

StartChar: Tcommaaccent
Encoding: 354 354 229
Width: 234
VWidth: 952
Flags: MW
HStem: -3 43<108.691 187.233> 228 24<80.7305 153.318>
VStem: 26 52<155.543 225.244> 167 46<142.88 221.985> 193 21<54.4092 91.8426>
LayerCount: 5
Fore
SplineSet
117 228 m 0xf0
 149 228 167 212 167 181 c 0xf0
 167 146 139 140 100 118 c 0
 61 96 20 55 20 13 c 0
 20 -10 38 -10 43 7 c 0
 50 27 62 36 77 36 c 0
 110 36 107 -3 152 -3 c 0
 187 -3 214 47 214 79 c 0
 214 89 210 92 205 92 c 0
 199 92 195 86 193 75 c 0xe8
 189 58 176 40 153 40 c 0
 134 40 121 49 98 58 c 0
 76 67 77 75 96 88 c 0
 106 95 118 101 133 106 c 0
 156 114 213 130 213 177 c 0
 213 219 179 252 124 252 c 0
 63 252 26 218 26 181 c 0
 26 167 35 155 50 155 c 0
 67 155 78 165 78 181 c 0
 78 189 75 193 75 200 c 0
 75 223 100 228 117 228 c 0xf0
EndSplineSet
EndChar

StartChar: tcommaaccent
Encoding: 355 355 230
Width: 225
VWidth: 952
Flags: MW
HStem: -5 24<71.1094 145.147> 113 24<85.0331 144.625> 229 23<73.8667 144.995>
VStem: 20 53<39.4168 85.5133 162.929 227.195> 158 47<24.9288 108.265 145.886 223.395>
LayerCount: 5
Fore
SplineSet
75 186 m 0
 75 173 65 162 48 162 c 0
 34 162 24 174 24 190 c 0
 24 230 73 252 111 252 c 0
 166 252 202 225 202 187 c 3
 202 140 161 140 161 128 c 3
 161 116 205 111 205 64 c 3
 205 22 159 -5 113 -5 c 0
 67 -5 20 18 20 56 c 3
 20 72 31 86 47 86 c 3
 60 86 73 78 73 60 c 3
 73 50 68 48 68 39 c 0
 68 27 86 19 109 19 c 0
 149 19 158 43 158 69 c 0
 158 102 138 113 111 113 c 2
 101 113 l 2
 90 113 85 115 85 124 c 0
 85 134 90 137 100 137 c 2
 111 137 l 2
 146 137 157 158.01 157 189 c 0
 157 219 134 229 112 229 c 4
 92 229 70 223 70 208 c 0
 70 199 75 195 75 186 c 0
EndSplineSet
EndChar

StartChar: Tcaron
Encoding: 356 356 231
Width: 261
VWidth: 952
Flags: MW
HStem: 0 24<81.0029 132.625 176.991 226.986> 81 24<67.3462 76 115 132.811 175.844 193 225 240.976>
VStem: 81 62<198.849 250.923> 133 42<26.9766 50 61 80.9942 106.062 122 139 175.094>
LayerCount: 5
Fore
SplineSet
135 50 m 2xe0
 135 24 123 28 91 24 c 0
 83 23 81 20 81 12 c 0xe0
 81 4 85 0 93 0 c 2
 215 0 l 2
 225 0 227 5 227 13 c 0
 227 18 227 23 217 25 c 0
 195 29 175 22 175 46 c 2
 175 61 l 2
 175 73 179 81 193 81 c 2
 225 81 l 2
 239 81 241 85 241 94 c 0
 241 102 243 106 227 106 c 2
 189 106 l 2
 177 106 175 114 175 122 c 2
 175 175 l 2
 175 187 165 188 159 181 c 2
 141 160 l 2
 136 154 133 149 133 139 c 2
 133 119 l 2xd0
 133 111 131 105 115 105 c 2
 76 105 l 2
 56 105 58.9453 115.952 68.667 128.666 c 0
 94.667 162.667 143 219.333 143 243 c 0
 143 251 139 252 135 252 c 0
 128 252 127 251 115 251 c 0
 107 251 104 252 97 252 c 0
 89 252 86 252 81 236 c 0
 66 183 53 158 30 116 c 0
 25 107 20 96 20 92 c 0
 20 88 20 81 30 81 c 2
 117 81 l 2
 131 81 135 73 135 61 c 2
 135 50 l 2xe0
EndSplineSet
EndChar

StartChar: tcaron
Encoding: 357 357 232
Width: 216
VWidth: 952
Flags: MW
HStem: -4 23<71.1717 132.319> 134 24<53.0156 132.645> 205 38<53.5299 171.461>
VStem: 20 50<19.7 76.7103> 30 23<153.002 206.444> 150 46<27.187 126.544>
LayerCount: 5
Fore
SplineSet
70 34 m 0xf4
 70 20 86 19 99 19 c 0
 135 19 150 42 150 78 c 0
 150 114 132 134 99 134 c 0
 78 134 72 131 60 126 c 0
 50 121 43 114 36 114 c 0
 28 114 25 118 25 128 c 0
 25 141 30 164 30 222 c 2
 30 230 l 2
 30 245 37 249 50 249 c 0
 65 249 76 243 121 243 c 0
 142 243 164 247 174 247 c 0
 178 247 181 244 181 240 c 0
 181 230 170 222 160 216 c 0
 146 208 131 205 111 205 c 0
 98 205 87 207 68 207 c 0
 53 207 53 185 53 170 c 0xec
 53 155 57 153 62 153 c 0
 76 153 81 158 116 158 c 0
 162 158 196 130 196 80 c 0
 196 40 166 -4 97 -4 c 0
 58 -4 20 15 20 50 c 0
 20 61 27 77 46 77 c 0
 61 77 73 69 73 51 c 0
 73 44 70 41 70 34 c 0xf4
EndSplineSet
EndChar

StartChar: Tbar
Encoding: 358 358 233
Width: 220
VWidth: 1085
Flags: MW
HStem: -3 25<79.0845 147.141> 114 24<79.2788 146.308> 227 24<89.4356 144.422>
VStem: 20 45<35.1905 206.182> 145 49<171.267 226.371> 157 43<26.1859 109.594>
LayerCount: 5
Fore
SplineSet
114 114 m 3xf4
 89 114 65 99 65 69 c 3
 65 46 79 22 115 22 c 3
 145 22 157 39 157 71 c 3
 157 92 148 114 114 114 c 3xf4
145 214 m 0xf8
 145 223 140 227 123 227 c 3
 79 227 65 185 65 150 c 3
 65 132 75 132 80 132 c 3
 94 132 106 138 130 138 c 3
 171 138 200 115 200 73 c 3xf4
 200 25 163 -3 120 -3 c 3
 49 -3 20 51 20 123 c 3
 20 196 57 251 125 251 c 3
 168 251 194 228 194 200 c 3
 194 186 185 171 169 171 c 3
 152 171 143 182 143 195 c 0
 143 204 145 208 145 214 c 0xf8
EndSplineSet
EndChar

StartChar: tbar
Encoding: 359 359 234
Width: 221
VWidth: 952
Flags: MW
HStem: -1 21G<58 66 97.5 107> 184 39<107.947 161.668> 201 22<47.0044 76.5623>
VStem: 18 22<156.225 194.687 223.109 249.997> 52 64<0.114574 58.8268>
LayerCount: 5
Fore
SplineSet
124 184 m 0xd8
 105 184 93 201 74 201 c 0
 51 201 45 193 40 171 c 0
 37 158 32 156 26 156 c 0
 21 156 18 161 18 166 c 2
 18 237 l 2
 18 246 21 250 29 250 c 0
 34 250 38 247 39 240 c 0
 41 229 44 223 53 223 c 0xb8
 68 223 81 243 101 243 c 0
 124 243 129 223 151 223 c 0
 168 223 178 235 180 243 c 0
 182 249 187 252 192 252 c 0
 196 252 201 249 201 241 c 0
 201 196 191 148 159 108 c 0
 135 75 120 51 116 17 c 0
 113 4 114 -1 100 -1 c 3
 95 -1 92 0 82 0 c 3
 74 0 69 -1 63 -1 c 3
 53 -1 49 2 52 14 c 0
 67 79 151 128 163 166 c 0
 166 175 171 189 158 189 c 0
 148 189 138 184 124 184 c 0xd8
EndSplineSet
EndChar

StartChar: Utilde
Encoding: 360 360 235
Width: 229
VWidth: 952
Flags: MW
HStem: -4 26<65.7674 157.88> 108 38<79.9528 150.698> 227 24<68.797 156.142>
VStem: 20 28<38.7631 96.6252> 24 36<166.166 220.382> 170 39<30.5405 89.4613 148.329 218.8>
LayerCount: 5
Fore
SplineSet
90 108 m 3xf4
 65 108 48 86 48 66 c 3
 48 38 80 22 111 22 c 3
 146 22 170 35 170 60 c 3
 170 86 127 108 90 108 c 3xf4
113 227 m 3
 89 227 60 221 60 195 c 3xec
 60 163 114 146 138 146 c 3
 163 146 175 169 175 184 c 3
 175 207 152 227 113 227 c 3
113 251 m 3
 158 251 203 233 203 181 c 3
 203 148 178 141 178 128 c 3
 178 115 209 105 209 67 c 3
 209 30 172 -4 114 -4 c 3
 59 -4 20 23 20 68 c 3xf4
 20 104 50 116 50 129 c 3
 50 142 24 146 24 184 c 3
 24 227 68 251 113 251 c 3
EndSplineSet
EndChar

StartChar: utilde
Encoding: 361 361 236
Width: 220
VWidth: 1085
Flags: MW
HStem: -3 24<80.8763 131.024> 110 24<74.6692 140.721> 226 25<75.4297 143.133>
VStem: 20 43<138.406 220.36> 25 49<21.6193 65.8024> 155 45<44.3185 217.795>
LayerCount: 5
Fore
SplineSet
106 134 m 3xf4
 131 134 155 149 155 179 c 3
 155 202 145 226 109 226 c 3
 79 226 63 209 63 177 c 3
 63 156 72 134 106 134 c 3xf4
100 21 m 3
 140 21 155 63 155 98 c 3
 155 116 145 116 140 116 c 3
 126 116 118 110 97 110 c 3
 56 110 20 133 20 175 c 3xf4
 20 223 65 251 108 251 c 3
 179 251 200 197 200 125 c 3
 200 52 157 -3 100 -3 c 3
 52 -3 25 16 25 41 c 0
 25 55 35 66 50 66 c 0
 59 66 68 63 74 55 c 0xec
 86 38 72 21 100 21 c 3
EndSplineSet
EndChar

StartChar: umacron
Encoding: 363 363 237
Width: 225
VWidth: 952
Flags: HMW
HStem: -5 24<72.5473 145.147> 112 25<82.0147 144.276> 229 23<73.6992 144.995>
VStem: 20 56<20 83.4123 163.023 227.195> 158 47<24.9288 106.245 146.245 223.395>
LayerCount: 5
Fore
SplineSet
508 187 m 0
 508 173 498 162 481 162 c 0
 465 162 456 174 456 190 c 0
 456 230 505 252 543 252 c 0
 598 252 634 225 634 187 c 0
 634 142 598 144 598 128 c 0
 598 112 637 110 637 64 c 0
 637 22 591 -5 545 -5 c 0
 499 -5 452 18 452 56 c 3
 452 74 464 84 480 84 c 3
 495 84 508 75 508 58 c 3
 508 44 503 44 503 35 c 0
 503 25 518 19 541 19 c 0
 581 19 590 43 590 69 c 0
 590 109 557 112 530 112 c 0
 519 112 514 115 514 124 c 0
 514 134 519 137 529 137 c 0
 577 137 589 153 589 189 c 0
 589 219 566 229 544 229 c 0
 524 229 503 223 503 211 c 0
 503 202 508 197 508 187 c 0
299 187 m 0xf8
 299 170 289 160 271 160 c 0
 255 160 245 172 245 190 c 0
 245 230 294 252 332 252 c 0
 387 252 423 225 423 187 c 0
 423 142 387 144 387 128 c 0xf8
 387 112 426 110 426 64 c 0
 426 22 380 -5 334 -5 c 0
 288 -5 241 18 241 56 c 3
 241 74 254 86 270 86 c 3
 289 86 299 75 299 58 c 3
 299 44 294 47 294 35 c 0
 294 25 307 19 330 19 c 0
 370 19 379 43 379 69 c 0xf4
 379 109 347 111 326 112 c 0
 315 113 310 117 310 124 c 0
 310 131 315 137 325 137 c 0
 366 138 378 153 378 189 c 0
 378 219 355 229 333 229 c 0
 313 229 293 223 293 211 c 0
 293 202 299 197 299 187 c 0xf8
75 186 m 0
 75 173 65 162 48 162 c 0
 34 162 24 174 24 190 c 0
 24 230 73 252 111 252 c 0
 166 252 202 225 202 187 c 0
 202 142 166 144 166 128 c 0
 166 112 205 110 205 64 c 0
 205 22 159 -5 113 -5 c 0
 67 -5 20 18 20 56 c 3
 20 72 31 86 47 86 c 3
 60 86 73 78 73 60 c 3
 73 50 68 48 68 39 c 0
 68 27 86 19 109 19 c 0
 149 19 158 43 158 69 c 0
 158 109 125 112 98 112 c 0
 87 112 82 115 82 124 c 0
 82 134 87 137 97 137 c 0
 145 137 157 153 157 189 c 0
 157 219 134 229 112 229 c 0
 92 229 70 223 70 208 c 0
 70 199 75 195 75 186 c 0
EndSplineSet
EndChar

StartChar: Ubreve
Encoding: 364 364 238
Width: 264
VWidth: 952
Flags: MW
HStem: 0 23<84.02 135.059 182.76 233.994 333.014 384.919 432.681 482.994 604.012 654.974 700.683 749.961> 74 24<63.0001 78 118 135.877 181.859 200 228 243.976> 81 24<312 327 367 384.811 431.844 449 479 494.976 577 592 638 655.811 698.844 716 748 763.976>
VStem: 20 43<83 129.385> 85 69<198.973 249.795> 136 45<24.9766 48 54 73.9942 99.0625 115 122 156.781> 271 41<90 139.889> 317 68<198.145 249.807> 385 46<24.9766 48 61 80.9942 106.062 122 153 191.688> 536 41<90 134.832> 597 62<200.797 250.923> 656 42<26.9766 50 61 80.9942 106.062 122 149 185.094>
LayerCount: 5
Fore
SplineSet
658 50 m 2xb260
 658 24 646 28 614 24 c 0
 606 23 604 20 604 12 c 0
 604 4 608 0 616 0 c 2
 738 0 l 2
 748 0 750 5 750 13 c 0
 750 18 750 23 740 25 c 0
 718 29 698 22 698 46 c 2
 698 61 l 2
 698 73 702 81 716 81 c 2
 748 81 l 2
 762 81 764 85 764 94 c 0
 764 102 766 106 750 106 c 2
 712 106 l 2
 700 106 698 114 698 122 c 2
 698 185 l 2
 698 197 688 198 682 191 c 2
 664 170 l 2
 659 164 656 159 656 149 c 2
 656 119 l 2xb250
 656 111 654 105 638 105 c 2
 592 105 l 2
 577 105 577 109 577 113 c 0
 577 119 581 134 619 177 c 0
 649 212 659 232 659 243 c 0
 659 251 655 252 651 252 c 0
 644 252 643 251 631 251 c 0
 623 251 620 252 613 252 c 0
 605 252 602 252 597 236 c 0
 582 183 569 158 546 116 c 0
 541 107 536 96 536 92 c 0
 536 88 536 81 546 81 c 2
 640 81 l 2
 654 81 658 73 658 61 c 2
 658 50 l 2xb260
387 48 m 2
 387 22 375 26 343 22 c 0
 335 21 333 15 333 11 c 0
 333 4 337 0 345 0 c 2
 471 0 l 2
 481 0 483 4 483 12 c 0
 483 17 483 21 473 23 c 0
 451 27 431 20 431 44 c 2
 431 61 l 2
 431 73 435 81 449 81 c 2
 479 81 l 2
 493 81 495 85 495 94 c 0
 495 102 497 106 481 106 c 2
 445 106 l 2
 433 106 431 114 431 122 c 2
 431 196 l 2
 431 208 420 210 415 202 c 0
 408 194 402 185 393 174 c 0
 389 168 385 163 385 153 c 2
 385 119 l 2xb2c0
 385 111 383 105 367 105 c 2
 327 105 l 2
 312 105 312 109 312 113 c 0
 312 119 314 132 349 177 c 0
 378 216 385 232 385 243 c 0
 385 251 381 252 377 252 c 0
 369 252 368 250 354 250 c 0
 342 250 343 252 333 252 c 0
 325 252 320 252 317 236 c 1xb340
 308 181 300 159 281 116 c 0
 277 107 271 96 271 92 c 0
 271 88 272 81 287 81 c 2
 369 81 l 2
 383 81 387 73 387 61 c 2
 387 48 l 2
137 48 m 2
 137 22 126 26 94 22 c 0
 86 21 84 15 84 11 c 0
 84 4 87 0 95 0 c 2
 222 0 l 2
 232 0 234 4 234 12 c 0
 234 17 234 21 224 23 c 0
 202 27 181 20 181 44 c 2
 181 54 l 2
 181 66 185 74 200 74 c 2
 228 74 l 2
 242 74 244 78 244 87 c 0
 244 95 246 99 230 99 c 2
 195 99 l 2
 183 99 181 107 181 115 c 2
 181 157 l 2
 181 169 172 170 165 164 c 0
 158 157 154 153 144 143 c 0
 139 138 136 132 136 122 c 2
 136 112 l 2xd640
 136 104 133 98 118 98 c 2
 78 98 l 2
 63 98 63 106 63 110 c 0
 63 116 75 136 114 177 c 0
 148 214 154 232 154 243 c 0
 154 251 150 252 145 252 c 0
 137 252 138 250 124 250 c 0
 112 250 113 252 103 252 c 0
 97 252 91 254 85 232 c 0
 68 172 48 143 30 109 c 0
 22 94 20 89 20 85 c 0
 20 81 21 74 36 74 c 2
 120 74 l 2xda40
 134 74 137 66 137 54 c 2
 137 48 l 2
EndSplineSet
EndChar

StartChar: ubreve
Encoding: 365 365 239
Width: 216
VWidth: 952
Flags: MW
HStem: -4 23<71.7266 132.319> 134 24<53.0156 132.645> 205 38<53.5299 171.461>
VStem: 20 51<19.2902 75.4141> 30 23<153.002 206.444> 150 46<27.187 126.544>
LayerCount: 5
Fore
SplineSet
71 35 m 4xf4
 71 19 86 19 99 19 c 4
 135 19 150 42 150 78 c 4
 150 114 132 134 99 134 c 4
 78 134 72 131 60 126 c 4
 50 121 43 114 36 114 c 4
 28 114 25 118 25 128 c 4
 25 141 30 164 30 222 c 6
 30 230 l 6
 30 245 37 249 50 249 c 4
 65 249 76 243 121 243 c 4
 142 243 164 247 174 247 c 4
 178 247 181 244 181 240 c 4
 181 230 170 222 160 216 c 4
 146 208 131 205 111 205 c 4
 98 205 87 207 68 207 c 4
 53 207 53 185 53 170 c 4xec
 53 155 57 153 62 153 c 4
 76 153 81 158 116 158 c 4
 162 158 196 130 196 80 c 4
 196 40 166 -4 97 -4 c 4
 58 -4 20 11 20 44 c 4
 20 55 25 76 48 76 c 4
 63 76 74 68 74 52 c 4
 74 45 71 42 71 35 c 4xf4
EndSplineSet
EndChar

StartChar: uogonek
Encoding: 371 371 240
Width: 216
VWidth: 2048
Flags: MW
HStem: -8 25<50.5753 113.66> 113 22<74.0474 120.75> 229 23<99.1684 159.048>
VStem: 0 52<17.0803 75.3669> 56 41<170.138 227.805> 130 43<25.9659 109.307> 168 40<149.382 225.026>
LayerCount: 5
Fore
SplineSet
27 76 m 3xfc
 42 76 52 65 52 50 c 3
 52 40 50 40 50 33 c 3
 50 24 59 17 74 17 c 3
 113 17 130 38 130 73 c 3xfc
 130 105 117 110 88 113 c 0
 78 114 74 118 74 125 c 3
 74 132 79 135 86 135 c 3
 138 135 168 149 168 195 c 3
 168 215 154 229 129 229 c 3
 109 229 97 221 97 211 c 3
 97 201 100 201 100 191 c 3
 100 177 90 170 79 170 c 3
 63 170 56 182 56 197 c 3
 56 225 90 252 133 252 c 3
 178 252 208 229 208 191 c 3xfa
 208 164 193 144 165 130 c 0
 147 121 147 115 157 103 c 0
 164 95 173 83 173 66 c 3
 173 19 120 -8 80 -8 c 3
 40 -8 0 9 0 46 c 3
 0 64 13 76 27 76 c 3xfc
EndSplineSet
EndChar

StartChar: wcircumflex
Encoding: 373 373 241
Width: 212
VWidth: 2048
Flags: MW
HStem: -8 23<54.6888 109.727> 129 23<74.5 132.234> 204 40<78.5332 198.887>
VStem: 5 50<15.0125 67.691> 140 44<33.6919 126.626>
LayerCount: 5
Fore
SplineSet
55 41 m 0
 55 35 54 31 54 27 c 0
 54 20 56.167 15 75 15 c 0
 113 15 140 48 140 89 c 0
 140 116 129 129 102 129 c 0
 83 129 64 123 53 114 c 0
 49 111 44 107 38 109 c 0
 34 110 31 116 34 124 c 2
 72 236 l 2
 74 241 79 244 84 244 c 0
 92 244 114 240 137 240 c 0
 172 240 190 243 200 243 c 3
 205 243 207 240 207 237 c 0
 207 234 206 231 203 228 c 0
 190 212 159 203 132 203 c 0
 117 203 109 204 99 204 c 0
 89 204 84 201 81 191 c 2
 73 170 l 2
 68.833 159.062 67 150 80 150 c 3
 90 150 97 152 116 152 c 3
 152 152 184 131 184 90 c 0
 184 34 133 -8 81 -8 c 0
 40 -8 6 8 5 41 c 0
 5 56 15 68 29 68 c 0
 43 68 55 60 55 41 c 0
EndSplineSet
EndChar

StartChar: Uogonek
Encoding: 370 370 242
Width: 223
VWidth: 2048
Flags: MW
HStem: -4 43<88.1707 167.491> 228 24<94.1016 158.926>
VStem: 5 24<-1.354 31.7971> 46 44<156.126 226.134> 169 44<145.444 223.91> 173 19<54.5327 78.4133>
LayerCount: 5
Fore
SplineSet
213 186 m 0xf8
 213 145 177 125 149 114 c 0
 129 107 107 100 89 88 c 0
 59 68 78 60 88 53 c 0
 104 43 118 39 134 39 c 0
 151 39 164 50 173 68 c 0
 176 73 180 79 185 79 c 0
 191 79 193 73 192 69 c 0xf4
 188 40 164 -4 124 -4 c 0
 94 -4 84 36 56 36 c 0
 44 36 35 32 29 18 c 0
 23 4 22 -2 13 -2 c 0
 8 -2 5 5 5 10 c 0
 5 53 41 92 107 123 c 0
 141 139 169 151 169 191 c 3
 169 213 154 228 127 228 c 3
 107 228 90 221 90 206 c 0
 90 196 96 193 96 179 c 0
 96 167 85 156 70 156 c 0
 55 156 46 169 46 186 c 0
 46 221 84 252 133 252 c 0
 172 252 213 230 213 186 c 0xf8
EndSplineSet
EndChar

StartChar: Ycircumflex
Encoding: 374 374 243
Width: 193
VWidth: 2048
Flags: MW
HStem: -8 24<52.6746 111.744> 113 20<65.2885 121.734> 225 23<93.1065 143.405>
VStem: 10 37<18.7165 134.035> 131 40<27.0475 110.22> 140 48<173.233 224.01>
LayerCount: 5
Fore
SplineSet
163 173 m 3xf4
 150 173 140 181 140 194 c 3xf4
 140 203 144 206 144 215 c 3
 144 223 136 225 126 225 c 3
 104 225 87 213 75 192 c 0
 68 181 61 159 61 147 c 3
 61 139 64 133 72 133 c 3
 83 133 93 137 109 137 c 3
 150 137 171 111 171 78 c 3xf8
 171 28 131 -8 83 -8 c 0
 34 -8 10 21 10 78 c 0
 10 152 53 248 130 248 c 3
 157 248 188 233 188 201 c 3
 188 186 179 173 163 173 c 3xf4
80 16 m 0
 115 16 131 45 131 79 c 3xf8
 131 108 111 113 93 113 c 3
 61 113 47 87 47 53 c 0
 47 22 62 16 80 16 c 0
EndSplineSet
EndChar

StartChar: uring
Encoding: 367 367 244
Width: 229
VWidth: 952
Flags: HMW
HStem: -1 21G<67 75 106.5 116> 170 37<132.95 170.881> 180 27<136.744 168.603> 198 18<57.5237 71.4355>
VStem: 20 22<145.494 184.177 216.231 249.965> 61 64<0.114574 61.0354> 187 23<217.587 251.877>
LayerCount: 5
Fore
SplineSet
352 170 m 0xce
 331 170 323 198 299 198 c 0
 276 198 266 181 260 160 c 0
 256 147 251 145 245 145 c 0
 240 145 238 150 238 155 c 0
 238 159 241 182 241 197 c 0
 241 212 238 231 238 237 c 0
 238 245 243 250 248 250 c 0
 254 250 258 247 259 240 c 0
 261 229 263 216 273 216 c 0x9e
 290 216 297 243 323 243 c 0
 351 243 352 207 375 207 c 0xce
 394 207 399 223 405 243 c 0
 407 248 412 252 418 252 c 0
 425 252 428 245 428 241 c 0
 428 196 418 148 386 108 c 0
 362 75 347 51 343 17 c 0
 340 4 341 -1 327 -1 c 3
 322 -1 319 0 309 0 c 3
 301 0 296 -1 290 -1 c 3
 280 -1 276 2 279 14 c 0
 294 79 364 120 384 154 c 0
 389 162 399 180 386 180 c 0xae
 376 180 367 170 352 170 c 0xce
131 184 m 0xd8
 110 184 99 201 75 201 c 0
 52 201 46 193 41 171 c 0
 38 158 33 156 27 156 c 0
 22 156 20 161 20 166 c 2
 20 237 l 2
 20 246 25 250 30 250 c 0
 35 250 39 247 40 240 c 0
 42 229 45 223 54 223 c 0xb8
 71 223 83 243 104 243 c 0
 132 243 135 223 158 223 c 0
 177 223 186 235 188 243 c 0
 190 249 195 252 200 252 c 0
 204 252 209 249 209 241 c 0
 209 196 199 148 167 108 c 0
 143 75 128 51 124 17 c 0
 121 4 122 -1 108 -1 c 3
 103 -1 100 0 90 0 c 3
 82 0 77 -1 71 -1 c 3
 61 -1 57 2 60 14 c 0
 75 79 159 128 171 166 c 0
 174 175 179 189 166 189 c 0
 156 189 146 184 131 184 c 0xd8
EndSplineSet
EndChar

StartChar: uni0180
Encoding: 384 384 245
Width: 203
VWidth: 814
Flags: MW
HStem: -3 23<75.9475 129.544> 191 24<74.2923 129.998>
VStem: 17 38<33.1463 178.512> 148 38<29.7578 180.92>
LayerCount: 5
Fore
SplineSet
103 191 m 0
 70 191 55 161 55 106 c 0
 55 51 70 20 103 20 c 0
 136 20 148 51 148 106 c 0
 148 161 136 191 103 191 c 0
103 215 m 4
 165 215 186 164 186 106 c 0
 186 48 165 -3 103 -3 c 0
 41 -3 17 48 17 106 c 0
 17 164 41 215 103 215 c 4
EndSplineSet
EndChar

StartChar: uni0181
Encoding: 385 385 246
Width: 169
VWidth: 814
Flags: MW
HStem: 0 23<25.0117 71.4037 111.674 149.576> 130 84<64.5 103.5>
VStem: 74 36<25.2371 129.996>
LayerCount: 5
Fore
SplineSet
99 214 m 3
 108 214 110 210 110 200 c 2
 110 47 l 2
 110 20 124 27 145 24 c 0
 152 22 154 17 154 14 c 2
 154 11 l 2
 154 6 154 0 144 0 c 2
 36 0 l 2
 29 0 25 4 25 12 c 0
 25 17 28 22 35 23 c 0
 62 26 74 22 74 51 c 2
 74 112 l 2
 74 125 71 130 67 130 c 0
 62 130 57 126 50 120 c 2
 34 104 l 2
 30 100 26 98 22 98 c 0
 17 98 13 101 13 106 c 0
 13 109 14 112 17 115 c 2
 32 135 l 2
 46 154 63 179 76 199 c 0
 85 213 90 214 99 214 c 3
EndSplineSet
EndChar

StartChar: uni0182
Encoding: 386 386 247
Width: 200
VWidth: 814
Flags: MW
HStem: -2 36<93.2311 159.086> 194 22<70.3069 132.733>
VStem: 17 57<5.5 63.8239> 25 42<136.008 191.543> 143 39<123.186 189.242> 163 20<43.2825 75.6638>
LayerCount: 5
Fore
SplineSet
46 136 m 0xd8
 57 136 67 143 67 156 c 0xd8
 67 160 65 165 65 170 c 0
 65 188 86 194 101 194 c 0
 129 194 143 180 143 155 c 0
 143 125 116 120 83 101 c 0
 50 82 17 47 17 11 c 0xe8
 17 0 22 -4 26 -4 c 0
 30 -4 34 -1 36 6 c 0
 42 23 54 29 67 29 c 0xd0
 93 29 95 -2 134 -2 c 0
 164 -2 183 36 183 64 c 0
 183 73 179 76 175 76 c 0
 170 76 166 71 163 61 c 0
 158 45 150 34 131 34 c 0
 112 34 102 40 85 50 c 0
 78 54 74 59 74 62 c 0xe4
 74 75 103 86 113 89 c 0
 132 95 182 112 182 155 c 0
 182 191 153 216 106 216 c 0
 61 216 25 194 25 160 c 0
 25 147 32 136 46 136 c 0xd8
EndSplineSet
EndChar

StartChar: uni0183
Encoding: 387 387 248
Width: 191
VWidth: 814
Flags: MW
HStem: -4 22<61.6371 123.292> 96 22<70.0266 124.986> 194 22<65.1695 125.866>
VStem: 17 42<19.1633 70.968 142.259 191.895> 135 39<23.464 91.1631 124.403 189.613>
LayerCount: 5
Fore
SplineSet
61 166 m 2
 61 152 55 142 41 142 c 0
 28 142 20 152 20 165 c 0
 20 199 65 216 95 216 c 0
 142 216 173 194 173 160 c 0
 173 130 144 122 144 108 c 0
 144 94 174 89 174 54 c 0
 174 16 136 -4 96 -4 c 0
 56 -4 17 14 17 46 c 3
 17 60 27 71 39 71 c 3
 52 71 59 61 59 48 c 2
 59 38 l 2
 59 23 74 18 93 18 c 0
 123 18 135 38 135 57 c 0
 135 92 110 96 84 96 c 0
 74 96 70 99 70 106 c 0
 70 115 73 118 84 118 c 0
 125 118 136 131 136 161 c 0
 136 184 115 194 96 194 c 0
 79 194 61 188 61 173 c 2
 61 166 l 2
EndSplineSet
EndChar

StartChar: uni0184
Encoding: 388 388 249
Width: 225
VWidth: 814
Flags: MW
HStem: 0 23<67.006 117.456 154.026 201.994> 70 22<55.0008 65 102 116.931 153.572 168 196 208.986>
VStem: 17 38<78.5 121.741> 62 52<161.612 216> 117 36<25.4785 45 52 69.9949 93.0312 108 116 149.508>
LayerCount: 5
Fore
SplineSet
119 45 m 2
 119 23 107 26 76 23 c 0
 69 22 67 18 67 11 c 0
 67 4 72 0 79 0 c 2
 190 0 l 2
 200 0 202 6 202 12 c 0
 202 18 202 22 192 24 c 0
 171 27 153 21 153 41 c 2
 153 52 l 2
 153 63 156 70 168 70 c 2
 196 70 l 2
 208 70 209 75 209 82 c 0
 209 88 208 93 197 93 c 2
 165 93 l 2
 154 93 153 102 153 108 c 2
 153 149 l 2
 153 160 144 161 139 155 c 2
 123 135 l 2
 119 130 117 125 117 116 c 2
 117 104 l 2
 117 98 116 92 102 92 c 2
 65 92 l 2
 56 92 55 98 55 101 c 0
 55 106 58 112 86 152 c 0
 108 183 114 198 114 208 c 0
 114 214 112 216 106 216 c 2
 76 216 l 2
 70 216 66 216 62 202 c 0
 51 157 46 140 26 103 c 0
 22 95 17 84 17 81 c 0
 17 76 19 70 32 70 c 2
 103 70 l 2
 115 70 119 63 119 52 c 2
 119 45 l 2
EndSplineSet
EndChar

StartChar: uni0185
Encoding: 389 389 250
Width: 185
VWidth: 814
Flags: MW
HStem: -3 21<62.083 113.323> 112 23<46.3264 116.119> 177 36<46.2548 148.641>
VStem: 17 44<18.807 63.9927> 24 22<130.001 176.945> 128 40<24.4532 106.943>
LayerCount: 5
Fore
SplineSet
39 64 m 0xf4
 53 64 61 54 61 39 c 2
 61 33 l 2xf4
 61 21 73 18 84 18 c 0
 111 18 128 35 128 66 c 0
 128 97 113 112 85 112 c 0
 67 112 62 110 51 106 c 0
 42 102 37 97 31 97 c 0
 25 97 21 100 21 109 c 0
 21 120 24 141 24 190 c 2
 24 197 l 2
 24 210 30 213 43 213 c 0
 56 213 61 208 100 208 c 0
 118 208 138 213 147 213 c 0
 150 213 153 211 153 207 c 0
 153 198 146 190 137 185 c 0
 125 179 113 175 93 175 c 0
 82 175 74 177 58 177 c 0
 45 177 46 158 46 145 c 0xec
 46 132 50 130 54 130 c 0
 66 130 70 135 100 135 c 0
 140 135 168 111 168 68 c 0
 168 34 142 -3 83 -3 c 0
 52 -3 17 11 17 42 c 0
 17 54 25 64 39 64 c 0xf4
EndSplineSet
EndChar

StartChar: uni0186
Encoding: 390 390 251
Width: 188
VWidth: 928
Flags: MW
HStem: -2 23<68.0706 125.816> 97 23<67.6918 126.617> 193 22<77.1639 122.958>
VStem: 17 41<28.1318 177.981> 123 41<153.286 192.641> 135 36<25.873 92.6723>
LayerCount: 5
Fore
SplineSet
97 97 m 3xf4
 76 97 58 85 58 59 c 3
 58 40 70 21 98 21 c 3
 123 21 135 37 135 61 c 3
 135 79 126 97 97 97 c 3xf4
107 193 m 3
 71 193 58 161 58 131 c 3
 58 116 67 116 71 116 c 3
 83 116 91 120 111 120 c 3
 146 120 171 98 171 62 c 3xf4
 171 21 139 -2 103 -2 c 3
 42 -2 17 43 17 105 c 3
 17 167 49 215 108 215 c 3
 136 215 157 202 164 185 c 0
 169 171 166 159 154 153 c 0
 142 148 129 154 126 163 c 0
 123 170 124 177 123 182 c 0xf8
 122 188 118 193 107 193 c 3
EndSplineSet
EndChar

StartChar: uni0187
Encoding: 391 391 252
Width: 193
VWidth: 1018
Flags: MW
HStem: 0 21G<49.5 92> 154 36<74.8816 138.486> 170 20<40.0215 66.1188>
VStem: 14 20<132.084 164.505 190.366 213.997> 45 55<0 56.0167> 138 34<122.919 154.968>
LayerCount: 5
Fore
SplineSet
106 154 m 0xdc
 90 154 80 170 61 170 c 0
 46 170 38 163 34 144 c 0
 32 133 27 132 22 132 c 0
 18 132 14 135 14 142 c 2
 14 203 l 2
 14 210 18 214 24 214 c 0
 28 214 32 211 33 205 c 0
 35 195 40 190 47 190 c 0xbc
 60 190 70 208 87 208 c 0
 106 208 109 190 126 190 c 0
 141 190 150 202 152 208 c 0
 154 213 159 216 164 216 c 0
 168 216 172 213 172 207 c 0
 172 168 164 126 136 92 c 0
 116 64 103 44 100 15 c 0
 98 4 98 0 86 0 c 2
 54 0 l 2
 45 0 43 1 45 12 c 0
 58 68 127 110 138 142 c 0
 142 159 135 161 121 156 c 0
 117 155 111 154 106 154 c 0xdc
EndSplineSet
EndChar

StartChar: uni0188
Encoding: 392 392 253
Width: 195
VWidth: 814
Flags: MW
HStem: -3 23<56.0935 134.502> 93 31<67.0517 128.305> 193 22<59.6638 135.714>
VStem: 17 26<31.7921 83.336> 20 32<138.863 187.566> 144 35<26.6761 78.6785 126.039 186.943>
LayerCount: 5
Fore
SplineSet
80 93 m 3xf4
 59 93 43 74 43 57 c 3
 43 32 68 20 95 20 c 3
 124 20 144 31 144 52 c 3
 144 74 112 93 80 93 c 3xf4
96 193 m 3
 78 193 52 188 52 164 c 3xec
 52 136 96 124 116 124 c 3
 137 124 149 144 149 157 c 3
 149 180 126 193 96 193 c 3
96 215 m 3
 135 215 173 198 173 155 c 3
 173 128 155 122 155 109 c 3
 155 94 179 89 179 58 c 3
 179 26 146 -3 97 -3 c 3
 50 -3 17 19 17 58 c 3xf4
 17 87 41 99 41 110 c 3
 41 122 20 127 20 157 c 3
 20 193 57 215 96 215 c 3
EndSplineSet
EndChar

StartChar: uni0189
Encoding: 393 393 254
Width: 188
VWidth: 928
Flags: MW
HStem: -2 22<68.5745 112.942> 92 23<62.3933 120.878> 191 24<61.9275 122.221>
VStem: 17 37<119.007 186.581> 22 46<20.3594 45.7188> 131 40<36.5179 186.683>
LayerCount: 5
Fore
SplineSet
91 115 m 3xf4
 112 115 131 127 131 153 c 3
 131 172 121 191 93 191 c 3
 67 191 54 178 54 152 c 3
 54 134 62 115 91 115 c 3xf4
87 20 m 3
 118 20 131 51 131 81 c 3
 131 96 122 96 118 96 c 3
 106 96 101 92 83 92 c 3
 48 92 17 114 17 150 c 3xf4
 17 191 56 215 92 215 c 3
 153 215 171 169 171 107 c 3
 171 45 134 -2 87 -2 c 3
 46 -2 22 14 22 35 c 0
 22 47 32 55 43 55 c 0
 50 55 57 52 62 46 c 0
 66 40 67 34 68 30 c 0xec
 70 25 75 20 87 20 c 3
EndSplineSet
EndChar

StartChar: ycircumflex
Encoding: 375 375 255
Width: 187
VWidth: 2048
Flags: MW
HStem: 181 57<70.0233 159.859> 192 26<134.111 164.78> 201 21<55.9439 90.2695>
VStem: 41 61<-1.94272 48.7979>
LayerCount: 5
Fore
SplineSet
149 188 m 0x50
 141 184 132 181 124 181 c 0x90
 102 181 91 201 69 201 c 0
 54 201 48 190 43 178 c 0
 39 169 33 165 27 165 c 0
 24 165 20 168 20 173 c 0
 20 180 35 232 36 239 c 0
 37 245 41 247 47 247 c 0
 61 247 49 222 67 222 c 0x30
 80 222 91 238 111 238 c 0x90
 135 238 143 218 161 218 c 0
 175 218 183 227 186 237 c 0
 188 244 194 246 199 246 c 0
 204 246 207 241 207 236 c 0
 207 234 206 233 206 231 c 0
 195 184 185 161 154 122 c 0
 130 93 108 58 102 18 c 0
 100 4 99 -3 86 -3 c 3
 79 -3 75 -2 68 -2 c 3
 59 -2 59 -3 52 -3 c 3
 45 -3 41 -1 41 4 c 0
 41 7 43 12 46 18 c 0
 61 49 78 81 119 122 c 0
 136 139 147 154 158 169 c 0
 162 176 165 182 165 186 c 0
 165 190 163 192 160 192 c 0
 157 192 154 191 149 188 c 0x50
EndSplineSet
EndChar

StartChar: Uring
Encoding: 366 366 256
Width: 220
VWidth: 1085
Flags: HMW
HStem: -3 25<79.0845 147.141> 114 24<79.2788 146.308> 227 24<89.8675 148.346>
VStem: 20 45<35.1905 206.182> 149 48<171.498 226.775> 157 43<26.1859 109.594>
LayerCount: 5
Fore
SplineSet
345 114 m 3xf4
 320 114 296 99 296 69 c 3
 296 46 310 22 346 22 c 3
 376 22 388 39 388 71 c 3
 388 92 379 114 345 114 c 3xf4
380 215 m 0xf8
 380 224 373 227 356 227 c 3
 309 227 296 185 296 150 c 3
 296 132 306 132 311 132 c 3
 325 132 337 138 361 138 c 3
 402 138 431 115 431 73 c 3xf4
 431 25 394 -3 351 -3 c 3
 280 -3 251 51 251 123 c 3
 251 196 287 251 358 251 c 3
 401 251 428 227 428 203 c 3
 428 189 421 171 401 171 c 3
 384 171 375 182 375 195 c 0
 375 206 380 209 380 215 c 0xf8
114 114 m 3xf4
 89 114 65 99 65 69 c 3
 65 46 79 22 115 22 c 3
 145 22 157 39 157 71 c 3
 157 92 148 114 114 114 c 3xf4
148 214 m 0xf8
 148 223 142 227 125 227 c 3
 78 227 65 185 65 150 c 3
 65 132 75 132 80 132 c 3
 94 132 106 138 130 138 c 3
 171 138 200 115 200 73 c 3xf4
 200 25 163 -3 120 -3 c 3
 49 -3 20 51 20 123 c 3
 20 196 56 251 127 251 c 3
 170 251 197 228 197 200 c 3
 197 186 188 171 172 171 c 3
 155 171 146 182 146 195 c 0
 146 204 148 208 148 214 c 0xf8
EndSplineSet
EndChar

StartChar: Eng
Encoding: 330 330 257
Width: 302
VWidth: 1024
Flags: MW
HStem: -4 29<94.1517 177.808> 152 32<99.6455 188.424> 343 29<103.364 188.241>
VStem: 19 63<196.008 325.52> 27 66<26.9736 99.5961> 215 67<78.1657 296.428>
LayerCount: 5
Fore
SplineSet
143 184 m 3xf4
 157 184 181 190 195 206 c 0
 209 221 215 241 215 270 c 3
 215 305 195 343 142 343 c 3
 98 343 82 310 82 259 c 3
 82 219 93 184 143 184 c 3xf4
128 -4 m 3
 64 -4 27 30 27 70 c 3
 27 107 49 122 75 122 c 3
 101 122 112 104 112 85 c 3
 112 61 93 57 93 42 c 3xec
 93 32 108 25 131 25 c 3
 199 25 215 81 215 132 c 3
 215 159 207 164 199 164 c 3
 179 164 155 152 119 152 c 3
 58 152 19 194 19 256 c 3
 19 326 72 372 136 372 c 3
 240 372 282 292 282 186 c 3
 282 78 232 -4 128 -4 c 3
EndSplineSet
EndChar

